<?xml version="1.0" encoding="UTF-8"?>
<svg version="1.1" xmlns="http://www.w3.org/2000/svg" width="783" height="220">
<path d="M0 0 C258.39 0 516.78 0 783 0 C783 72.6 783 145.2 783 220 C524.61 220 266.22 220 0 220 C0 147.4 0 74.8 0 0 Z " fill="#040B11" transform="translate(0,0)"/>
<path d="M0 0 C4.58035983 2.38214166 8.68154819 3.68667092 13.81542969 4.42871094 C16.91104785 5.07337798 18.67312883 6.57902995 20.80371094 8.84277344 C23.29599035 13.08854943 23.75147864 17.02292915 22.80371094 21.84277344 C20.49531319 25.7677778 18.1510704 28.39365362 13.80371094 29.84277344 C7.2260643 30.62036345 3.2527024 29.55272507 -2.19628906 25.84277344 C-4.13446219 26.96661336 -6.07180424 28.09188665 -8.00878906 29.21777344 C-9.08773437 29.84425781 -10.16667969 30.47074219 -11.27832031 31.11621094 C-15.40893794 33.21395435 -15.40893794 33.21395435 -17.91894531 36.79589844 C-18.68315061 41.50711206 -18.68315061 41.50711206 -16.91503906 45.76855469 C-15.09842674 47.62213303 -15.09842674 47.62213303 -12.19628906 49.84277344 C-9.16721052 48.39739121 -6.39624226 46.71342752 -3.57128906 44.90527344 C7.7257397 38.20891871 20.03693932 37.14527409 32.90527344 39.38183594 C35.30009821 40.05653889 37.52022933 40.8592514 39.80371094 41.84277344 C40.47144531 42.09800781 41.13917969 42.35324219 41.82714844 42.61621094 C53.50792875 47.64864198 62.59749513 58.66289381 67.24121094 70.28027344 C70.74210138 82.01052973 70.49862048 95.91279176 64.80371094 106.84277344 C64.36800781 107.70128906 63.93230469 108.55980469 63.48339844 109.44433594 C57.03153028 121.11410839 47.48525851 128.89278321 34.80371094 132.84277344 C31.80371094 133.03027344 31.80371094 133.03027344 29.80371094 132.84277344 C29.57683594 131.54339844 29.34996094 130.24402344 29.11621094 128.90527344 C28.11735755 124.29742424 26.27082397 120.69495 23.82714844 116.69042969 C22.80371094 114.84277344 22.80371094 114.84277344 22.80371094 112.84277344 C23.36058594 112.75640625 23.91746094 112.67003906 24.49121094 112.58105469 C31.5951424 111.27306731 36.79573068 108.68364368 42.05371094 103.71777344 C46.25514361 96.81541976 49.22813787 88.98235589 47.80371094 80.84277344 C45.62466261 73.59560146 41.81624219 67.3746422 35.35839844 63.29980469 C28.12314877 59.62034011 21.3891573 58.34150989 13.46386719 60.47167969 C4.2196498 64.09463308 -3.12726282 71.17663503 -9.19628906 78.84277344 C-13.19061687 77.22216311 -15.99187227 74.44938171 -19.00878906 71.46777344 C-19.52376953 70.98566406 -20.03875 70.50355469 -20.56933594 70.00683594 C-22.02832031 68.56933594 -22.02832031 68.56933594 -24.19628906 65.84277344 C-24.17173741 62.41781816 -23.04385986 61.67919087 -20.63378906 59.09277344 C-19.82941406 58.35027344 -19.02503906 57.60777344 -18.19628906 56.84277344 C-19.56612409 53.68161568 -20.18535286 52.85006424 -23.19628906 50.84277344 C-23.19628906 50.18277344 -23.19628906 49.52277344 -23.19628906 48.84277344 C-23.93234375 48.88917969 -24.66839844 48.93558594 -25.42675781 48.98339844 C-33.43202107 49.279498 -33.43202107 49.279498 -37.25878906 47.09277344 C-40.74249586 43.04717845 -41.66004928 40.30986163 -41.51660156 34.80761719 C-40.88061525 30.90638409 -38.46178853 28.7591696 -35.38378906 26.53027344 C-31.31519852 25.25157355 -27.42763247 25.45968882 -23.38378906 26.71777344 C-18.78082167 26.89828196 -16.12437742 24.68888069 -12.36816406 22.19042969 C-10.19628906 20.84277344 -10.19628906 20.84277344 -8.19628906 20.84277344 C-8.19628906 20.18277344 -8.19628906 19.52277344 -8.19628906 18.84277344 C-9.43378906 18.44058594 -9.43378906 18.44058594 -10.69628906 18.03027344 C-14.19628906 16.84277344 -14.19628906 16.84277344 -17.74316406 15.29980469 C-22.78126104 13.41341245 -27.61107576 13.30644506 -32.94628906 13.34277344 C-34.40446045 13.35135376 -34.40446045 13.35135376 -35.89208984 13.36010742 C-46.87759295 13.63277117 -54.71756575 16.77257838 -62.77050781 24.29199219 C-65.54026454 27.30457691 -65.87581056 30.2263713 -65.74139404 34.21142578 C-65.06690145 37.46735733 -63.95781351 38.71659719 -61.68554688 41.13183594 C-60.86316528 42.00614258 -60.04078369 42.88044922 -59.19348145 43.78125 C-53.55860008 49.57209699 -47.81732181 55.25633778 -42.06343842 60.92852783 C-38.87981723 64.06957483 -35.70593969 67.22039389 -32.53136063 70.37057495 C-26.6425621 76.2138865 -20.74989099 82.05315937 -14.84082031 87.87597656 C-10.70873269 91.94849325 -6.58911882 96.03327258 -2.47733307 100.12628174 C-0.9174462 101.67448034 0.64694988 103.21815023 2.21604156 104.75701904 C4.4123608 106.9120601 6.59237984 109.08245497 8.76953125 111.25683594 C9.41066864 111.8784259 10.05180603 112.50001587 10.71237183 113.14044189 C17.75386048 120.2456678 21.80020247 128.46789855 22.11621094 138.53027344 C21.94671031 148.06468392 17.84204811 154.75521769 11.35058594 161.52246094 C-2.67786516 174.30298234 -19.8292028 178.57916207 -38.29394531 178.15917969 C-48.58147241 177.67603585 -57.90202867 174.87164581 -66.89160156 169.86230469 C-69.51020681 168.70390474 -71.59716697 168.49072488 -74.44628906 168.34277344 C-79.63041527 168.05748347 -81.67262704 166.63071011 -85.19628906 162.84277344 C-87.50180424 159.80368524 -87.61823513 156.64844274 -87.51269531 152.87011719 C-86.8252881 148.46561913 -84.26117668 145.73017978 -80.94628906 142.96777344 C-77.31878738 141.48379548 -74.02383553 141.11192303 -70.19628906 141.84277344 C-68.19628906 143.17610677 -66.19628906 144.5094401 -64.19628906 145.84277344 C-58.37817433 144.10616921 -52.74173784 140.837944 -48.19628906 136.84277344 C-46.74265998 133.70293461 -46.50538366 131.22560274 -47.19628906 127.84277344 C-48.6792175 125.10640043 -48.6792175 125.10640043 -51.19628906 123.84277344 C-54.61399668 124.27448387 -56.9759612 125.85487149 -59.82128906 127.71777344 C-71.72041168 134.87100322 -85.50226433 135.9772376 -99.02832031 132.99902344 C-110.32721862 129.03167599 -120.84255457 120.75128582 -126.66503906 110.17480469 C-132.69784718 97.46031084 -134.62175298 84.1630957 -130.25878906 70.59277344 C-124.65179404 56.71783661 -115.56359841 48.39011491 -102.59082031 41.72558594 C-99.9692199 40.75905789 -97.96787325 40.67539535 -95.19628906 40.84277344 C-94.79796875 41.81859375 -94.39964844 42.79441406 -93.98925781 43.79980469 C-93.45449042 45.0851228 -92.91931258 46.37027019 -92.38378906 47.65527344 C-92.12275391 48.29787109 -91.86171875 48.94046875 -91.59277344 49.60253906 C-90.18650319 52.95328175 -88.89161893 55.40645424 -86.19628906 57.84277344 C-86.19628906 58.50277344 -86.19628906 59.16277344 -86.19628906 59.84277344 C-87.03160156 59.95492187 -87.03160156 59.95492187 -87.88378906 60.06933594 C-95.2629924 61.34075273 -100.33931928 64.20324237 -104.99316406 70.13183594 C-110.15338304 77.67558463 -110.96838881 83.72565045 -110.19628906 92.84277344 C-108.39945268 99.22945613 -105.09848483 104.88102527 -99.53222656 108.64355469 C-91.56848164 112.70947723 -86.12509706 114.20904902 -77.39941406 112.19824219 C-67.4456751 108.89349552 -61.08732317 101.3760193 -54.19628906 93.84277344 C-49.53497489 95.23696831 -46.96456135 97.87125705 -43.88378906 101.46777344 C-43.42939453 101.98339844 -42.975 102.49902344 -42.50683594 103.03027344 C-41.39520901 104.29401774 -40.29460686 105.5674452 -39.19628906 106.84277344 C-40.81011663 110.24489642 -42.78232672 112.94601862 -45.19628906 115.84277344 C-44.26525582 118.17035654 -43.54246778 119.58634476 -41.50878906 121.09277344 C-39.06576197 122.0314227 -39.06576197 122.0314227 -35.82128906 121.71777344 C-31.35616091 121.87174337 -29.58591854 122.9924032 -26.19628906 125.84277344 C-24.03298846 128.58295419 -23.27276458 130.32929495 -22.75878906 133.78027344 C-23.31561776 137.67807432 -24.76211583 139.78266995 -27.19628906 142.84277344 C-30.99219547 145.37337771 -32.75945934 144.8674019 -37.25878906 144.59277344 C-44.65623782 144.32041975 -49.42177551 146.27751096 -55.19628906 150.84277344 C-50.39062048 155.64844202 -43.05409573 156.22385609 -36.546875 156.3112793 C-35.66805664 156.30104736 -34.78923828 156.29081543 -33.88378906 156.28027344 C-32.96243164 156.2719751 -32.04107422 156.26367676 -31.09179688 156.25512695 C-19.55518507 155.96985874 -10.60916577 152.97270587 -2.19628906 144.84277344 C-0.11008308 141.71346447 0.40657504 139.74783446 0.31173515 136.00593758 C-0.32273456 133.30436924 -1.38782408 132.07860721 -3.26217651 130.04464722 C-3.89992886 129.34939816 -4.5376812 128.65414909 -5.19475937 127.93783188 C-8.31465209 124.67215084 -11.48312969 121.46577268 -14.70458984 118.30029297 C-15.41934479 117.59342346 -16.13409973 116.88655396 -16.87051392 116.15826416 C-18.40868155 114.63717488 -19.94789778 113.11714536 -21.48807144 111.59808731 C-24.77150174 108.35704497 -28.04535632 105.10640061 -31.31985283 101.85633659 C-37.4010244 95.82072961 -43.48593336 89.78901983 -49.58740234 83.77392578 C-53.84685887 79.57403521 -58.0938505 75.36188464 -62.333004 71.1415062 C-63.9431334 69.54307254 -65.55777459 67.94916969 -67.17709732 66.3600502 C-69.44547004 64.13294386 -71.69756924 61.89048036 -73.94677734 59.64404297 C-74.6097583 59.00060944 -75.27273926 58.3571759 -75.95581055 57.69424438 C-83.42388297 50.1607254 -87.26636009 41.79646312 -87.57128906 31.21777344 C-87.49494819 22.02824071 -84.16625997 15.1910161 -77.96972656 8.49121094 C-56.27140962 -11.67770922 -25.37015921 -13.40874516 0 0 Z " fill="#31AC59" transform="translate(140.1962890625,23.1572265625)"/>
<path d="M0 0 C7.23277104 4.0550595 10.72995096 8.91323165 13.015625 16.85546875 C13.91619933 25.59941719 13.50608078 34.12538053 9.015625 41.85546875 C4.64184467 46.91407898 -0.07826922 50.3436342 -6.81640625 51.2265625 C-13.95064731 51.38551676 -18.45587635 50.4751731 -23.984375 45.85546875 C-24.314375 45.52546875 -24.644375 45.19546875 -24.984375 44.85546875 C-25.314375 53.10546875 -25.644375 61.35546875 -25.984375 69.85546875 C-30.274375 69.85546875 -34.564375 69.85546875 -38.984375 69.85546875 C-38.984375 46.75546875 -38.984375 23.65546875 -38.984375 -0.14453125 C-34.694375 -0.14453125 -30.404375 -0.14453125 -25.984375 -0.14453125 C-25.654375 1.17546875 -25.324375 2.49546875 -24.984375 3.85546875 C-24.56929687 3.49453125 -24.15421875 3.13359375 -23.7265625 2.76171875 C-16.71298466 -2.52047377 -8.17310517 -3.13445002 0 0 Z " fill="#E2EAF1" transform="translate(545.984375,66.14453125)"/>
<path d="M0 0 C4.99955848 3.36704959 9.12692682 7.14664631 11 13 C11.21562654 16.04885902 11.13930542 18.93528085 11 22 C6.71 22 2.42 22 -2 22 C-2.37125 20.576875 -2.7425 19.15375 -3.125 17.6875 C-4.27408286 14.30408935 -4.73880393 13.20522548 -7.625 10.9375 C-13.21764625 9.38398715 -17.8313234 8.84927364 -23.0625 11.625 C-25.22742891 13.89209196 -25.22742891 13.89209196 -25.5625 17 C-24.84220722 20.84156148 -24.10954388 21.6201996 -21 24 C-17.60786638 25.25882752 -14.13309684 26.1253786 -10.625 27 C-0.98975769 29.42211892 4.88722232 31.96606362 11 40 C13.19782446 44.39564891 12.32178219 50.20252004 12 55 C10.00881827 60.86874614 6.32444069 64.64407626 1 67.75 C-6.74366621 70.97652759 -16.59782118 71.35054471 -24.734375 69.31640625 C-31.12736773 66.66000755 -36.40108015 62.77146107 -39.875 56.75 C-41.26802572 52.10658093 -41.66881833 47.83525235 -42 43 C-37.38 43 -32.76 43 -28 43 C-27.7525 44.4025 -27.505 45.805 -27.25 47.25 C-26.36158272 51.25732903 -25.42290249 53.51061637 -22 56 C-18.9489365 57.01702117 -16.75800939 57.16582083 -13.5625 57.1875 C-12.14130859 57.20876953 -12.14130859 57.20876953 -10.69140625 57.23046875 C-7.92156542 56.99328354 -6.31815768 56.5049543 -4 55 C-2.44539695 51.89079391 -2.27279307 48.36916972 -3 45 C-6.24935817 41.54913124 -10.69186435 40.79102847 -15.125 39.625 C-33.64411596 34.4413019 -33.64411596 34.4413019 -38 27 C-40.34545104 21.72273516 -40.9767423 16.48742888 -39.41796875 10.921875 C-36.48305528 3.89952497 -30.74857694 0.79279767 -24.125 -2.375 C-15.94070254 -4.01185949 -7.6146612 -3.58040361 0 0 Z " fill="#37AA5C" transform="translate(485,47)"/>
<path d="M0 0 C4.29 0 8.58 0 13 0 C13 8.58 13 17.16 13 26 C15.97 24.02 18.94 22.04 22 20 C27.78455804 18.63274083 33.33664579 19.16833199 38.5 22.1875 C43.63356173 25.97909331 46.32618474 29.83335942 48 36 C48.16237778 38.78486623 48.23437565 41.46222484 48.1953125 44.2421875 C48.1924826 45.01055939 48.18965271 45.77893127 48.18673706 46.57058716 C48.17561311 49.00555521 48.1505236 51.44014462 48.125 53.875 C48.11496011 55.53384882 48.10583603 57.19270346 48.09765625 58.8515625 C48.07569937 62.90118579 48.04122406 66.95052887 48 71 C43.38 71 38.76 71 34 71 C33.9906543 69.96069336 33.98130859 68.92138672 33.97167969 67.85058594 C33.93175877 63.98866162 33.86599522 60.1275322 33.79248047 56.26611328 C33.76428282 54.59596989 33.74306221 52.92569335 33.72900391 51.25537109 C33.70755663 48.85184628 33.66090155 46.44992017 33.609375 44.046875 C33.60814636 43.30193787 33.60691772 42.55700073 33.60565186 41.78948975 C33.50699967 38.28527155 33.26612219 36.34531993 31.09838867 33.5324707 C28.03734977 31.29696853 25.876677 31.38337409 22.19140625 31.53515625 C18.70046909 32.27565807 17.10384626 34.23870179 15 37 C13.52793987 39.94412027 13.76192808 42.96285915 13.68359375 46.1953125 C13.66281265 46.90275604 13.64203156 47.61019958 13.62062073 48.33908081 C13.55518922 50.60095425 13.49627026 52.86294462 13.4375 55.125 C13.39430867 56.65756422 13.35069418 58.19011657 13.30664062 59.72265625 C13.19951445 63.48165073 13.0982291 67.24076292 13 71 C8.71 71 4.42 71 0 71 C0 47.57 0 24.14 0 0 Z " fill="#DFE7ED" transform="translate(569,45)"/>
<path d="M0 0 C3.59076877 1.89331444 5.81142338 3.73623882 8.4375 6.8125 C8.994375 7.410625 9.55125 8.00875 10.125 8.625 C13.79182205 14.73637009 13.4375 20.79380675 13.4375 27.8125 C1.5575 27.8125 -10.3225 27.8125 -22.5625 27.8125 C-19.7279633 36.7595244 -19.7279633 36.7595244 -14.5625 38.8125 C-9.44286792 39.14279884 -5.28452861 39.06108505 -0.5625 36.8125 C0.85805068 34.81113756 0.85805068 34.81113756 1.4375 32.8125 C4.92420834 33.9219072 8.21234237 35.07587666 11.4375 36.8125 C11.35759578 39.52924362 10.87923356 41.29885633 9.09375 43.375 C1.92567162 49.89143489 -4.83156754 51.40144627 -14.4375 51.16796875 C-18.83896939 50.66730161 -21.94196062 49.29515558 -25.5625 46.8125 C-26.47 46.235 -27.3775 45.6575 -28.3125 45.0625 C-34.47354521 38.90145479 -35.90588842 31.15789882 -35.94750977 22.72094727 C-35.78735395 15.51047282 -33.70262106 10.23873688 -28.84765625 4.94140625 C-20.96527138 -2.25105434 -10.08451082 -3.38716394 0 0 Z " fill="#E3EBF1" transform="translate(754.5625,66.1875)"/>
<path d="M0 0 C6.2424181 4.18493949 9.89837174 10.00962522 11.7421875 17.16796875 C11.7421875 20.46796875 11.7421875 23.76796875 11.7421875 27.16796875 C-0.1378125 27.16796875 -12.0178125 27.16796875 -24.2578125 27.16796875 C-22.13531239 34.66963992 -22.13531239 34.66963992 -19.0703125 37.16796875 C-14.24473684 38.88372899 -10.12130843 39.03760018 -5.4453125 36.85546875 C-3.54875885 35.39241308 -1.8632406 33.94238928 -0.2578125 32.16796875 C3.22889584 33.27737595 6.51702987 34.43134541 9.7421875 36.16796875 C9.66228328 38.88471237 9.18392106 40.65432508 7.3984375 42.73046875 C0.31492589 49.17002476 -6.49007453 50.82474397 -16 50.58203125 C-22.35003593 49.77495234 -27.83230749 47.08097863 -32.1953125 42.35546875 C-37.65296255 33.92091868 -38.3611418 26.1189482 -37.2578125 16.16796875 C-35.23177975 9.29746659 -31.34406806 3.98477309 -25.2578125 0.16796875 C-18.0350799 -3.41263634 -7.36845735 -3.36798587 0 0 Z " fill="#E1E9F0" transform="translate(663.2578125,66.83203125)"/>
<path d="M0 0 C3.96 0 7.92 0 12 0 C12 12.21 12 24.42 12 37 C16.27188686 34.43686789 18.45330187 32.68651935 21.625 29.0625 C22.38039063 28.20785156 23.13578125 27.35320312 23.9140625 26.47265625 C26.0227496 24.13846841 26.0227496 24.13846841 27.26171875 21.69921875 C29 20 29 20 32.79296875 19.609375 C34.25832231 19.63589724 35.72341551 19.68350883 37.1875 19.75 C37.93708984 19.76804687 38.68667969 19.78609375 39.45898438 19.8046875 C41.3065371 19.85175891 43.15343159 19.92350234 45 20 C40.95248474 25.68839983 36.55149051 30.78523845 31.69604492 35.78613281 C28.27413413 39.37411634 28.27413413 39.37411634 27 44 C27.93741112 45.86841768 27.93741112 45.86841768 29.5 47.57421875 C30.05469971 48.23800537 30.60939941 48.90179199 31.1809082 49.58569336 C31.7812085 50.27928955 32.38150879 50.97288574 33 51.6875 C34.20239624 53.1193104 35.40422301 54.55159923 36.60546875 55.984375 C37.18989746 56.67337891 37.77432617 57.36238281 38.37646484 58.07226562 C40.40934743 60.48604621 42.37317659 62.94809935 44.3125 65.4375 C44.84488281 66.11683594 45.37726563 66.79617187 45.92578125 67.49609375 C47 69 47 69 47 70 C41.29718625 71.18060672 35.56690814 72.15440167 30 70 C24.64078411 65.3151717 21.00362346 58.96786406 17.46948242 52.85766602 C15.95665251 50.5567962 15.95665251 50.5567962 12 50 C12 56.27 12 62.54 12 69 C8.04 69 4.08 69 0 69 C0 46.23 0 23.46 0 0 Z " fill="#E4EDF3" transform="translate(393,46)"/>
<path d="M0 0 C5.02061936 2.88661796 9.26310799 7.16090388 11.171875 12.72729492 C11.82354932 16.19993989 11.74313252 19.64879761 11.71875 23.16796875 C11.71733505 23.93917053 11.7159201 24.71037231 11.71446228 25.50494385 C11.70887909 27.96036713 11.6963297 30.41569817 11.68359375 32.87109375 C11.67857658 34.53906118 11.67401405 36.20703004 11.66992188 37.875 C11.65891516 41.95706662 11.64166211 46.03906456 11.62109375 50.12109375 C7.00109375 50.12109375 2.38109375 50.12109375 -2.37890625 50.12109375 C-2.4039624 49.07655029 -2.42901855 48.03200684 -2.45483398 46.95581055 C-2.54899164 43.08117359 -2.64919197 39.20671241 -2.7512207 35.33227539 C-2.79453792 33.65523388 -2.83621532 31.97814917 -2.8762207 30.30102539 C-2.9340011 27.89065534 -2.99767305 25.48050205 -3.0625 23.0703125 C-3.07921249 22.32021408 -3.09592499 21.57011566 -3.11314392 20.79728699 C-3.20234858 17.66431383 -3.38127078 15.11400015 -4.37890625 12.12109375 C-8.42953555 10.77088398 -12.14351714 10.56380571 -16.37890625 11.12109375 C-19.24920494 12.91503043 -20.87022263 14.10372651 -22.37890625 17.12109375 C-22.53517201 19.59942034 -22.63703823 22.05420706 -22.6953125 24.53515625 C-22.7160936 25.26479584 -22.73687469 25.99443542 -22.75828552 26.7461853 C-22.82372542 29.07939138 -22.88263993 31.41271096 -22.94140625 33.74609375 C-22.98459678 35.3268347 -23.02821124 36.90756414 -23.07226562 38.48828125 C-23.17940106 42.36576879 -23.28068407 46.2433706 -23.37890625 50.12109375 C-27.99890625 50.12109375 -32.61890625 50.12109375 -37.37890625 50.12109375 C-37.37890625 33.62109375 -37.37890625 17.12109375 -37.37890625 0.12109375 C-33.08890625 0.12109375 -28.79890625 0.12109375 -24.37890625 0.12109375 C-24.37890625 2.10109375 -24.37890625 4.08109375 -24.37890625 6.12109375 C-23.71890625 6.12109375 -23.05890625 6.12109375 -22.37890625 6.12109375 C-22.17265625 5.52296875 -21.96640625 4.92484375 -21.75390625 4.30859375 C-17.43535043 -2.56183597 -6.95190283 -2.568437 0 0 Z " fill="#DCE4EA" transform="translate(369.37890625,65.87890625)"/>
<path d="M0 0 C4.62 0 9.24 0 14 0 C14 19.14 14 38.28 14 58 C24.56 58 35.12 58 46 58 C46 62.29 46 66.58 46 71 C30.82 71 15.64 71 0 71 C0 47.57 0 24.14 0 0 Z " fill="#DCE4EA" transform="translate(253,45)"/>
<path d="M0 0 C1.5675 0.061875 3.135 0.12375 4.75 0.1875 C4.75 4.1475 4.75 8.1075 4.75 12.1875 C2.04817708 12.28515625 -0.65364583 12.3828125 -3.35546875 12.48046875 C-7.31460518 13.44754526 -8.70627599 15.02571413 -11.25 18.1875 C-11.75762732 20.95642757 -11.97264271 23.13150312 -11.95703125 25.89453125 C-11.97215256 26.61992599 -11.98727386 27.34532074 -12.00285339 28.09269714 C-12.04562827 30.39545013 -12.05455741 32.69688984 -12.0625 35 C-12.08565261 36.56709196 -12.11101956 38.13415286 -12.13867188 39.70117188 C-12.20142194 43.53006345 -12.23383701 47.35813984 -12.25 51.1875 C-16.54 51.1875 -20.83 51.1875 -25.25 51.1875 C-25.25 34.6875 -25.25 18.1875 -25.25 1.1875 C-21.29 1.1875 -17.33 1.1875 -13.25 1.1875 C-13.25 3.1675 -13.25 5.1475 -13.25 7.1875 C-12.59 7.1875 -11.93 7.1875 -11.25 7.1875 C-11.0025 6.589375 -10.755 5.99125 -10.5 5.375 C-7.92604593 0.87058039 -5.05249227 -0.19944048 0 0 Z " fill="#E1E9EF" transform="translate(710.25,64.8125)"/>
<path d="M0 0 C0.66 0 1.32 0 2 0 C2.51046875 1.17755859 2.51046875 1.17755859 3.03125 2.37890625 C8.05320028 13.26425062 13.78827324 18.82155554 25 23 C25 23.66 25 24.32 25 25 C24.21496094 25.3403125 23.42992187 25.680625 22.62109375 26.03125 C11.73574938 31.05320028 6.17844446 36.78827324 2 48 C1.34 48 0.68 48 0 48 C-0.3403125 47.21496094 -0.680625 46.42992187 -1.03125 45.62109375 C-6.05320028 34.73574938 -11.78827324 29.17844446 -23 25 C-23 24.34 -23 23.68 -23 23 C-22.21496094 22.6596875 -21.42992187 22.319375 -20.62109375 21.96875 C-9.73574938 16.94679972 -4.17844446 11.21172676 0 0 Z " fill="#4D5256" transform="translate(753,158)"/>
<path d="M0 0 C4.29 0 8.58 0 13 0 C13 16.5 13 33 13 50 C8.71 50 4.42 50 0 50 C0 33.5 0 17 0 0 Z " fill="#E2EBF2" transform="translate(307,66)"/>
<path d="M0 0 C3.73698169 1.62477465 5.84763317 3.55621307 8 7 C9.85762785 12.57288354 9.78124727 17.97342417 7.375 23.375 C5.26479352 27.10501286 3.14928037 28.67223028 -1 30 C-5.02799849 30.58741645 -6.6171043 30.21772501 -10.1875 28.1875 C-15.7 23.9 -15.7 23.9 -17 20 C-18.1454 10.08286584 -18.1454 10.08286584 -15.73046875 5.69140625 C-10.9807928 0.13278306 -7.19005466 -0.6978216 0 0 Z " fill="#060D13" transform="translate(537,76)"/>
<path d="M0 0 C0.99 0 1.98 0 3 0 C3 9.9 3 19.8 3 30 C2.01 30 1.02 30 0 30 C-0.33 29.34 -0.66 28.68 -1 28 C-1.515625 28.495 -2.03125 28.99 -2.5625 29.5 C-5.96381375 31.59311615 -8.07072743 31.55147685 -12 31 C-15.26942853 28.29916773 -17.73984798 26.09979843 -18.2734375 21.79296875 C-18.55026203 14.69135486 -18.55026203 14.69135486 -15.5625 10.9375 C-14.716875 10.298125 -13.87125 9.65875 -13 9 C-12.67 8.67 -12.34 8.34 -12 8 C-6.71487882 7.60112293 -5.41382705 7.68962971 -1 11 C-0.67 7.37 -0.34 3.74 0 0 Z " fill="#7A838B" transform="translate(706,146)"/>
<path d="M0 0 C0.99 0 1.98 0 3 0 C3 9.9 3 19.8 3 30 C2.01 30 1.02 30 0 30 C-0.33 29.34 -0.66 28.68 -1 28 C-1.515625 28.495 -2.03125 28.99 -2.5625 29.5 C-5.96381375 31.59311615 -8.07072743 31.55147685 -12 31 C-15.26942853 28.29916773 -17.73984798 26.09979843 -18.2734375 21.79296875 C-18.54958678 14.70867769 -18.54958678 14.70867769 -15.625 10.9375 C-11.79823547 8.11298332 -9.77243767 7.61820499 -5 8 C-3.68 8.99 -2.36 9.98 -1 11 C-0.67 7.37 -0.34 3.74 0 0 Z " fill="#7C8690" transform="translate(543,146)"/>
<path d="M0 0 C2.92970081 2.45138231 4.63434275 4.18236398 5.40234375 8 C5.61407629 12.47179133 4.83857782 15.57413022 2 19 C-0.88471998 21.32380221 -2.75586624 21.96448964 -6.4375 22.5 C-11.19197325 21.83270551 -12.67221155 20.40702151 -16 17 C-17.20643566 13.38069302 -17.32268559 10.80768995 -17 7 C-12.98569854 -0.59849918 -8.12052768 -2.44193804 0 0 Z " fill="#788189" transform="translate(678,155)"/>
<path d="M0 0 C5.53846154 3.07692308 5.53846154 3.07692308 7 6 C7.50837553 11.17542953 7.83827129 15.55470468 5.1875 20.125 C1.3663032 23.40031155 -2.12450631 23.33624094 -7 23 C-10.83949079 21.29355965 -12.42079734 19.83718541 -14 16 C-14.65528607 12.20623855 -14.86351149 8.5472585 -12.94921875 5.1171875 C-8.92335329 0.20064384 -6.24865892 -0.52072158 0 0 Z " fill="#7B858B" transform="translate(649,154)"/>
<path d="M0 0 C-3.80273399 3.80273399 -9.90130852 4.57236639 -15 6 C-15 6.66 -15 7.32 -15 8 C-15.99 8.33 -16.98 8.66 -18 9 C-19.71614849 10.6553521 -19.71614849 10.6553521 -21.375 12.6875 C-21.98472656 13.409375 -22.59445313 14.13125 -23.22265625 14.875 C-23.80917969 15.57625 -24.39570312 16.2775 -25 17 C-25.49371094 17.556875 -25.98742188 18.11375 -26.49609375 18.6875 C-31.30386248 24.1657884 -32.34604865 28.69558845 -32.3125 35.875 C-32.32861328 36.55691406 -32.34472656 37.23882812 -32.36132812 37.94140625 C-32.3739593 51.20413571 -22.12904625 60.01373365 -13.39453125 68.80078125 C-10.54296157 71.64728206 -7.67843848 74.48047795 -4.8125 77.3125 C-3.3491406 78.76580418 -1.88624646 80.21957699 -0.42382812 81.67382812 C2.25519825 84.33664329 4.9368266 86.99677268 7.62182617 89.65356445 C11.91488373 93.90306996 16.18080516 98.17896435 20.43359375 102.46875 C22.10149755 104.14589793 23.7694681 105.82297948 25.4375 107.5 C26.27087891 108.34175781 27.10425781 109.18351562 27.96289062 110.05078125 C33.09618483 115.2119958 33.09618483 115.2119958 38.59765625 119.96875 C39.39042969 120.6390625 40.18320313 121.309375 41 122 C41 122.66 41 123.32 41 124 C41.66 124 42.32 124 43 124 C43 124.66 43 125.32 43 126 C43.66 126 44.32 126 45 126 C47.73397536 128.52892721 49.93063422 130.89595133 52 134 C48.42124576 134 48.15402724 133.53234505 45.71170044 131.10610962 C45.05849823 130.4642572 44.40529602 129.82240479 43.7322998 129.16110229 C43.02158325 128.44745514 42.3108667 127.73380798 41.57861328 126.99853516 C40.82542816 126.25381958 40.07224304 125.509104 39.29623413 124.74182129 C36.79633345 122.26540982 34.30788134 119.77785718 31.8203125 117.2890625 C30.08809445 115.56394286 28.35557694 113.83912386 26.62277222 112.11459351 C22.98433468 108.48963112 19.3519258 104.85874878 15.72314453 101.22412109 C11.08412559 96.57922767 6.42720072 91.95276703 1.76503181 87.33112526 C-1.82285217 83.76917395 -5.39911513 80.19572712 -8.97223282 76.61896896 C-10.68340327 74.909487 -12.3985405 73.20396584 -14.11776352 71.50258255 C-16.53061663 69.11200792 -18.92688526 66.70589718 -21.31982422 64.29541016 C-22.02649231 63.60200531 -22.7331604 62.90860046 -23.46124268 62.19418335 C-32.31198078 53.19286865 -35.44719028 44.06490449 -35.34375 31.61328125 C-34.56943041 23.47412647 -29.91921388 16.49084971 -24 11 C-7.45631068 -2.48543689 -7.45631068 -2.48543689 0 0 Z " fill="#429C5F" transform="translate(88,19)"/>
<path d="M0 0 C2.1640625 0.53125 2.1640625 0.53125 4.7265625 2.15625 C6.1640625 4.53125 6.1640625 4.53125 6.1640625 11.53125 C0.8840625 11.53125 -4.3959375 11.53125 -9.8359375 11.53125 C-8.18515848 15.28295424 -8.18515848 15.28295424 -5.8359375 18.53125 C-0.81094056 18.24655797 -0.81094056 18.24655797 3.1640625 15.53125 C4.1540625 15.53125 5.1440625 15.53125 6.1640625 15.53125 C5.86018086 18.46877254 5.35736594 19.37205893 3.0390625 21.28125 C-0.61986417 22.87208768 -2.87703501 23.08688544 -6.8359375 22.53125 C-10.59508589 20.44283423 -12.28636893 19.28811549 -13.5703125 15.18359375 C-14.25251602 10.66058439 -14.16279067 8.18495634 -12.0859375 4.03125 C-8.0060543 -0.50195356 -5.71464362 -0.81903687 0 0 Z " fill="#747C84" transform="translate(565.8359375,154.46875)"/>
<path d="M0 0 C2.5625 1.625 2.5625 1.625 4 4 C4 6.31 4 8.62 4 11 C-1.28 11 -6.56 11 -12 11 C-11.34 12.98 -10.68 14.96 -10 17 C-5.17291159 18.21292293 -5.17291159 18.21292293 -0.75 16.5625 C-0.1725 16.046875 0.405 15.53125 1 15 C1.99 15 2.98 15 4 15 C3.69611836 17.93752254 3.19330344 18.84080893 0.875 20.75 C-2.78392667 22.34083768 -5.04109751 22.55563544 -9 22 C-12.47241719 19.97248124 -14.70279738 17.89160785 -16 14 C-16.67195988 7.16840786 -16.67195988 7.16840786 -14.953125 4.1796875 C-10.28659668 -1.50249698 -6.83960385 -1.54285913 0 0 Z " fill="#707880" transform="translate(314,155)"/>
<path d="M0 0 C0.99 0 1.98 0 3 0 C3.07347656 1.46373047 3.07347656 1.46373047 3.1484375 2.95703125 C3.22320312 4.22933594 3.29796875 5.50164062 3.375 6.8125 C3.44460938 8.07707031 3.51421875 9.34164062 3.5859375 10.64453125 C3.76102939 14.12755234 3.76102939 14.12755234 6 17 C9.5 17.5 9.5 17.5 13 17 C15.42479736 13.36280395 15.38662577 11.14296518 15.625 6.8125 C15.69976562 5.54019531 15.77453125 4.26789063 15.8515625 2.95703125 C15.90054687 1.98121094 15.94953125 1.00539062 16 0 C16.99 0 17.98 0 19 0 C19.04939662 3.95096978 19.08571755 7.9018203 19.10986328 11.85302734 C19.12488107 13.8591136 19.15028981 15.86511324 19.17578125 17.87109375 C19.18222656 19.12792969 19.18867188 20.38476562 19.1953125 21.6796875 C19.20578613 22.84226074 19.21625977 24.00483398 19.22705078 25.20263672 C19 28 19 28 17 30 C14.41935871 30.14497985 11.95056116 30.18677545 9.375 30.125 C8.31539063 30.11146484 8.31539063 30.11146484 7.234375 30.09765625 C5.48943902 30.07407603 3.74467705 30.03820461 2 30 C2 29.01 2 28.02 2 27 C8.435 26.505 8.435 26.505 15 26 C15.33 23.69 15.66 21.38 16 19 C15.01 19.66 14.02 20.32 13 21 C10.87890625 21.37109375 10.87890625 21.37109375 8.5625 21.4375 C7.80066406 21.47746094 7.03882813 21.51742187 6.25390625 21.55859375 C4 21 4 21 1.73046875 18.9921875 C-0.54856255 15.05146972 -0.45697174 12.14137273 -0.25 7.6875 C-0.23195313 6.94693359 -0.21390625 6.20636719 -0.1953125 5.44335938 C-0.14847337 3.6283429 -0.07673789 1.81399834 0 0 Z " fill="#858F97" transform="translate(341,155)"/>
<path d="M0 0 C6.27 0 12.54 0 19 0 C19 0.99 19 1.98 19 3 C13.72 3 8.44 3 3 3 C3 6.3 3 9.6 3 13 C7.62 13 12.24 13 17 13 C17 13.99 17 14.98 17 16 C12.38 16 7.76 16 3 16 C3 19.63 3 23.26 3 27 C8.28 27 13.56 27 19 27 C19 27.99 19 28.98 19 30 C12.73 30 6.46 30 0 30 C0 20.1 0 10.2 0 0 Z " fill="#818B92" transform="translate(252,146)"/>
<path d="M0 0 C2.875 1.5 2.875 1.5 5 4 C5.94237143 7.99893269 5.61136591 10.98105682 3.5 14.5 C-0.03588973 16.62153384 -2.97901723 16.791013 -7 16 C-9.5 14.5 -9.5 14.5 -11 12 C-11.60443392 9.19082139 -11.66040854 6.80242927 -11 4 C-7.72794548 0.1505241 -4.96702569 -0.82783761 0 0 Z " fill="#E0E9F0" transform="translate(316,44)"/>
<path d="M0 0 C1.32 0 2.64 0 4 0 C4.04898437 1.20398438 4.09796875 2.40796875 4.1484375 3.6484375 C4.22346343 5.22398198 4.29901133 6.79950166 4.375 8.375 C4.4059375 9.1690625 4.436875 9.963125 4.46875 10.78125 C4.51816421 15.36667375 4.51816421 15.36667375 7 19 C10.03344954 18.91115 10.03344954 18.91115 13 18 C15.40119059 14.39821412 15.43771322 11.49133631 15.625 7.3125 C15.68300781 6.2596582 15.68300781 6.2596582 15.7421875 5.18554688 C15.8362334 3.45745345 15.9191968 1.72876325 16 0 C17.32 0 18.64 0 20 0 C20 7.26 20 14.52 20 22 C18.68 22 17.36 22 16 22 C15.67 21.34 15.34 20.68 15 20 C14.484375 20.515625 13.96875 21.03125 13.4375 21.5625 C11 23 11 23 7.5 23 C3.20653866 21.77329676 2.28259758 20.79605901 0 17 C-0.46750869 14.041276 -0.3801414 11.17324415 -0.25 8.1875 C-0.23195313 7.39923828 -0.21390625 6.61097656 -0.1953125 5.79882812 C-0.14844048 3.86535739 -0.0767041 1.93251715 0 0 Z " fill="#717B84" transform="translate(473,154)"/>
<path d="M0 0 C2.09284489 1.62282062 2.89822232 2.50211459 3.43359375 5.12109375 C3.4399798 8.90801901 3.40682818 11.31652866 1.4375 14.625 C-1 16 -1 16 -4.5625 16 C-8 15 -8 15 -9.9375 13.4375 C-11.47643194 9.90700908 -11.8194548 6.78031508 -11 3 C-7.56705737 -1.13972494 -5.05326616 -1.64780418 0 0 Z " fill="#070F17" transform="translate(676,158)"/>
<path d="M0 0 C2 1.5625 2 1.5625 3 4 C3.3815335 7.56097932 3.35112019 10.08708752 2.0625 13.4375 C-0.86385803 15.6544379 -3.29785925 15.61918631 -6.90234375 15.44921875 C-9 15 -9 15 -11.0625 12.875 C-12.13034918 9.60026251 -12.50895717 7.41728388 -12 4 C-8.87709667 -0.94459694 -5.35989449 -0.68062152 0 0 Z " fill="#060C11" transform="translate(650,158)"/>
<path d="M0 0 C2.5 1.8125 2.5 1.8125 4 4 C4 4.99 4 5.98 4 7 C2.68 6.67 1.36 6.34 0 6 C0 5.34 0 4.68 0 4 C-2.31 4 -4.62 4 -7 4 C-7.33 5.32 -7.66 6.64 -8 8 C-7.31292969 8.18175781 -6.62585938 8.36351562 -5.91796875 8.55078125 C-5.01691406 8.80214844 -4.11585938 9.05351562 -3.1875 9.3125 C-2.29417969 9.55613281 -1.40085937 9.79976562 -0.48046875 10.05078125 C2.10432225 11.03992174 3.38244917 11.76777985 5 14 C4.9375 17.5625 4.9375 17.5625 4 21 C1.25086942 23.52920013 -2.38090259 23.47241433 -6.02734375 23.390625 C-9.44137076 22.71458005 -10.99457681 20.69478741 -13 18 C-13 17.01 -13 16.02 -13 15 C-11.125 15.3125 -11.125 15.3125 -9 16 C-8.34 16.99 -7.68 17.98 -7 19 C-3.92078868 19.25660094 -1.78863007 19.39431504 1 18 C1 17.01 1 16.02 1 15 C0.14535156 14.72285156 -0.70929687 14.44570312 -1.58984375 14.16015625 C-3.24693359 13.61681641 -3.24693359 13.61681641 -4.9375 13.0625 C-6.03964844 12.70285156 -7.14179687 12.34320313 -8.27734375 11.97265625 C-11 11 -11 11 -12 10 C-12.5789111 3.74776017 -12.5789111 3.74776017 -10.5 1.0625 C-6.94830305 -0.4469712 -3.79830571 -0.71607403 0 0 Z " fill="#7B838B" transform="translate(607,154)"/>
<path d="M0 0 C6.77595628 -0.76502732 6.77595628 -0.76502732 10.5 1.5625 C12.61006839 4.99136114 12.62491523 7.04220351 12 11 C9.9375 14 9.9375 14 7 16 C3.3125 16 3.3125 16 0 15 C-2.08133467 11.877998 -2.2737822 11.06733011 -2.25 7.5 C-2.25773438 6.33984375 -2.25773438 6.33984375 -2.265625 5.15625 C-2 3 -2 3 0 0 Z " fill="#060C13" transform="translate(694,158)"/>
<path d="M0 0 C1.87890625 0.3359375 1.87890625 0.3359375 3.94140625 1.7734375 C5.39478939 5.74601808 4.98747626 9.2915683 3.87890625 13.3359375 C2.25390625 15.4609375 2.25390625 15.4609375 -0.12109375 16.3359375 C-3.74609375 16.2109375 -3.74609375 16.2109375 -7.12109375 15.3359375 C-9.18630007 12.23812802 -9.41586399 11.3818894 -9.43359375 7.8359375 C-9.45035156 7.0625 -9.46710937 6.2890625 -9.484375 5.4921875 C-8.57140801 0.07328668 -4.72858811 -0.2264149 0 0 Z " fill="#060C12" transform="translate(538.12109375,157.6640625)"/>
<path d="M0 0 C0.99 0 1.98 0 3 0 C3 5.61 3 11.22 3 17 C4.546875 15.68 6.09375 14.36 7.6875 13 C12.30288462 9.06153846 12.30288462 9.06153846 15.83203125 8.75 C16.90517578 8.87375 16.90517578 8.87375 18 9 C15 12 12 15 9 18 C10.40514147 21.21479335 12.08739836 23.28043342 14.625 25.6875 C15.76609094 26.77502953 16.89574979 27.875082 18 29 C18 29.33 18 29.66 18 30 C15.7265625 30.24609375 15.7265625 30.24609375 13 30 C11.0859375 28.28515625 11.0859375 28.28515625 9.375 26.0625 C6.82355114 22.694348 6.82355114 22.694348 3 21 C3 23.97 3 26.94 3 30 C2.01 30 1.02 30 0 30 C0 20.1 0 10.2 0 0 Z " fill="#747F86" transform="translate(427,146)"/>
<path d="M0 0 C3.34265205 1.20706879 3.94704566 1.92056849 6 5 C6.22705078 6.90112305 6.22705078 6.90112305 6.1953125 9.01171875 C6.18886719 9.76904297 6.18242187 10.52636719 6.17578125 11.30664062 C6.15902344 12.09232422 6.14226562 12.87800781 6.125 13.6875 C6.11597656 14.48478516 6.10695313 15.28207031 6.09765625 16.10351562 C6.07411585 18.069139 6.03824547 20.03460775 6 22 C4.68 22 3.36 22 2 22 C1.93941406 20.85660156 1.87882812 19.71320313 1.81640625 18.53515625 C1.73201572 17.04425695 1.64736698 15.55337225 1.5625 14.0625 C1.52318359 13.30775391 1.48386719 12.55300781 1.44335938 11.77539062 C1.55961976 8.08055813 1.55961976 8.08055813 0 5 C-3.45812169 4.66661404 -3.45812169 4.66661404 -7 5 C-9.42479736 8.63719605 -9.38662577 10.85703482 -9.625 15.1875 C-9.69976562 16.45980469 -9.77453125 17.73210937 -9.8515625 19.04296875 C-9.90054687 20.01878906 -9.94953125 20.99460938 -10 22 C-10.99 22 -11.98 22 -13 22 C-13 15.07 -13 8.14 -13 1 C-12.01 1 -11.02 1 -10 1 C-9.67 1.66 -9.34 2.32 -9 3 C-8.62875 2.505 -8.2575 2.01 -7.875 1.5 C-5.18818347 -0.64945323 -3.35885287 -0.34274009 0 0 Z " fill="#727E88" transform="translate(414,154)"/>
<path d="M0 0 C0.33 0 0.66 0 1 0 C1.29727389 2.92319324 1.50017895 5.1479158 1 8 C-1.06149534 10.21610749 -2.51549178 11.4347073 -5 13 C-5.66128906 13.46664062 -6.32257813 13.93328125 -7.00390625 14.4140625 C-9.92951082 16.4014751 -12.24634313 17.86297148 -15.75 18.5 C-18 18 -18 18 -19.75 16.5 C-22.7875244 14.47498373 -25.1352058 14.38831808 -28.73828125 14.53125 C-32.04024759 15.21559536 -33.79958528 16.54070331 -35.96484375 19.0859375 C-37.9149859 22.69186073 -37.8062648 26.05583974 -37 30 C-35.90153295 33.18570146 -35.90153295 33.18570146 -33 35 C-30.28131148 35.38964917 -27.59857856 35.50989069 -24.85546875 35.63671875 C-21.06528285 36.1189175 -18.67230889 37.65626274 -15.48046875 39.65625 C-10.65251995 42.27170573 -5.27038777 43.54188654 0 45 C0 45.33 0 45.66 0 46 C-5.95749929 45.79805087 -10.07643303 44.65512559 -15.4375 42 C-20.47727661 39.50954964 -24.28842105 38.5808727 -29.83984375 38.328125 C-34.2830316 37.65321039 -36.73328042 34.66976672 -39.375 31.1875 C-40.83795646 26.06715237 -40.68592776 22.34645078 -38.3125 17.6875 C-34.73770791 13.5330119 -32.56223989 12.17358221 -27.0625 11.5625 C-22.80090418 11.68265778 -20.50331543 13.66445638 -17 16 C-11.1948723 14.28685102 -5.62321804 10.85911356 -1 7 C0.23389017 4.33603629 0.18291394 2.98759429 0 0 Z " fill="#429C60" transform="translate(93,153)"/>
<path d="M0 0 C3.70390021 2.02666238 5.65363011 3.48044516 8 7 C8 7.99 8 8.98 8 10 C0.41 10 -7.18 10 -15 10 C-13 4 -13 4 -10.3125 1.625 C-6.41902743 -0.28500541 -4.28550317 -0.61221474 0 0 Z " fill="#0D141B" transform="translate(747,75)"/>
<path d="M0 0 C3.125 1.6875 3.125 1.6875 5 4 C5.33 5.65 5.66 7.3 6 9 C-1.59 9 -9.18 9 -17 9 C-13.81407185 -0.55778445 -9.47315984 -1.26308798 0 0 Z " fill="#0C1117" transform="translate(656,76)"/>
<path d="M0 0 C3.95477607 1.05931502 5.12590242 1.64989096 7.5 4.9375 C7.98339976 7.87109501 7.87774845 10.72471862 7.75 13.6875 C7.73195313 14.48027344 7.71390625 15.27304688 7.6953125 16.08984375 C7.64833082 18.03958348 7.57659044 19.98869878 7.5 21.9375 C6.51 21.9375 5.52 21.9375 4.5 21.9375 C4.45101562 20.87789062 4.40203125 19.81828125 4.3515625 18.7265625 C4.27653291 17.33851503 4.20098515 15.95049549 4.125 14.5625 C4.0940625 13.86382812 4.063125 13.16515625 4.03125 12.4453125 C3.90500502 8.23564173 3.90500502 8.23564173 1.5 4.9375 C-2.52710409 4.48193262 -2.52710409 4.48193262 -6.1484375 6.0078125 C-8.19378626 8.92805033 -8.02608285 11.60610618 -8.1875 15.125 C-8.25324219 16.39730469 -8.31898438 17.66960937 -8.38671875 18.98046875 C-8.44279297 20.44419922 -8.44279297 20.44419922 -8.5 21.9375 C-9.49 21.9375 -10.48 21.9375 -11.5 21.9375 C-11.5 15.0075 -11.5 8.0775 -11.5 0.9375 C-10.51 0.9375 -9.52 0.9375 -8.5 0.9375 C-8.17 1.5975 -7.84 2.2575 -7.5 2.9375 C-6.984375 2.421875 -6.46875 1.90625 -5.9375 1.375 C-3.5 -0.0625 -3.5 -0.0625 0 0 Z " fill="#7E8790" transform="translate(511.5,154.0625)"/>
<path d="M0 0 C2.475 0.495 2.475 0.495 5 1 C6.65 5.95 8.3 10.9 10 16 C10.78375 14.1025 11.5675 12.205 12.375 10.25 C13.81239108 6.77000055 15.26400675 3.3421926 17 0 C18.32 0.33 19.64 0.66 21 1 C18.36 7.6 15.72 14.2 13 21 C11.35 21 9.7 21 8 21 C5.03584181 14.0758202 2.27435204 7.18216433 0 0 Z " fill="#778088" transform="translate(274,155)"/>
<path d="M0 0 C0.99 0 1.98 0 3 0 C3 2.64 3 5.28 3 8 C5.31 8 7.62 8 10 8 C10 8.99 10 9.98 10 11 C7.69 11 5.38 11 3 11 C3 15.95 3 20.9 3 26 C5.31 26 7.62 26 10 26 C10 26.99 10 27.98 10 29 C8.52093108 29.02689216 7.04172517 29.04634621 5.5625 29.0625 C4.32693359 29.07990234 4.32693359 29.07990234 3.06640625 29.09765625 C1 29 1 29 0 28 C-0.07325168 25.13732433 -0.09238205 22.299281 -0.0625 19.4375 C-0.05798828 18.63119141 -0.05347656 17.82488281 -0.04882812 16.99414062 C-0.03700518 14.99606244 -0.01906914 12.99802217 0 11 C-1.98 11 -3.96 11 -6 11 C-6 10.01 -6 9.02 -6 8 C-4.02 8 -2.04 8 0 8 C0 5.36 0 2.72 0 0 Z " fill="#7F8A92" transform="translate(621,147)"/>
<path d="M0 0 C4.39310951 1.31494434 8.55295146 2.58122139 12.4375 5.0625 C15.29866673 6.82988737 17.81228349 7.44706504 21.125 8 C25.40618307 8.74172473 27.94173785 9.75059646 31 13 C33.49227941 17.24577599 33.9477677 21.18015571 33 26 C30.69160226 29.92500436 28.34735947 32.55088018 24 34 C19.19848295 34.5676212 15.42143058 34.59293404 11.3125 31.875 C8.10949642 29.57591179 8.10949642 29.57591179 4.5625 30.75 C3.716875 31.1625 2.87125 31.575 2 32 C2 31.34 2 30.68 2 30 C2.99 30 3.98 30 5 30 C5 29.34 5 28.68 5 28 C9.5410628 27.6215781 9.5410628 27.6215781 11.78125 29.46875 C14.65839292 31.45438385 16.7849857 31.49918401 20.25 31.6875 C21.32765625 31.75324219 22.4053125 31.81898437 23.515625 31.88671875 C24.33546875 31.92410156 25.1553125 31.96148437 26 32 C26 31.34 26 30.68 26 30 C26.66 30 27.32 30 28 30 C28 29.34 28 28.68 28 28 C28.66 27.67 29.32 27.34 30 27 C30.05410687 25.22950311 30.09284119 23.45853151 30.125 21.6875 C30.14820313 20.70136719 30.17140625 19.71523438 30.1953125 18.69921875 C30.20682639 15.77593473 30.20682639 15.77593473 28 13 C25.04569765 11.16319463 22.14946999 10.50121816 18.75 9.875 C17.85796875 9.70742188 16.9659375 9.53984375 16.046875 9.3671875 C15.37140625 9.24601562 14.6959375 9.12484375 14 9 C14 8.34 14 7.68 14 7 C13.44828125 6.87753906 12.8965625 6.75507813 12.328125 6.62890625 C9.70408745 5.92006389 7.2663047 4.96388744 4.75 3.9375 C3.85796875 3.57527344 2.9659375 3.21304687 2.046875 2.83984375 C1.03367188 2.42412109 1.03367188 2.42412109 0 2 C0 1.34 0 0.68 0 0 Z " fill="#439D61" transform="translate(130,19)"/>
<path d="M0 0 C5.70589472 -0.45647158 8.60098008 0.30082416 13 4 C15.1633006 6.74018076 15.92352448 8.48652151 16.4375 11.9375 C15.8806713 15.83530088 14.43417323 17.93989651 12 21 C8.2040936 23.53060427 6.43682972 23.02462847 1.9375 22.75 C-5.45994876 22.47764631 -10.22548645 24.43473752 -16 29 C-13.36404228 31.63595772 -10.93812819 32.07702112 -7.375 33.125 C-6.18648437 33.47820312 -4.99796875 33.83140625 -3.7734375 34.1953125 C-2.85820313 34.46085937 -1.94296875 34.72640625 -1 35 C-1 35.33 -1 35.66 -1 36 C-6.83929464 35.47863441 -11.67417824 34.52275768 -17 32 C-17.84765625 30.01953125 -17.84765625 30.01953125 -18 28 C-17.34 27.34 -16.68 26.68 -16 26 C-15.01 26 -14.02 26 -13 26 C-13 25.34 -13 24.68 -13 24 C-11.02 23.34 -9.04 22.68 -7 22 C-7 21.34 -7 20.68 -7 20 C-6.02417969 20.08378906 -5.04835938 20.16757813 -4.04296875 20.25390625 C-2.13451172 20.40666016 -2.13451172 20.40666016 -0.1875 20.5625 C1.07707031 20.66691406 2.34164062 20.77132812 3.64453125 20.87890625 C6.99581184 21.19597178 6.99581184 21.19597178 10 20 C11.1500831 18.03327085 11.1500831 18.03327085 12 16 C12.33 15.67 12.66 15.34 13 15 C13.48813085 10.76953268 13.50292877 8.70724359 11 5.1875 C7.27793325 2.47349299 4.50031206 1.83904123 0 1 C0 0.67 0 0.34 0 0 Z " fill="#40935C" transform="translate(101,145)"/>
<path d="M0 0 C1.216875 0.433125 2.43375 0.86625 3.6875 1.3125 C3.6875 1.6425 3.6875 1.9725 3.6875 2.3125 C1.0475 2.6425 -1.5925 2.9725 -4.3125 3.3125 C-4.39364106 5.08257714 -4.45175505 6.85372098 -4.5 8.625 C-4.53480469 9.61113281 -4.56960938 10.59726563 -4.60546875 11.61328125 C-4.54113836 14.31481278 -4.54113836 14.31481278 -3 16.09375 C-0.62297216 17.81049233 1.89039277 18.5044468 4.6875 19.3125 C4.3575 19.9725 4.0275 20.6325 3.6875 21.3125 C0.5 21.625 0.5 21.625 -3.3125 21.3125 C-6.58192853 18.61166773 -9.05234798 16.41229843 -9.5859375 12.10546875 C-9.76318928 7.55827897 -9.74772196 5.01973569 -7.3125 1.0625 C-3.99431453 -0.87310819 -3.52663816 -0.8581695 0 0 Z " fill="#7C858E" transform="translate(534.3125,155.6875)"/>
<path d="M0 0 C0.99 0 1.98 0 3 0 C3 9.9 3 19.8 3 30 C2.01 30 1.02 30 0 30 C-0.33 29.34 -0.66 28.68 -1 28 C-1.99 28.66 -2.98 29.32 -4 30 C-4.33 29.01 -4.66 28.02 -5 27 C-4.34 26.566875 -3.68 26.13375 -3 25.6875 C-0.2901451 22.04613247 -0.75259448 19.53068927 -0.92578125 15.10546875 C-1.04681117 10.04132226 -0.49214686 5.03571699 0 0 Z " fill="#7B8791" transform="translate(706,146)"/>
<path d="M0 0 C0 0.66 0 1.32 0 2 C0.66 2.33 1.32 2.66 2 3 C-1 3 -1 3 -2.9375 2.33203125 C-5.06002931 1.77248703 -5.06002931 1.77248703 -6.9375 3.07421875 C-7.618125 3.60660156 -8.29875 4.13898438 -9 4.6875 C-20.68532513 12.78605328 -32.32149691 12.48658707 -46 12 C-46 11.34 -46 10.68 -46 10 C-38.41 10 -30.82 10 -23 10 C-23 9.34 -23 8.68 -23 8 C-19.7 7.34 -16.4 6.68 -13 6 C-13 5.34 -13 4.68 -13 4 C-12.360625 3.896875 -11.72125 3.79375 -11.0625 3.6875 C-10.0415625 3.3471875 -10.0415625 3.3471875 -9 3 C-8.67 2.01 -8.34 1.02 -8 0 C-4.71023192 -1.09658936 -3.28696233 -0.79953138 0 0 Z " fill="#3F9D5D" transform="translate(91,145)"/>
<path d="M0 0 C-1.32 0.99 -2.64 1.98 -4 3 C-3.24029922 6.35867712 -2.12906745 9.52123658 -0.9375 12.75 C-0.57527344 13.73484375 -0.21304688 14.7196875 0.16015625 15.734375 C0.43730469 16.48203125 0.71445313 17.2296875 1 18 C2.98 17.67 4.96 17.34 7 17 C7 16.34 7 15.68 7 15 C8.65 15 10.3 15 12 15 C12 14.34 12 13.68 12 13 C12.99 13 13.98 13 15 13 C15.66 11.68 16.32 10.36 17 9 C18.32 9.33 19.64 9.66 21 10 C6.55751674 20.80226719 6.55751674 20.80226719 -2 20 C-2.3403125 18.0509375 -2.3403125 18.0509375 -2.6875 16.0625 C-3.68635339 11.4546508 -5.53288696 7.85217656 -7.9765625 3.84765625 C-9 2 -9 2 -9 0 C-3.375 -1.125 -3.375 -1.125 0 0 Z " fill="#409F60" transform="translate(172,136)"/>
<path d="M0 0 C0.66 0.33 1.32 0.66 2 1 C1.65066406 1.54269531 1.30132812 2.08539063 0.94140625 2.64453125 C0.25884766 3.71767578 0.25884766 3.71767578 -0.4375 4.8125 C-0.88996094 5.52019531 -1.34242187 6.22789063 -1.80859375 6.95703125 C-5.04039061 12.49876815 -4.52589474 18.79011961 -4 25 C-2.1724874 31.49571836 1.12737847 37.28461331 7.015625 40.80078125 C8.08296875 41.29964844 9.1503125 41.79851562 10.25 42.3125 C11.86648437 43.08013672 11.86648437 43.08013672 13.515625 43.86328125 C14.33546875 44.23839844 15.1553125 44.61351562 16 45 C16 45.33 16 45.66 16 46 C9.94886304 46.42538748 6.53204367 43.74872748 2 40 C-3.98710195 33.83186257 -7.0172193 26.69330323 -7.4375 18.125 C-7.25880414 12.42460204 -5.6235143 7.0539941 -3 2 C-2.01 1.34 -1.02 0.68 0 0 Z " fill="#419A5E" transform="translate(34,91)"/>
<path d="M0 0 C0.99 0 1.98 0 3 0 C3 9.9 3 19.8 3 30 C2.01 30 1.02 30 0 30 C0 20.1 0 10.2 0 0 Z " fill="#828C94" transform="translate(379,146)"/>
<path d="M0 0 C1.32 0.33 2.64 0.66 4 1 C4.33 0.67 4.66 0.34 5 0 C6.99958364 -0.04080783 9.00045254 -0.04254356 11 0 C11 0.99 11 1.98 11 3 C10.030625 3.309375 9.06125 3.61875 8.0625 3.9375 C5.15934208 4.69523342 5.15934208 4.69523342 4 6 C3.76346477 8.52596259 3.57826308 11.03107207 3.4375 13.5625 C3.39431641 14.27341797 3.35113281 14.98433594 3.30664062 15.71679688 C3.20028223 17.47761912 3.09961154 19.2387832 3 21 C2.01 21 1.02 21 0 21 C0 14.07 0 7.14 0 0 Z " fill="#8A939C" transform="translate(579,155)"/>
<path d="M0 0 C1.32 0.33 2.64 0.66 4 1 C6.34114367 0.72686657 8.67750658 0.40197001 11 0 C11 0.99 11 1.98 11 3 C8.69 3.66 6.38 4.32 4 5 C3.67 10.28 3.34 15.56 3 21 C2.01 21 1.02 21 0 21 C0 14.07 0 7.14 0 0 Z " fill="#869097" transform="translate(325,155)"/>
<path d="M0 0 C0.99 0 1.98 0 3 0 C3.33 0.66 3.66 1.32 4 2 C4.66 1.34 5.32 0.68 6 0 C8.625 -0.125 8.625 -0.125 11 0 C11 0.66 11 1.32 11 2 C10.030625 2.45375 9.06125 2.9075 8.0625 3.375 C4.92920418 4.65786221 4.92920418 4.65786221 4 7 C3.76970044 9.37123246 3.58880058 11.74741943 3.4375 14.125 C3.35371094 15.40632812 3.26992188 16.68765625 3.18359375 18.0078125 C3.09271484 19.48894531 3.09271484 19.48894531 3 21 C2.01 21 1.02 21 0 21 C0 14.07 0 7.14 0 0 Z " fill="#828D96" transform="translate(401,155)"/>
<path d="M0 0 C0.66 0 1.32 0 2 0 C2.12117187 0.68707031 2.24234375 1.37414062 2.3671875 2.08203125 C2.53476563 2.98308594 2.70234375 3.88414063 2.875 4.8125 C3.03742187 5.70582031 3.19984375 6.59914063 3.3671875 7.51953125 C3.91188449 10.22727846 3.91188449 10.22727846 6 13 C6 13.99 6 14.98 6 16 C6.66 16 7.32 16 8 16 C8.474375 16.99 8.94875 17.98 9.4375 19 C13.79709094 26.59462309 21.03078352 31.70836711 29 35 C29.99 35.4125 30.98 35.825 32 36.25 C32.66 36.4975 33.32 36.745 34 37 C31.58449857 37.86385814 30.29982562 38.08818401 27.80859375 37.35546875 C15.14059279 31.11538261 6.44369301 21.69146044 1.125 8.6875 C0.15468079 5.50700927 -0.30719112 3.27670526 0 0 Z " fill="#419B5F" transform="translate(9,117)"/>
<path d="M0 0 C0.39832031 0.97582031 0.79664063 1.95164062 1.20703125 2.95703125 C1.74179864 4.24234936 2.27697648 5.52749675 2.8125 6.8125 C3.07353516 7.45509766 3.33457031 8.09769531 3.60351562 8.75976562 C5.00978587 12.11050831 6.30467013 14.56368081 9 17 C9 17.66 9 18.32 9 19 C8.41992188 19.09796875 7.83984375 19.1959375 7.2421875 19.296875 C1.8610617 20.32692548 -1.59631192 21.77778921 -6 25 C-6.66 25 -7.32 25 -8 25 C-8 24.34 -8 23.68 -8 23 C-7.34 23 -6.68 23 -6 23 C-6 22.34 -6 21.68 -6 21 C-5.01 21 -4.02 21 -3 21 C-3 20.34 -3 19.68 -3 19 C-1.35 19 0.3 19 2 19 C2 18.34 2 17.68 2 17 C2.66 17 3.32 17 4 17 C3.6390625 16.08476563 3.278125 15.16953125 2.90625 14.2265625 C2.4421875 13.03804687 1.978125 11.84953125 1.5 10.625 C1.0359375 9.44164063 0.571875 8.25828125 0.09375 7.0390625 C-1 4 -1 4 -1 2 C-3.31 2.66 -5.62 3.32 -8 4 C-8.66 3.34 -9.32 2.68 -10 2 C-6.45648927 0.38010938 -3.87280581 -0.10414268 0 0 Z " fill="#45915E" transform="translate(45,64)"/>
<path d="M0 0 C0.33 0.66 0.66 1.32 1 2 C-1.0625 4.0625 -1.0625 4.0625 -4 6 C-7.3125 5.75 -7.3125 5.75 -11 5 C-14.88047275 4.58579223 -18.0152135 4.43374776 -21.5 6.4375 C-23.73928402 10.26294353 -23.90247293 13.68155514 -23 18 C-21.56162971 20.44373638 -20.05673704 21.99468139 -18 24 C-21.24889654 23.76793596 -22.05564244 22.93662944 -24.25 20.4375 C-26.51142297 15.99541917 -26.62684943 13.93643927 -26 9 C-23.90637823 5.56047852 -21.88092169 3.21971825 -18 2 C-14.42694876 1.80149715 -11.37301732 1.91793619 -7.875 2.6875 C-4.27573021 3.07872498 -2.86077274 2.10350937 0 0 Z " fill="#439760" transform="translate(125,47)"/>
<path d="M0 0 C1.32 0 2.64 0 4 0 C4 7.26 4 14.52 4 22 C2.68 21.67 1.36 21.34 0 21 C0.66 21 1.32 21 2 21 C1.67 19.35 1.34 17.7 1 16 C0.67 16 0.34 16 0 16 C0 10.72 0 5.44 0 0 Z " fill="#6B737D" transform="translate(489,154)"/>
<path d="M0 0 C0.433125 0.598125 0.86625 1.19625 1.3125 1.8125 C1.869375 2.534375 2.42625 3.25625 3 4 C3.4125 4.598125 3.825 5.19625 4.25 5.8125 C6.14000335 7.35237872 6.14000335 7.35237872 9.5625 6.8125 C13.04248777 6.30784082 13.04248777 6.30784082 15 4 C15.99 4 16.98 4 18 4 C17.69611836 6.93752254 17.19330344 7.84080893 14.875 9.75 C11.21607333 11.34083768 8.95890249 11.55563544 5 11 C2.24121735 9.61170938 1.11049142 8.42706513 -1 6 C-0.875 2.6875 -0.875 2.6875 0 0 Z " fill="#858F96" transform="translate(300,166)"/>
<path d="M0 0 C3.875 1.875 3.875 1.875 5 3 C5 5.31 5 7.62 5 10 C-0.28 10 -5.56 10 -11 10 C-11 11.65 -11 13.3 -11 15 C-11.66 14.67 -12.32 14.34 -13 14 C-13.125 11.125 -13.125 11.125 -13 8 C-12.34 7.34 -11.68 6.68 -11 6 C-11 6.66 -11 7.32 -11 8 C-6.71 8 -2.42 8 2 8 C1.01 5.69 0.02 3.38 -1 1 C-0.67 0.67 -0.34 0.34 0 0 Z " fill="#818992" transform="translate(567,156)"/>
<path d="M0 0 C3.88335083 1.41097199 5.76080994 2.46443675 8 6 C5.07120629 5.37240135 2.63904371 4.41377341 0 3 C-0.25136719 3.58652344 -0.50273438 4.17304687 -0.76171875 4.77734375 C-3.62385633 9.91474528 -9.70164447 14.57789461 -15 17 C-15.99 16.67 -16.98 16.34 -18 16 C-17.14148438 15.46890625 -16.28296875 14.9378125 -15.3984375 14.390625 C-11.69998764 11.92499176 -8.70782028 8.931775 -5.625 5.75 C-5.07972656 5.19570312 -4.53445312 4.64140625 -3.97265625 4.0703125 C-2.64377023 2.71811269 -1.32121452 1.3596965 0 0 Z " fill="#3E9D5D" transform="translate(86,117)"/>
<path d="M0 0 C0.99 0 1.98 0 3 0 C3.66 0.66 4.32 1.32 5 2 C4.73677914 3.67916755 4.38585519 5.34470406 4 7 C3.78301513 9.43505237 3.59709255 11.87301384 3.4375 14.3125 C3.35371094 15.56675781 3.26992188 16.82101563 3.18359375 18.11328125 C3.12300781 19.06589844 3.06242187 20.01851562 3 21 C2.01 21 1.02 21 0 21 C0 14.07 0 7.14 0 0 Z " fill="#87919A" transform="translate(500,155)"/>
<path d="M0 0 C3.81701322 0.04788368 3.81701322 0.04788368 6.125 1.5625 C7.125 3.25 7.125 3.25 7.125 6.25 C2.835 6.25 -1.455 6.25 -5.875 6.25 C-4.68545752 0.30228758 -4.68545752 0.30228758 0 0 Z " fill="#0E1218" transform="translate(307.875,157.75)"/>
<path d="M0 0 C2.5625 1.5625 2.5625 1.5625 4 4 C4.31112695 6.75795588 4.18619486 9.20707715 4 12 C3.01 12.495 3.01 12.495 2 13 C1.7525 11.906875 1.505 10.81375 1.25 9.6875 C0.27132984 6.09689135 0.27132984 6.09689135 -1.625 4 C-5.29089443 2.4564655 -8.12145588 3.28893358 -12 4 C-11.625 2.0625 -11.625 2.0625 -11 0 C-7.49824928 -1.75087536 -3.72415207 -0.8334692 0 0 Z " fill="#7A848A" transform="translate(678,155)"/>
<path d="M0 0 C0.70125 -0.01675781 1.4025 -0.03351563 2.125 -0.05078125 C2.74375 0.06910156 3.3625 0.18898437 4 0.3125 C6 3.3125 6 3.3125 6 6.3125 C1.71 6.3125 -2.58 6.3125 -7 6.3125 C-5.77268103 1.40322414 -4.94137074 0.02725021 0 0 Z " fill="#0D141C" transform="translate(563,157.6875)"/>
<path d="M0 0 C0.99 0.33 1.98 0.66 3 1 C3.27938424 2.53661334 3.52211065 4.07991018 3.75 5.625 C3.88921875 6.48351562 4.0284375 7.34203125 4.171875 8.2265625 C3.92895776 12.14636349 2.46155356 13.97845308 0 17 C-2.83984375 19.265625 -2.83984375 19.265625 -5.9375 21.25 C-6.95714844 21.91515625 -7.97679687 22.5803125 -9.02734375 23.265625 C-15.72036177 27.17061843 -15.72036177 27.17061843 -19.8125 26.625 C-20.8953125 26.315625 -20.8953125 26.315625 -22 26 C-19.14415741 24.50002763 -16.28959715 23.38216715 -13.25 22.3125 C-7.65550328 20.11614203 -1.77378965 16.5475793 1 11 C1.21377721 5.39296787 1.21377721 5.39296787 0 0 Z " fill="#419E5F" transform="translate(139,154)"/>
<path d="M0 0 C2.86724686 0.57344937 3.8614515 0.8614515 6 3 C6.68767908 10.10601719 6.68767908 10.10601719 4.125 13.4375 C0.7539775 15.91619301 -1.22011416 16.15965224 -5.375 16.1875 C-6.80972656 16.20876953 -6.80972656 16.20876953 -8.2734375 16.23046875 C-11.03010017 15.99745572 -12.64947395 15.40920164 -15 14 C-10.85798151 12.74957932 -6.94385988 12.96826682 -2.65625 13.0625 C-0.24695415 13.00581069 1.70413742 12.69309059 4 12 C4 9.36 4 6.72 4 4 C3.34 4 2.68 4 2 4 C2 3.34 2 2.68 2 2 C1.34 2 0.68 2 0 2 C0 1.34 0 0.68 0 0 Z " fill="#011F09" transform="translate(477,89)"/>
<path d="M0 0 C0.99 0 1.98 0 3 0 C3 6.93 3 13.86 3 21 C2.01 21 1.02 21 0 21 C0 14.07 0 7.14 0 0 Z " fill="#828B93" transform="translate(390,155)"/>
<path d="M0 0 C0.99 0.33 1.98 0.66 3 1 C-4.31628419 9.22361865 -11.41463761 16.16734362 -22.98046875 17.2890625 C-25.34869168 17.30910388 -27.64475882 17.23448198 -30 17 C-29.67 16.34 -29.34 15.68 -29 15 C-26.78595973 14.57771947 -24.55117207 14.26199715 -22.3125 14 C-17.61552994 13.44449773 -13.44347934 12.63814907 -9 11 C-9 10.34 -9 9.68 -9 9 C-8.34 9 -7.68 9 -7 9 C-7 8.34 -7 7.68 -7 7 C-5.34614767 5.65080468 -3.678298 4.31866272 -2 3 C-1.34 2.01 -0.68 1.02 0 0 Z " fill="#03230D" transform="translate(80,120)"/>
<path d="M0 0 C0.66 0 1.32 0 2 0 C2 3.96 2 7.92 2 12 C7.28 12 12.56 12 18 12 C18 12.66 18 13.32 18 14 C12.06 14 6.12 14 0 14 C0 9.38 0 4.76 0 0 Z " fill="#7B848C" transform="translate(253,161)"/>
<path d="M0 0 C0 0.99 0 1.98 0 3 C-0.515625 3.474375 -1.03125 3.94875 -1.5625 4.4375 C-2.2740625 5.2109375 -2.2740625 5.2109375 -3 6 C-2.7671375 8.7885284 -2.14285546 9.85684252 -0.15234375 11.8515625 C0.57855469 12.43679687 1.30945313 13.02203125 2.0625 13.625 C3.40912172 14.70892398 4.73088022 15.82628102 6 17 C6 17.66 6 18.32 6 19 C6.99 19 7.98 19 9 19 C9 18.34 9 17.68 9 17 C9.66 17 10.32 17 11 17 C11 16.34 11 15.68 11 15 C11.99 15.33 12.98 15.66 14 16 C12.35 17.98 10.7 19.96 9 22 C5.00567219 20.37938967 2.20441679 17.60660827 -0.8125 14.625 C-1.32748047 14.14289063 -1.84246094 13.66078125 -2.37304688 13.1640625 C-3.83203125 11.7265625 -3.83203125 11.7265625 -6 9 C-5.97544835 5.57504472 -4.84757079 4.83641744 -2.4375 2.25 C-1.633125 1.5075 -0.82875 0.765 0 0 Z " fill="#47A265" transform="translate(122,80)"/>
<path d="M0 0 C3.875 1.875 3.875 1.875 5 3 C5 5.31 5 7.62 5 10 C-0.28 10 -5.56 10 -11 10 C-11 9.34 -11 8.68 -11 8 C-6.71 8 -2.42 8 2 8 C1.67 6.865625 1.34 5.73125 1 4.5625 C0 1 0 1 0 0 Z " fill="#80888F" transform="translate(313,156)"/>
<path d="M0 0 C0.99 0.33 1.98 0.66 3 1 C3 5.29 3 9.58 3 14 C2.01 14 1.02 14 0 14 C-0.33 13.34 -0.66 12.68 -1 12 C-1.99 12.66 -2.98 13.32 -4 14 C-4.33 13.01 -4.66 12.02 -5 11 C-4.01 10.34 -3.02 9.68 -2 9 C-1.20562077 6.81494871 -1.20562077 6.81494871 -0.8125 4.375 C-0.65394531 3.55773437 -0.49539063 2.74046875 -0.33203125 1.8984375 C-0.22246094 1.27195313 -0.11289062 0.64546875 0 0 Z " fill="#848D96" transform="translate(543,162)"/>
<path d="M0 0 C0 0.33 0 0.66 0 1 C-0.90878906 1.22042969 -0.90878906 1.22042969 -1.8359375 1.4453125 C-7.77787128 3.03592247 -12.59582714 5.28364831 -17.7734375 8.59765625 C-19.80240179 9.87554779 -21.8377598 10.96824611 -24 12 C-25.32 10.35 -26.64 8.7 -28 7 C-26.824375 7.433125 -26.824375 7.433125 -25.625 7.875 C-20.77885367 8.04210849 -18.45117779 6.14450867 -14.4609375 3.57421875 C-9.72425885 0.54424812 -5.69080957 -1.89693652 0 0 Z " fill="#011E0A" transform="translate(152,62)"/>
<path d="M0 0 C-0.33 1.32 -0.66 2.64 -1 4 C-1 3.01 -1 2.02 -1 1 C-11.67524979 3.54066488 -20.42396718 9.02522861 -28 17 C-27.52794881 12.75153925 -25.11122478 10.73180712 -22 8 C-21.34 8 -20.68 8 -20 8 C-20 7.34 -20 6.68 -20 6 C-17.98757061 4.98319357 -15.9645868 3.98726211 -13.9375 3 C-12.24947266 2.1646875 -12.24947266 2.1646875 -10.52734375 1.3125 C-6.76473667 -0.08753984 -3.97932691 -0.2433219 0 0 Z " fill="#05270F" transform="translate(46,63)"/>
<path d="M0 0 C0 0.33 0 0.66 0 1 C-1.41539063 1.03867187 -1.41539063 1.03867187 -2.859375 1.078125 C-14.4432857 1.58986403 -23.99345168 3.90905754 -34 10 C-34.66 10 -35.32 10 -36 10 C-35.67 9.01 -35.34 8.02 -35 7 C-34.01 7 -33.02 7 -32 7 C-32 6.34 -32 5.68 -32 5 C-21.03911947 0.91882108 -11.68590137 -0.69928931 0 0 Z " fill="#42A362" transform="translate(115,34)"/>
<path d="M0 0 C0 3 0 3 -1.71484375 4.75390625 C-2.44832031 5.35074219 -3.18179687 5.94757813 -3.9375 6.5625 C-6.92648955 8.91285524 -6.92648955 8.91285524 -9 12 C-9.66 12 -10.32 12 -11 12 C-12.52299523 14.93720508 -13.80100302 17.9168649 -15 21 C-15.66 20.67 -16.32 20.34 -17 20 C-13.96335467 11.36791176 -7.6549058 4.78431612 0 0 Z " fill="#3F9F5E" transform="translate(30,69)"/>
<path d="M0 0 C0.66 0.33 1.32 0.66 2 1 C1.2884375 1.804375 1.2884375 1.804375 0.5625 2.625 C-1.28186076 5.42842836 -1.62456847 7.69620258 -2 11 C-1.43796875 11.12246094 -0.8759375 11.24492188 -0.296875 11.37109375 C2.18986519 12.0519869 4.40514776 12.99352325 6.75 14.0625 C7.54921875 14.42472656 8.3484375 14.78695312 9.171875 15.16015625 C9.77515625 15.43730469 10.3784375 15.71445313 11 16 C7.50039746 17.24643378 5.70926639 16.78889218 2.375 15.25 C1.59898437 14.90453125 0.82296875 14.5590625 0.0234375 14.203125 C-2 13 -2 13 -4 10 C-4.375 7.0625 -4.375 7.0625 -4 4 C-2 1.625 -2 1.625 0 0 Z " fill="#03200A" transform="translate(463,57)"/>
<path d="M0 0 C3.64576392 -0.05878077 7.29140352 -0.0938558 10.9375 -0.125 C12.46987305 -0.15013672 12.46987305 -0.15013672 14.03320312 -0.17578125 C20.84118859 -0.21928275 27.78759238 -0.10620381 34 3 C33.67 3.66 33.34 4.32 33 5 C32.14390137 4.68305176 31.28780273 4.36610352 30.40576172 4.03955078 C27.00255089 3.00077862 24.05009826 2.60333988 20.5078125 2.3671875 C18.70957031 2.24150391 18.70957031 2.24150391 16.875 2.11328125 C15.6375 2.03464844 14.4 1.95601562 13.125 1.875 C11.86429688 1.78863281 10.60359375 1.70226562 9.3046875 1.61328125 C6.20352692 1.40183848 3.10206495 1.19765257 0 1 C0 0.67 0 0.34 0 0 Z " fill="#3E935B" transform="translate(95,15)"/>
<path d="M0 0 C-0.63808594 0.32871094 -1.27617187 0.65742187 -1.93359375 0.99609375 C-6.83459413 3.73646474 -6.83459413 3.73646474 -9.99609375 8.19140625 C-10.54696486 11.54774469 -10.62080713 13.90406251 -8.91796875 16.91015625 C-7.44674318 18.77272526 -7.44674318 18.77272526 -5 21 C-8.43267716 19.52885265 -10.94251991 18.16535398 -13 15 C-12.8902013 10.29434153 -11.9597902 6.27972027 -9.125 2.5 C-3.79245283 -1.26415094 -3.79245283 -1.26415094 0 0 Z " fill="#42A462" transform="translate(132,52)"/>
<path d="M0 0 C0.66 0.66 1.32 1.32 2 2 C1.7578125 4.8203125 1.7578125 4.8203125 1.125 8.125 C0.92132812 9.22070312 0.71765625 10.31640625 0.5078125 11.4453125 C0.34023438 12.28835937 0.17265625 13.13140625 0 14 C-1.32 13.67 -2.64 13.34 -4 13 C-4.45732667 7.28341664 -3.52273754 4.51350747 0 0 Z " fill="#717A81" transform="translate(665,156)"/>
<path d="M0 0 C0.99 0 1.98 0 3 0 C3 5.61 3 11.22 3 17 C2.01 16.34 1.02 15.68 0 15 C-0.22137393 12.37302936 -0.28162025 9.99106036 -0.1875 7.375 C-0.17396484 6.66859375 -0.16042969 5.9621875 -0.14648438 5.234375 C-0.1111104 3.48925872 -0.05730221 1.74453392 0 0 Z " fill="#7C878F" transform="translate(427,146)"/>
<path d="M0 0 C1.65 0.33 3.3 0.66 5 1 C5.125 7.75 5.125 7.75 4 10 C2.68 10 1.36 10 0 10 C0 9.34 0 8.68 0 8 C0.66 8 1.32 8 2 8 C2 7.01 2 6.02 2 5 C1.01 5 0.02 5 -1 5 C-0.67 3.35 -0.34 1.7 0 0 Z " fill="#78828B" transform="translate(451,171)"/>
<path d="M0 0 C0 0.33 0 0.66 0 1 C-3.3 1 -6.6 1 -10 1 C-10 1.66 -10 2.32 -10 3 C-11.546875 3.37125 -11.546875 3.37125 -13.125 3.75 C-16.94085073 4.82705464 -19.7442704 6.73514463 -23 9 C-24.64619113 9.71573527 -26.30728055 10.4025696 -28 11 C-19.40029043 1.89442516 -12.20022514 -0.39075454 0 0 Z " fill="#06260F" transform="translate(167,82)"/>
<path d="M0 0 C0.66 1.32 1.32 2.64 2 4 C-2.95 4 -7.9 4 -13 4 C-13 3.01 -13 2.02 -13 1 C-6.565 0.505 -6.565 0.505 0 0 Z " fill="#7C858D" transform="translate(356,181)"/>
<path d="M0 0 C7.32631579 -0.48842105 7.32631579 -0.48842105 10.5 1.8125 C12 4 12 4 12 7 C10.68 6.67 9.36 6.34 8 6 C8 5.34 8 4.68 8 4 C3.545 3.01 3.545 3.01 -1 2 C-0.67 1.34 -0.34 0.68 0 0 Z " fill="#767F87" transform="translate(599,154)"/>
<path d="M0 0 C0.33 0 0.66 0 1 0 C1 2.31 1 4.62 1 7 C-0.32 7 -1.64 7 -3 7 C-3.99 7.66 -4.98 8.32 -6 9 C-8.6875 9.125 -8.6875 9.125 -11 9 C-11.33 8.34 -11.66 7.68 -12 7 C-11.38511719 6.74605469 -10.77023437 6.49210938 -10.13671875 6.23046875 C-9.32847656 5.88628906 -8.52023437 5.54210937 -7.6875 5.1875 C-6.88699219 4.85105469 -6.08648437 4.51460937 -5.26171875 4.16796875 C-3.03043459 3.01571666 -1.69512228 1.82030054 0 0 Z " fill="#7C858E" transform="translate(490,168)"/>
<path d="M0 0 C0.99 0 1.98 0 3 0 C3 4.95 3 9.9 3 15 C2.01 15 1.02 15 0 15 C0 10.05 0 5.1 0 0 Z " fill="#8B959D" transform="translate(516,161)"/>
<path d="M0 0 C2.01222063 0.50572625 3.98870408 1.14857844 5.95703125 1.8046875 C5.95703125 2.1346875 5.95703125 2.4646875 5.95703125 2.8046875 C3.31703125 3.1346875 0.67703125 3.4646875 -2.04296875 3.8046875 C-2.37296875 6.7746875 -2.70296875 9.7446875 -3.04296875 12.8046875 C-3.37296875 12.8046875 -3.70296875 12.8046875 -4.04296875 12.8046875 C-4.37296875 11.1546875 -4.70296875 9.5046875 -5.04296875 7.8046875 C-5.70296875 7.8046875 -6.36296875 7.8046875 -7.04296875 7.8046875 C-6.67000449 5.19393771 -5.94224815 3.6515922 -4.48046875 1.4296875 C-2.04296875 -0.1953125 -2.04296875 -0.1953125 0 0 Z " fill="#6F7881" transform="translate(532.04296875,155.1953125)"/>
<path d="M0 0 C4.62 0 9.24 0 14 0 C14 2.31 14 4.62 14 7 C13.67 7 13.34 7 13 7 C13 5.35 13 3.7 13 2 C9.37 2 5.74 2 2 2 C2 3.98 2 5.96 2 8 C0 5 0 5 0 0 Z " fill="#3D8D59" transform="translate(443,90)"/>
<path d="M0 0 C2 0.1875 2 0.1875 4 1 C4.66 1.99 5.32 2.98 6 4 C5.195625 3.71125 4.39125 3.4225 3.5625 3.125 C-1.17493723 2.95877413 -2.96154061 4.83830313 -6.67578125 7.5625 C-10.14279906 9.70680681 -12.97078198 9.85348298 -17 10 C-13.09447748 7.39631832 -8.93384575 5.48307673 -4.71484375 3.4375 C-1.94542394 2.14143905 -1.94542394 2.14143905 0 0 Z " fill="#01220B" transform="translate(86,146)"/>
<path d="M0 0 C0.66 0.66 1.32 1.32 2 2 C1.41992188 2.02578125 0.83984375 2.0515625 0.2421875 2.078125 C-5.2329421 2.47565916 -8.65809146 3.38174289 -13 7 C-14.83300909 9.10575643 -14.83300909 9.10575643 -16 11 C-16.3125 8.75 -16.3125 8.75 -16 6 C-13.75 3.8125 -13.75 3.8125 -11 2 C-10.38125 1.5875 -9.7625 1.175 -9.125 0.75 C-6.00513616 -0.35112841 -3.27418641 -0.24253233 0 0 Z " fill="#011D0A" transform="translate(69,163)"/>
<path d="M0 0 C1.31157516 2.62315032 0.89649988 4.23033436 0.5625 7.125 C0.46066406 8.03507813 0.35882813 8.94515625 0.25390625 9.8828125 C0.17011719 10.58148438 0.08632813 11.28015625 0 12 C-1.32 12.33 -2.64 12.66 -4 13 C-4.49230769 5.73846154 -4.49230769 5.73846154 -2 2 C-1.34 1.34 -0.68 0.68 0 0 Z " fill="#757E86" transform="translate(302,156)"/>
<path d="M0 0 C0.185625 0.639375 0.37125 1.27875 0.5625 1.9375 C1.94246056 4.42126213 1.94246056 4.42126213 5.625 4.75 C6.73875 4.8325 7.8525 4.915 9 5 C9 5.99 9 6.98 9 8 C6.03 8 3.06 8 0 8 C-0.79953138 4.71303767 -1.09658936 3.28976808 0 0 Z " fill="#757E85" transform="translate(622,168)"/>
<path d="M0 0 C1.32 0 2.64 0 4 0 C4.185625 0.639375 4.37125 1.27875 4.5625 1.9375 C5.94246056 4.42126213 5.94246056 4.42126213 9.625 4.75 C10.73875 4.8325 11.8525 4.915 13 5 C13 5.33 13 5.66 13 6 C7.80428954 7.73190349 7.80428954 7.73190349 5 8 C2.24850851 6.16567234 1.2893144 4.8679432 0.25 1.75 C0.1675 1.1725 0.085 0.595 0 0 Z " fill="#757F86" transform="translate(635,168)"/>
<path d="M0 0 C0.66 0.33 1.32 0.66 2 1 C1.5359375 2.051875 1.5359375 2.051875 1.0625 3.125 C-0.03302678 6.08936657 -0.56422992 8.87698108 -1 12 C-1.99 12 -2.98 12 -4 12 C-4.33292585 7.75519536 -4.43885872 5.64457375 -2 2.0625 C-1.34 1.381875 -0.68 0.70125 0 0 Z " fill="#879298" transform="translate(639,156)"/>
<path d="M0 0 C0.33 0 0.66 0 1 0 C0.938125 1.299375 0.87625 2.59875 0.8125 3.9375 C0.79860472 8.34230533 1.7001385 11.85688907 3.24609375 15.95703125 C3.98278495 17.95334988 4.52054287 19.928559 5 22 C1.48135757 18.95050989 0.02927255 16.54595376 -1 12 C-1.28362276 7.75293103 -1.35334541 4.06003623 0 0 Z " fill="#021D08" transform="translate(30,104)"/>
<path d="M0 0 C0.33 0 0.66 0 1 0 C1.29771279 2.92750909 1.51451911 5.14627543 1 8 C-1.6875 10.8125 -1.6875 10.8125 -5 13 C-5.86625 13.61875 -6.7325 14.2375 -7.625 14.875 C-10.39862159 16.18882075 -11.1734074 15.87063823 -14 15 C-13.07316406 14.50371094 -12.14632812 14.00742188 -11.19140625 13.49609375 C-9.98105198 12.81116459 -8.77145527 12.12489551 -7.5625 11.4375 C-6.95083984 11.11458984 -6.33917969 10.79167969 -5.70898438 10.45898438 C-3.65344751 9.33142558 -3.65344751 9.33142558 -1 7 C0.01797503 3.34761122 0.01797503 3.34761122 0 0 Z " fill="#408F5B" transform="translate(93,153)"/>
<path d="M0 0 C0.33 1.32 0.66 2.64 1 4 C-3.455 4.495 -3.455 4.495 -8 5 C-8.33 3.68 -8.66 2.36 -9 1 C-6.04335481 -0.4783226 -3.25770263 -0.06032783 0 0 Z " fill="#707A7F" transform="translate(649,154)"/>
<path d="M0 0 C0.99 0 1.98 0 3 0 C3 4.62 3 9.24 3 14 C2.01 13.67 1.02 13.34 0 13 C0 8.71 0 4.42 0 0 Z " fill="#8C959E" transform="translate(621,158)"/>
<path d="M0 0 C0.99 0.495 0.99 0.495 2 1 C4.15083538 7.45250614 3.1500933 13.68410093 1 20 C0.67 20 0.34 20 0 20 C0 13.4 0 6.8 0 0 Z " fill="#04270E" transform="translate(186,100)"/>
<path d="M0 0 C0.99 0 1.98 0 3 0 C2.69611836 2.93752254 2.19330344 3.84080893 -0.125 5.75 C-3.59278683 7.2577334 -6.25670998 7.22019353 -10 7 C-10 6.67 -10 6.34 -10 6 C-9.278125 5.938125 -8.55625 5.87625 -7.8125 5.8125 C-4.16550304 4.7589231 -2.61350972 2.68228629 0 0 Z " fill="#707981" transform="translate(315,170)"/>
<path d="M0 0 C5.875 1.875 5.875 1.875 7 3 C7.14115161 5.67058851 7.04247107 8.32432238 7 11 C6.01 11.495 6.01 11.495 5 12 C4.731875 10.906875 4.46375 9.81375 4.1875 8.6875 C3.08641352 5.26833673 2.57525074 4.22408019 0 2 C0 1.34 0 0.68 0 0 Z " fill="#808A91" transform="translate(675,156)"/>
<path d="M0 0 C0.66 0.33 1.32 0.66 2 1 C1.47599609 1.87398437 1.47599609 1.87398437 0.94140625 2.765625 C-2.80881547 9.5223984 -3.85470957 15.31281525 -4 23 C-4.33 23 -4.66 23 -5 23 C-5.4581163 14.76663214 -5.34330077 8.18650569 -1 1 C-0.67 0.67 -0.34 0.34 0 0 Z " fill="#02240D" transform="translate(57,36)"/>
<path d="M0 0 C3.1875 -0.3125 3.1875 -0.3125 7 0 C9.9375 2.5 9.9375 2.5 12 5 C11.67 5.99 11.34 6.98 11 8 C10.67 7.01 10.34 6.02 10 5 C7.36 4.67 4.72 4.34 2 4 C3.32 3.67 4.64 3.34 6 3 C6 2.34 6 1.68 6 1 C4.02 1 2.04 1 0 1 C0 0.67 0 0.34 0 0 Z " fill="#677179" transform="translate(694,154)"/>
<path d="M0 0 C0.66 0.33 1.32 0.66 2 1 C1 4 1 4 -1.1796875 5.3515625 C-2.51386719 5.98191406 -2.51386719 5.98191406 -3.875 6.625 C-4.75929688 7.05039063 -5.64359375 7.47578125 -6.5546875 7.9140625 C-9 9 -9 9 -12 10 C-12 9.34 -12 8.68 -12 8 C-11.34 8 -10.68 8 -10 8 C-10 7.34 -10 6.68 -10 6 C-9.01 6 -8.02 6 -7 6 C-7 5.34 -7 4.68 -7 4 C-5.35 4 -3.7 4 -2 4 C-2 3.34 -2 2.68 -2 2 C-1.34 2 -0.68 2 0 2 C0 1.34 0 0.68 0 0 Z " fill="#40A562" transform="translate(49,79)"/>
<path d="M0 0 C0.66 0.66 1.32 1.32 2 2 C-1.75 6.875 -1.75 6.875 -4 8 C-6.6723621 8.13415472 -9.32250488 8.04318541 -12 8 C-12 7.67 -12 7.34 -12 7 C-11.37351562 6.90203125 -10.74703125 6.8040625 -10.1015625 6.703125 C-8.87566406 6.47882813 -8.87566406 6.47882813 -7.625 6.25 C-6.81289062 6.11078125 -6.00078125 5.9715625 -5.1640625 5.828125 C-2.83347887 5.18935623 -2.83347887 5.18935623 -1.7734375 2.984375 C-1.51820312 2.32953125 -1.26296875 1.6746875 -1 1 C-0.67 0.67 -0.34 0.34 0 0 Z " fill="#43A263" transform="translate(114,160)"/>
<path d="M0 0 C5.41538462 -0.36923077 5.41538462 -0.36923077 8.375 1.5 C8.91125 1.995 9.4475 2.49 10 3 C9.67 3.99 9.34 4.98 9 6 C8.01 5.34 7.02 4.68 6 4 C3.67891331 3.29187186 1.34622853 2.61975848 -1 2 C-0.67 1.34 -0.34 0.68 0 0 Z " fill="#768088" transform="translate(532,154)"/>
<path d="M0 0 C0 0.99 0 1.98 0 3 C-4.1215634 6.42106053 -8.21147816 9.06167317 -13.625 8.875 C-14.800625 8.441875 -14.800625 8.441875 -16 8 C-12.19220241 6.01640311 -8.25137078 4.52277584 -4.2421875 3 C-1.85880654 2.09732156 -1.85880654 2.09732156 0 0 Z " fill="#3C9159" transform="translate(133,172)"/>
<path d="M0 0 C1.4540625 0.0309375 1.4540625 0.0309375 2.9375 0.0625 C2.6075 1.7125 2.2775 3.3625 1.9375 5.0625 C0.2875 5.0625 -1.3625 5.0625 -3.0625 5.0625 C-3.625 3.125 -3.625 3.125 -4.0625 1.0625 C-3.0625 0.0625 -3.0625 0.0625 0 0 Z " fill="#818991" transform="translate(285.0625,170.9375)"/>
<path d="M0 0 C1.65 0.33 3.3 0.66 5 1 C4.67 2.65 4.34 4.3 4 6 C2.0625 5.6875 2.0625 5.6875 0 5 C-0.33 4.01 -0.66 3.02 -1 2 C-0.67 1.34 -0.34 0.68 0 0 Z " fill="#79828B" transform="translate(716,171)"/>
<path d="M0 0 C0 2.64 0 5.28 0 8 C-0.66 8 -1.32 8 -2 8 C-2.33 7.34 -2.66 6.68 -3 6 C-3.99 6.66 -4.98 7.32 -6 8 C-6.33 7.01 -6.66 6.02 -7 5 C-1.125 0 -1.125 0 0 0 Z " fill="#7D8790" transform="translate(708,168)"/>
<path d="M0 0 C0 0.66 0 1.32 0 2 C-0.70125 2.391875 -1.4025 2.78375 -2.125 3.1875 C-5.86302202 5.5440791 -8.26670095 8.57163521 -11 12 C-11.33 11.34 -11.66 10.68 -12 10 C-10.90033225 8.70450101 -9.79508199 7.41373929 -8.6875 6.125 C-8.07261719 5.40570313 -7.45773438 4.68640625 -6.82421875 3.9453125 C-3.12449799 0 -3.12449799 0 0 0 Z " fill="#011F0A" transform="translate(45,85)"/>
<path d="M0 0 C0 0.99 0 1.98 0 3 C-3.3 3.33 -6.6 3.66 -10 4 C-9.67 3.01 -9.34 2.02 -9 1 C-6.03421164 -0.16513114 -3.15436364 -0.08762121 0 0 Z " fill="#768087" transform="translate(336,155)"/>
<path d="M0 0 C0.391875 0.474375 0.78375 0.94875 1.1875 1.4375 C3.40808374 3.35179633 5.13375709 3.61266988 8 4 C6.25 5.5625 6.25 5.5625 4 7 C1.875 6.875 1.875 6.875 0 6 C-0.66 5.01 -1.32 4.02 -2 3 C-1.34 2.01 -0.68 1.02 0 0 Z " fill="#7B838A" transform="translate(344,169)"/>
<path d="M0 0 C1.8125 0.1875 1.8125 0.1875 4 1 C5.75 3.5625 5.75 3.5625 7 6 C5.68 6.33 4.36 6.66 3 7 C0 3.375 0 3.375 0 0 Z " fill="#7E868E" transform="translate(594,169)"/>
<path d="M0 0 C0.99 0 1.98 0 3 0 C3 4.62 3 9.24 3 14 C-0.16470185 9.25294723 -0.10927475 5.68228705 0 0 Z " fill="#88939C" transform="translate(706,162)"/>
<path d="M0 0 C0 0.99 0 1.98 0 3 C-6.75 5.125 -6.75 5.125 -9 4 C-9 3.34 -9 2.68 -9 2 C-5.5647952 -0.29013653 -4.014669 -0.17842973 0 0 Z " fill="#747E85" transform="translate(590,155)"/>
<path d="M0 0 C0.99 0 1.98 0 3 0 C2.67 0.99 2.34 1.98 2 3 C1.85507877 4.40664926 1.75371069 5.8181133 1.68359375 7.23046875 C1.64169922 8.03291016 1.59980469 8.83535156 1.55664062 9.66210938 C1.51732422 10.49548828 1.47800781 11.32886719 1.4375 12.1875 C1.39431641 13.03248047 1.35113281 13.87746094 1.30664062 14.74804688 C1.20068482 16.83184433 1.0998498 18.91590103 1 21 C0.67 21 0.34 21 0 21 C0 14.07 0 7.14 0 0 Z " fill="#8A949D" transform="translate(401,155)"/>
<path d="M0 0 C0.66 0.33 1.32 0.66 2 1 C1.80949082 9.10529962 1.80949082 9.10529962 -1.375 12.625 C-2.24125 13.07875 -3.1075 13.5325 -4 14 C-4.99 13.67 -5.98 13.34 -7 13 C-6.21625 12.71125 -5.4325 12.4225 -4.625 12.125 C-0.64136409 8.90015188 -0.61701951 4.90852835 0 0 Z " fill="#011A06" transform="translate(92,150)"/>
<path d="M0 0 C0 3 0 3 -2.0625 5.5625 C-5.4985545 8.41369416 -7.701938 9.07296702 -12 10 C-8.40945767 6.11024581 -4.26101118 3.10267805 0 0 Z " fill="#03230E" transform="translate(194,144)"/>
<path d="M0 0 C-2.3261373 1.16306865 -4.65442628 2.31357926 -7 3.4375 C-9.5795817 4.78103213 -11.74557615 6.1791192 -14 8 C-13.07870137 4.90108642 -12.32841931 3.27211886 -9.8125 1.1875 C-6.38325617 -0.26040295 -3.68625273 -0.2168384 0 0 Z " fill="#303539" transform="translate(747,75)"/>
<path d="M0 0 C-0.33 1.32 -0.66 2.64 -1 4 C-3.31 4.33 -5.62 4.66 -8 5 C-7.625 3.0625 -7.625 3.0625 -7 1 C-4.53721199 -0.231394 -2.7204945 -0.07159196 0 0 Z " fill="#677077" transform="translate(513,154)"/>
<path d="M0 0 C0.66 0 1.32 0 2 0 C2 2.97 2 5.94 2 9 C1.01 9 0.02 9 -1 9 C-0.67 6.03 -0.34 3.06 0 0 Z " fill="#828D95" transform="translate(428,167)"/>
<path d="M0 0 C0.99 0 1.98 0 3 0 C3 2.97 3 5.94 3 9 C2.01 9 1.02 9 0 9 C0 6.03 0 3.06 0 0 Z " fill="#87909A" transform="translate(543,146)"/>
<path d="M0 0 C0.99 0 1.98 0 3 0 C3 4.95 3 9.9 3 15 C2.67 15 2.34 15 2 15 C1.67 11.7 1.34 8.4 1 5 C0.67 5 0.34 5 0 5 C0 3.35 0 1.7 0 0 Z " fill="#848E97" transform="translate(706,146)"/>
<path d="M0 0 C0.66 0.33 1.32 0.66 2 1 C1.52949219 1.39832031 1.05898437 1.79664062 0.57421875 2.20703125 C-0.35970703 3.00173828 -0.35970703 3.00173828 -1.3125 3.8125 C-1.92738281 4.33457031 -2.54226562 4.85664063 -3.17578125 5.39453125 C-4.85424679 6.87172469 -6.43882034 8.40039131 -8 10 C-7.44449305 6.40094092 -6.25112752 5.00090201 -3.4375 2.75 C-2.79683594 2.22921875 -2.15617187 1.7084375 -1.49609375 1.171875 C-1.00238281 0.78515625 -0.50867188 0.3984375 0 0 Z " fill="#04240E" transform="translate(68,25)"/>
<path d="M0 0 C0.99 0 1.98 0 3 0 C3 2.97 3 5.94 3 9 C2.01 8.34 1.02 7.68 0 7 C-0.1875 3.375 -0.1875 3.375 0 0 Z " fill="#8A949C" transform="translate(427,146)"/>
<path d="M0 0 C0.66 0.33 1.32 0.66 2 1 C-0.31537955 4.72114571 -2.28579473 7.61229661 -6 10 C-5.49477778 5.62140745 -2.82172778 3.18348776 0 0 Z " fill="#011F0A" transform="translate(184,121)"/>
<path d="M0 0 C-0.33 1.32 -0.66 2.64 -1 4 C-1 3.34 -1 2.68 -1 2 C-3.31 2.66 -5.62 3.32 -8 4 C-8.66 3.34 -9.32 2.68 -10 2 C-6.49223216 0.39644899 -3.85645121 -0.22036864 0 0 Z " fill="#44A162" transform="translate(45,64)"/>
<path d="M0 0 C2.475 0.495 2.475 0.495 5 1 C4.625 3.4375 4.625 3.4375 4 6 C3.01 6.495 3.01 6.495 2 7 C1.34 4.69 0.68 2.38 0 0 Z " fill="#7F8890" transform="translate(274,155)"/>
<path d="M0 0 C1.98 0.495 1.98 0.495 4 1 C3.67 2.32 3.34 3.64 3 5 C1.68 4.67 0.36 4.34 -1 4 C-0.67 2.68 -0.34 1.36 0 0 Z " fill="#717A81" transform="translate(390,146)"/>
<path d="M0 0 C0.66 0 1.32 0 2 0 C0.55746343 3.36591866 -1.33264727 5.51047079 -4 8 C-4.66 7.67 -5.32 7.34 -6 7 C-5.04882866 5.8274869 -4.08882991 4.66212985 -3.125 3.5 C-2.59132813 2.8503125 -2.05765625 2.200625 -1.5078125 1.53125 C-0.76144531 0.77328125 -0.76144531 0.77328125 0 0 Z " fill="#D4DCE1" transform="translate(728,69)"/>
<path d="M0 0 C0.33 0 0.66 0 1 0 C1.61538462 7.26153846 1.61538462 7.26153846 -1.5 11 C-2.325 11.66 -3.15 12.32 -4 13 C-3.42655063 10.13275314 -3.1385485 9.1385485 -1 7 C-0.59952556 4.67724823 -0.2602896 2.34260643 0 0 Z " fill="#01250A" transform="translate(140,157)"/>
<path d="M0 0 C1.98 0 3.96 0 6 0 C6.66 1.98 7.32 3.96 8 6 C5.69 5.34 3.38 4.68 1 4 C1.99 3.67 2.98 3.34 4 3 C4 2.34 4 1.68 4 1 C2.68 0.67 1.36 0.34 0 0 Z " fill="#636D74" transform="translate(408,154)"/>
<path d="M0 0 C2 0 2 0 4.5 2.3125 C7 5 7 5 9 8 C6 8 6 8 4.39453125 6.7578125 C3.87246094 6.21898437 3.35039062 5.68015625 2.8125 5.125 C2.28269531 4.59132812 1.75289062 4.05765625 1.20703125 3.5078125 C0 2 0 2 0 0 Z " fill="#3D9259" transform="translate(131,145)"/>
<path d="M0 0 C0 4.24645065 -1.81750806 6.38524772 -4 10 C-4.66 9.67 -5.32 9.34 -6 9 C-4.47291037 5.56404834 -2.40072955 2.88087546 0 0 Z " fill="#011B07" transform="translate(100,132)"/>
<path d="M0 0 C3.3138009 0.57134498 4.78626651 1.49751866 7 4 C7.556875 4.556875 8.11375 5.11375 8.6875 5.6875 C9.3371875 6.3371875 9.3371875 6.3371875 10 7 C6.12697862 5.85569823 2.99736561 4.76679902 0 2 C0 1.34 0 0.68 0 0 Z " fill="#42985E" transform="translate(450,76)"/>
<path d="M0 0 C0.66 0.66 1.32 1.32 2 2 C1.625 5.625 1.625 5.625 1 9 C0.67 9 0.34 9 0 9 C0 7.35 0 5.7 0 4 C-0.99 4.33 -1.98 4.66 -3 5 C-2.625 3.0625 -2.625 3.0625 -2 1 C-1.34 0.67 -0.68 0.34 0 0 Z " fill="#666F76" transform="translate(691,159)"/>
<path d="M0 0 C2.92879371 0.62759865 5.36095629 1.58622659 8 3 C6.02 3.99 6.02 3.99 4 5 C2.68 3.35 1.36 1.7 0 0 Z " fill="#083415" transform="translate(124,69)"/>
<path d="M0 0 C-2.64 1.65 -5.28 3.3 -8 5 C-8 4.01 -8 3.02 -8 2 C-3.71900826 -1.23966942 -3.71900826 -1.23966942 0 0 Z " fill="#3E9258" transform="translate(132,52)"/>
<path d="M0 0 C0 2.31 0 4.62 0 7 C-0.66 7 -1.32 7 -2 7 C-2.66 5.68 -3.32 4.36 -4 3 C-1.125 0 -1.125 0 0 0 Z " fill="#757F88" transform="translate(491,168)"/>
<path d="M0 0 C0.99 0.33 1.98 0.66 3 1 C3 2.98 3 4.96 3 7 C2.34 7 1.68 7 1 7 C0.67 4.69 0.34 2.38 0 0 Z " fill="#828C93" transform="translate(653,162)"/>
<path d="M0 0 C0.66 0 1.32 0 2 0 C1.67 2.97 1.34 5.94 1 9 C0.67 9 0.34 9 0 9 C-0.87890625 2.84765625 -0.87890625 2.84765625 -1 1 C-0.67 0.67 -0.34 0.34 0 0 Z M-3 1 C-2.01 2.485 -2.01 2.485 -1 4 C-1.66 4 -2.32 4 -3 4 C-3 3.01 -3 2.02 -3 1 Z " fill="#616972" transform="translate(528,159)"/>
<path d="M0 0 C1.14926266 0.95421808 2.29430541 1.91352045 3.4375 2.875 C4.07558594 3.40867188 4.71367188 3.94234375 5.37109375 4.4921875 C7 6 7 6 8 8 C4.11137013 6.73882275 2.10624401 5.54735833 0 2 C0 1.34 0 0.68 0 0 Z " fill="#001D08" transform="translate(122,138)"/>
<path d="M0 0 C0.33 0.99 0.66 1.98 1 3 C-1.8125 5.0625 -1.8125 5.0625 -5 7 C-5.99 6.67 -6.98 6.34 -8 6 C-7.05125 5.38125 -6.1025 4.7625 -5.125 4.125 C-2.05554891 2.18029031 -2.05554891 2.18029031 0 0 Z " fill="#3D9159" transform="translate(76,127)"/>
<path d="M0 0 C1.32 0.99 2.64 1.98 4 3 C2.63016497 6.16115776 2.0109362 6.9927092 -1 9 C-0.649375 8.071875 -0.29875 7.14375 0.0625 6.1875 C1.32382628 3.0197047 1.32382628 3.0197047 0 0 Z " fill="#479C63" transform="translate(97,127)"/>
<path d="M0 0 C-5.75 5 -5.75 5 -8 5 C-8 4.01 -8 3.02 -8 2 C-3.71900826 -1.23966942 -3.71900826 -1.23966942 0 0 Z " fill="#3F985C" transform="translate(148,86)"/>
<path d="M0 0 C0.33 0.99 0.66 1.98 1 3 C-0.28965176 4.37562854 -1.62689293 5.70766393 -3 7 C-3.66 7 -4.32 7 -5 7 C-3.70700306 4.11562221 -2.34058637 2.12780579 0 0 Z " fill="#0D1419" transform="translate(526,77)"/>
</svg>
