<?xml version="1.0" encoding="UTF-8"?>
<svg version="1.1" xmlns="http://www.w3.org/2000/svg" width="276" height="253">
<path d="M0 0 C1.97478836 -0.00744736 1.97478836 -0.00744736 3.98947144 -0.01504517 C7.58273073 -0.0280874 11.1759714 -0.03459802 14.76925063 -0.03905582 C17.02072821 -0.04199982 19.27220085 -0.04610704 21.52367592 -0.05056 C28.58711413 -0.06421338 35.65054087 -0.07389058 42.71399134 -0.07776189 C50.83235719 -0.0822375 58.95055425 -0.09977134 67.06886882 -0.12876248 C73.36812303 -0.15046695 79.66733006 -0.16047082 85.96662122 -0.16180301 C89.7178517 -0.16284478 93.46892307 -0.16861731 97.22011375 -0.18662262 C100.75378381 -0.20325594 104.2871777 -0.20518604 107.82087326 -0.19648361 C109.71364626 -0.19536183 111.60641075 -0.20896059 113.49913025 -0.22323608 C131.67534006 -0.13590057 144.890183 5.35202292 157.72192383 18.16113281 C158.29813477 18.72574219 158.8743457 19.29035156 159.46801758 19.87207031 C172.84814606 34.1210383 172.87459794 52.75871878 172.8671875 71.10473633 C172.87054611 72.32606262 172.87390472 73.54738892 172.87736511 74.8057251 C172.88516292 78.11351669 172.88853811 81.42127032 172.8891809 84.72906995 C172.88989746 86.80417914 172.89204297 88.87928197 172.89467812 90.95438957 C172.90388955 98.2172372 172.90801786 105.48006664 172.90722656 112.74291992 C172.90662526 119.47706719 172.91719828 126.2111345 172.93297023 132.94526154 C172.9460993 138.76137811 172.9514083 144.57746868 172.95077115 150.39359993 C172.95051796 153.85237486 172.95326981 157.31107838 172.9639492 160.76983833 C172.97554357 164.62889795 172.97085065 168.48784971 172.96484375 172.34692383 C172.97046326 173.47090073 172.97608276 174.59487762 172.98187256 175.75291443 C172.90911014 194.25029142 168.02333436 208.78590034 155.51098633 222.60253906 C142.27543957 235.59624028 126.14017132 238.47249548 108.2109375 238.43579102 C106.90533371 238.44090195 105.59972992 238.44601288 104.25456238 238.45127869 C100.70477113 238.46455629 97.15508707 238.46525994 93.60527587 238.46271539 C90.62612646 238.4616378 87.64699804 238.4665491 84.66785318 238.47132081 C77.63044049 238.48237755 70.5930812 238.48287535 63.55566406 238.47680664 C56.33190753 238.47077233 49.10834603 238.48307286 41.88462275 238.50437671 C35.64982634 238.52207778 29.41509154 238.52798068 23.18027097 238.52473897 C19.47098399 238.52293916 15.76183612 238.52543009 12.05257225 238.53945351 C7.90862033 238.55453703 3.76505715 238.54498794 -0.37890625 238.53344727 C-2.18503387 238.54491287 -2.18503387 238.54491287 -4.02764893 238.55661011 C-21.73157256 238.44840785 -36.39347588 233.53206134 -49.27807617 221.16113281 C-61.27867044 207.30781522 -64.5816045 193.32971685 -64.56860352 175.42822266 C-64.57460135 174.07341141 -64.58140974 172.71860354 -64.58895874 171.36380005 C-64.60650216 167.71052327 -64.61130926 164.0573404 -64.61259031 160.40402555 C-64.61401955 158.11263926 -64.61830374 155.82127625 -64.62358475 153.52989578 C-64.64204919 145.51031246 -64.65026021 137.49079528 -64.64868164 129.47119141 C-64.64748246 122.03784423 -64.66855004 114.60478842 -64.70016897 107.17151487 C-64.72647063 100.75581597 -64.73704311 94.34021139 -64.73577082 87.9244591 C-64.73526508 84.10773162 -64.74072965 80.29126326 -64.76212692 76.4745903 C-64.96617141 37.31603596 -64.96617141 37.31603596 -53.27807617 22.16113281 C-52.45823242 21.07058594 -52.45823242 21.07058594 -51.62182617 19.95800781 C-42.75703062 9.0024586 -29.66516831 2.02331509 -15.75156212 0.3657608 C-10.51169505 -0.06772598 -5.25441141 0.00476813 0 0 Z " fill="#030B10" transform="translate(82.278076171875,6.8388671875)"/>
<path d="M0 0 C2.41504056 1.11710695 4.54683041 1.62957417 7.16015625 2.0859375 C11.48784927 2.8825394 13.56423135 4.60665638 16.34765625 8.0859375 C17.94692775 11.2844805 17.70893533 14.60695379 17.34765625 18.0859375 C15.9305421 21.62872288 14.74892703 22.82734078 11.53515625 24.8984375 C8.06237948 26.19221708 6.01224404 26.62035655 2.34765625 26.0859375 C1.33703125 25.3846875 0.32640625 24.6834375 -0.71484375 23.9609375 C-1.68421875 23.3421875 -2.65359375 22.7234375 -3.65234375 22.0859375 C-8.81708579 23.64127717 -13.69746701 26.42103136 -17.65234375 30.0859375 C-19.2438177 33.22587259 -19.06129528 34.40537377 -18.65234375 38.0859375 C-16.84004842 40.33774158 -15.11941455 41.47478922 -12.65234375 43.0859375 C-12.08386719 42.68761719 -11.51539063 42.28929687 -10.9296875 41.87890625 C0.30952084 34.16719569 10.77665652 31.79378863 24.34765625 33.0859375 C27.99489495 33.96318184 31.06956812 35.28121389 34.34765625 37.0859375 C35.04117188 37.44816406 35.7346875 37.81039062 36.44921875 38.18359375 C46.55468481 43.93863716 53.65491603 52.7595442 56.90332031 64.01049805 C59.31852552 75.2916296 58.01346298 87.83314882 51.76953125 97.5390625 C45.16313888 106.52613681 36.80341218 113.41481979 25.72265625 115.8984375 C24.54703125 115.99125 24.54703125 115.99125 23.34765625 116.0859375 C23.09371094 115.37308594 22.83976563 114.66023438 22.578125 113.92578125 C20.65272371 108.56782933 18.66005274 103.2888296 16.34765625 98.0859375 C16.99992188 97.91578125 17.6521875 97.745625 18.32421875 97.5703125 C26.56286574 95.28584991 31.95568646 92.77188464 36.34765625 85.0859375 C38.78782954 80.57161692 39.01566718 76.10416597 38.34765625 71.0859375 C36.24680061 64.41517937 33.05436726 58.50010297 26.97265625 54.7734375 C20.51841317 51.81222111 12.92609793 52.10371126 6.08984375 53.5703125 C-1.02447696 56.48748166 -6.48159859 63.60494763 -11.65234375 69.0859375 C-14.01302526 67.11637482 -16.34033303 65.11240108 -18.65234375 63.0859375 C-19.25820312 62.56 -19.8640625 62.0340625 -20.48828125 61.4921875 C-22.15234375 59.9609375 -22.15234375 59.9609375 -24.65234375 57.0859375 C-24.23745901 53.20865105 -22.14795446 50.98406607 -19.65234375 48.0859375 C-21.71261094 45.44012126 -21.71261094 45.44012126 -24.65234375 43.0859375 C-26.9852915 43.04352027 -29.31936942 43.04500813 -31.65234375 43.0859375 C-35.35624396 41.05927512 -37.30597386 39.60549234 -39.65234375 36.0859375 C-40.32461266 29.13915879 -40.32461266 29.13915879 -37.77734375 25.1484375 C-34.43560423 21.90498443 -32.33522222 21.97066327 -27.72265625 21.953125 C-25.65234375 22.0859375 -25.65234375 22.0859375 -23.72265625 22.77734375 C-20.58395628 23.24518771 -19.01464812 21.83268637 -16.40234375 20.1484375 C-15.06429687 19.29958984 -15.06429687 19.29958984 -13.69921875 18.43359375 C-13.02375 17.98886719 -12.34828125 17.54414062 -11.65234375 17.0859375 C-18.62192653 11.33965331 -27.66492552 10.51141517 -36.4375 10.73046875 C-44.11955046 11.57988138 -50.45258802 14.63483082 -56.65234375 19.0859375 C-57.31234375 19.0859375 -57.97234375 19.0859375 -58.65234375 19.0859375 C-60.80968177 22.68150087 -61.58131155 25.89503763 -61.65234375 30.0859375 C-59.82744865 34.24264302 -56.63769078 37.18931701 -53.2097168 40.06201172 C-47.41590189 45.0753174 -42.07270009 50.54161338 -36.671875 55.96875 C-35.52965482 57.11284033 -34.38720989 58.25670633 -33.24455261 59.40036011 C-30.25722204 62.39148041 -27.27290507 65.38558942 -24.28924561 68.38037109 C-21.25649872 71.42336546 -18.22090852 74.46352047 -15.18554688 77.50390625 C-9.84607611 82.85290608 -4.50907884 88.20436274 0.82609558 93.55764771 C2.57485418 95.3110731 4.32600957 97.06211008 6.07905579 98.81124878 C12.30977658 105.058691 15.63030947 109.86761948 15.66015625 118.9609375 C15.44659332 130.3509606 10.59341555 135.96217261 2.66015625 143.7109375 C-9.07917435 152.85525818 -24.94663649 156.7339909 -39.65234375 155.0859375 C-47.67400723 153.66568857 -55.32271324 151.5118992 -62.63671875 147.8828125 C-64.93418004 146.97451385 -66.88016067 146.79504113 -69.33984375 146.6484375 C-74.22287784 146.29781684 -76.30192208 144.60388026 -79.65234375 141.0859375 C-80.89063427 137.37106595 -81.20272595 133.94615238 -80.65234375 130.0859375 C-78.55872198 126.64641602 -76.53326544 124.30565575 -72.65234375 123.0859375 C-67.44264386 122.61232842 -65.00648211 123.37931095 -60.65234375 126.0859375 C-55.44513542 125.35961016 -50.56051917 122.49324567 -46.65234375 119.0859375 C-45.34895363 116.0255775 -44.97413047 113.35256109 -45.65234375 110.0859375 C-47.0819381 108.32146982 -47.0819381 108.32146982 -48.65234375 107.0859375 C-50.87120404 108.16426213 -53.02515822 109.29897434 -55.16796875 110.5234375 C-66.16631505 116.80820682 -76.16660339 118.98764055 -88.90625 116.43359375 C-100.22915088 113.06419923 -110.22841433 105.05156763 -116.00390625 94.65234375 C-120.615158 84.55071672 -121.29420768 72.75109656 -118.96875 61.89453125 C-114.6790146 50.52050253 -105.6622237 41.17274363 -94.71484375 36.0859375 C-90.03721217 34.0859375 -90.03721217 34.0859375 -87.65234375 34.0859375 C-87.31460938 35.00117187 -86.976875 35.91640625 -86.62890625 36.859375 C-86.18289062 38.04789063 -85.736875 39.23640625 -85.27734375 40.4609375 C-84.83648437 41.64429688 -84.395625 42.82765625 -83.94140625 44.046875 C-82.85730955 47.13087196 -82.85730955 47.13087196 -80.65234375 49.0859375 C-80.65234375 50.0759375 -80.65234375 51.0659375 -80.65234375 52.0859375 C-81.23242188 52.24449219 -81.8125 52.40304688 -82.41015625 52.56640625 C-89.41206618 54.65773578 -94.09778947 57.1987434 -97.96484375 63.6484375 C-101.11850703 70.0725664 -101.79065013 76.3517797 -99.46484375 83.2109375 C-96.90490281 89.25524249 -93.09590823 93.68334594 -87.08984375 96.390625 C-80.92527121 98.14910883 -73.59146419 98.29171538 -67.58984375 95.8359375 C-61.42385631 92.22916635 -56.51182665 86.23698938 -51.65234375 81.0859375 C-47.12535739 82.48504163 -44.90078393 84.6474549 -41.83984375 88.2109375 C-41.04964844 89.12101562 -40.25945312 90.03109375 -39.4453125 90.96875 C-38.85363281 91.66742188 -38.26195312 92.36609375 -37.65234375 93.0859375 C-39.63234375 95.3959375 -41.61234375 97.7059375 -43.65234375 100.0859375 C-42.07398077 103.76970973 -42.07398077 103.76970973 -40.65234375 105.0859375 C-39.09120678 105.19177729 -37.52819572 105.27050573 -35.96484375 105.3359375 C-32.50533847 105.67345021 -29.90060753 106.07396382 -27.02734375 108.0859375 C-24.21794108 111.63465666 -23.86487888 113.5119179 -24.2109375 117.9296875 C-24.9203526 121.39514887 -25.85401799 122.90187837 -28.65234375 125.0859375 C-32.61146017 126.1348079 -36.26572126 126.49177823 -40.21484375 125.3359375 C-43.88149258 124.95987095 -45.94861275 126.89804213 -48.8828125 128.95703125 C-50.65234375 130.0859375 -50.65234375 130.0859375 -52.65234375 130.0859375 C-52.65234375 130.7459375 -52.65234375 131.4059375 -52.65234375 132.0859375 C-41.0621579 136.37481685 -26.52333946 137.46612698 -14.99609375 132.4140625 C-9.63158771 129.37417574 -5.63062071 126.42529545 -3.21484375 120.6484375 C-4.31202547 111.7142435 -15.45188961 104.13945731 -21.66015625 97.9453125 C-22.7144909 96.89030255 -23.7686772 95.83514434 -24.82272339 94.77984619 C-27.0180552 92.58305 -29.21516014 90.38804746 -31.41357422 88.19433594 C-34.22221314 85.39141476 -37.02630919 82.58399833 -39.82910347 79.77523422 C-41.99950224 77.6012137 -44.17228717 75.42959056 -46.34579086 73.25867462 C-47.38068772 72.22444147 -48.41485161 71.18947432 -49.448246 70.15373993 C-50.89293338 68.70649707 -52.34081496 67.26252471 -53.78955078 65.81933594 C-54.61004913 64.99963318 -55.43054749 64.17993042 -56.27590942 63.33538818 C-58.63674372 61.10070395 -61.09848905 59.09453788 -63.65234375 57.0859375 C-65.36464623 55.46619191 -67.02397637 53.7900429 -68.65234375 52.0859375 C-69.296875 51.42464844 -69.94140625 50.76335937 -70.60546875 50.08203125 C-77.42367268 42.8219067 -80.80792299 37.119271 -81.15234375 27.0234375 C-80.9609439 21.0900421 -80.13609449 16.89786821 -76.65234375 12.0859375 C-76.03359375 11.20035156 -76.03359375 11.20035156 -75.40234375 10.296875 C-57.63883376 -12.61401573 -23.47518862 -12.59644268 0 0 Z " fill="#31AD59" transform="translate(167.65234375,53.9140625)"/>
<path d="M0 0 C2.64 0 5.28 0 8 0 C8 0.66 8 1.32 8 2 C8.99 2.66 9.98 3.32 11 4 C11 5.32 11 6.64 11 8 C11.94875 7.814375 12.8975 7.62875 13.875 7.4375 C17 7 17 7 19 8 C19 8.66 19 9.32 19 10 C23.95 10.99 23.95 10.99 29 12 C27 14 27 14 24.25 14.375 C21 14 21 14 17.9375 11.875 C16.4834375 10.946875 16.4834375 10.946875 15 10 C9.83525796 11.55533967 4.95487674 14.33509386 1 18 C-0.59147395 21.13993509 -0.40895153 22.31943627 0 26 C1.81229533 28.25180408 3.5329292 29.38885172 6 31 C6.56847656 30.60167969 7.13695312 30.20335938 7.72265625 29.79296875 C18.96186459 22.08125819 29.42900027 19.70785113 43 21 C49.66385524 22.60280963 55.38031778 26.16982552 61 30 C58.34168151 31.32915924 56.82516545 30.58534033 54.08203125 29.7421875 C44.2303207 26.2303207 44.2303207 26.2303207 42 24 C39.62758528 23.87280071 37.25079379 23.82412326 34.875 23.8125 C33.57304687 23.79832031 32.27109375 23.78414062 30.9296875 23.76953125 C24.731909 24.13301925 20.22004785 25.78766286 15 29 C13.96875 29.33 12.9375 29.66 11.875 30 C9.06993848 30.97567357 7.84786202 31.74150198 6 34 C4.515 33.505 4.515 33.505 3 33 C0.83420784 38.14375638 -0.8731084 42.32479539 0 48 C2.71913126 51.1190035 4.17373382 51.93764029 8.3125 52.25 C9.199375 52.1675 10.08625 52.085 11 52 C9.35 53.65 7.7 55.3 6 57 C3.96339574 55.09797311 1.94668664 53.18061509 -0.0625 51.25 C-0.64322266 50.71117187 -1.22394531 50.17234375 -1.82226562 49.6171875 C-3.47265625 48.015625 -3.47265625 48.015625 -6 45 C-5.59016741 41.12231708 -3.4953397 38.89781385 -1 36 C-3.06026719 33.35418376 -3.06026719 33.35418376 -6 31 C-8.33294775 30.95758277 -10.66702567 30.95907063 -13 31 C-16.70390021 28.97333762 -18.65363011 27.51955484 -21 24 C-21.67226891 17.05322129 -21.67226891 17.05322129 -19.125 13.0625 C-15.78326048 9.81904693 -13.68287847 9.88472577 -9.0703125 9.8671875 C-7 10 -7 10 -5.0703125 10.69140625 C-1.93161253 11.15925021 -0.36230437 9.74674887 2.25 8.0625 C3.14203125 7.49660156 4.0340625 6.93070312 4.953125 6.34765625 C5.62859375 5.90292969 6.3040625 5.45820312 7 5 C4.702779 3.25728062 2.40133271 1.60088848 0 0 Z " fill="#419F60" transform="translate(149,66)"/>
<path d="M0 0 C0.928125 1.2065625 0.928125 1.2065625 1.875 2.4375 C4.44160091 5.06259894 6.31989991 5.33085128 9.9375 5.5 C13.38137239 5.70591165 15.7719062 5.99402431 18.625 8 C21.43440267 11.54871916 21.78746487 13.4259804 21.44140625 17.84375 C20.73199115 21.30921137 19.79832576 22.81594087 17 25 C13.04088358 26.0488704 9.38662249 26.40584073 5.4375 25.25 C1.27977912 24.82356709 -1.72177342 27.64911295 -5 30 C-5.33 29.34 -5.66 28.68 -6 28 C-4.625 26.5 -4.625 26.5 -3 25 C-2.34 25 -1.68 25 -1 25 C-1 24.34 -1 23.68 -1 23 C-2.97536745 23.34786708 -2.97536745 23.34786708 -5 24 C-5.33 24.66 -5.66 25.32 -6 26 C-9.57908177 28.30083828 -11.51658944 29.02377429 -15.8125 28.8125 C-16.864375 28.544375 -17.91625 28.27625 -19 28 C-19.33 27.34 -19.66 26.68 -20 26 C-21.6260287 26.06000106 -23.25101549 26.1487885 -24.875 26.25 C-25.77992187 26.29640625 -26.68484375 26.3428125 -27.6171875 26.390625 C-30.1321688 26.75814576 -30.1321688 26.75814576 -31.3046875 28.86328125 C-32.55305603 32.69955981 -32.27965266 35.95130253 -31.25 39.8125 C-30.24189536 42.1334995 -30.24189536 42.1334995 -28.23046875 42.61328125 C-25.83514314 43.02858289 -23.48807969 43.21802874 -21.0625 43.375 C-16.96000614 43.74905091 -14.38413956 44.53880759 -11 47 C-9.515 47.495 -9.515 47.495 -8 48 C-8 48.66 -8 49.32 -8 50 C-5.03 50 -2.06 50 1 50 C1 50.66 1 51.32 1 52 C4.14575207 52.05896868 7.2913586 52.09391603 10.4375 52.125 C11.75524414 52.15013672 11.75524414 52.15013672 13.09960938 52.17578125 C20.42403322 52.22983604 27.09138446 51.3897484 33.8125 48.375 C37 47 37 47 41 47 C41 46.34 41 45.68 41 45 C42.65 44.67 44.3 44.34 46 44 C46 43.34 46 42.68 46 42 C46.66 42 47.32 42 48 42 C48.33 40.68 48.66 39.36 49 38 C49.9590625 37.8453125 49.9590625 37.8453125 50.9375 37.6875 C51.618125 37.460625 52.29875 37.23375 53 37 C53.33 36.01 53.66 35.02 54 34 C54.40476562 33.29746094 54.80953125 32.59492188 55.2265625 31.87109375 C58.81031578 25.63456221 59.79275175 21.04295329 58 14 C57.505 13.505 57.505 13.505 57 13 C56.95907063 10.66702567 56.95758277 8.33294775 57 6 C59 7 59 7 60.10546875 9.1328125 C62.0463305 15.35374054 62.25459338 23.69608433 59.9375 29.875 C52.74447955 41.47664589 42.46784826 49.31493827 29.30859375 53.046875 C12.94438743 56.60504089 -1.92023913 55.27144624 -16.984375 47.796875 C-19.28183629 46.88857635 -21.22781692 46.70910363 -23.6875 46.5625 C-28.57053409 46.21187934 -30.64957833 44.51794276 -34 41 C-35.23829052 37.28512845 -35.5503822 33.86021488 -35 30 C-32.90637823 26.56047852 -30.88092169 24.21971825 -27 23 C-21.79030011 22.52639092 -19.35413836 23.29337345 -15 26 C-9.79035718 25.27333308 -4.91319926 22.40462463 -1 19 C0.33954719 15.90296689 0.52924384 13.32037504 0 10 C-1.25024533 7.46043394 -1.25024533 7.46043394 -3 6 C-2.01 5.34 -1.02 4.68 0 4 C0 2.68 0 1.36 0 0 Z " fill="#479B63" transform="translate(122,154)"/>
<path d="M0 0 C0.33773437 0.91523437 0.67546875 1.83046875 1.0234375 2.7734375 C1.46945313 3.96195312 1.91546875 5.15046875 2.375 6.375 C2.81585938 7.55835937 3.25671875 8.74171875 3.7109375 9.9609375 C4.7950342 13.04493446 4.7950342 13.04493446 7 15 C7 15.99 7 16.98 7 18 C6.41992188 18.15855469 5.83984375 18.31710938 5.2421875 18.48046875 C-1.75972243 20.57179828 -6.44544572 23.1128059 -10.3125 29.5625 C-13.46616328 35.9866289 -14.13830638 42.2658422 -11.8125 49.125 C-9.24983016 55.17574824 -5.43854755 59.58135406 0.55859375 62.3125 C7.88064158 64.37438867 15.93167318 63.6300751 23 61 C19.97448422 64.94632493 17.00539607 65.88311925 12.3046875 66.75390625 C5.7122946 67.45783973 -0.54755789 65.63496141 -6 62 C-11.64185806 56.89404403 -15.1542168 50.61303599 -16.125 43.0625 C-16.42302829 35.62140665 -14.09816407 29.14724611 -10 23 C-9.34 23 -8.68 23 -8 23 C-8 22.01 -8 21.02 -8 20 C-6.54293274 19.49632243 -5.08429904 18.99717444 -3.625 18.5 C-2.81289062 18.2215625 -2.00078125 17.943125 -1.1640625 17.65625 C1 17 1 17 3 17 C2.566875 15.700625 2.566875 15.700625 2.125 14.375 C1.08333333 11.25 0.04166667 8.125 -1 5 C-8.09745488 5.34511373 -8.09745488 5.34511373 -14 9 C-14.66 9 -15.32 9 -16 9 C-16 9.66 -16 10.32 -16 11 C-16.70125 11.515625 -17.4025 12.03125 -18.125 12.5625 C-25.35713615 18.69409369 -28.2229647 25.68791029 -29 35 C-29.6523533 44.61924592 -29.46083036 54.91054358 -23.875 63.125 C-23.25625 63.74375 -22.6375 64.3625 -22 65 C-21.67 65.66 -21.34 66.32 -21 67 C-18.98330173 68.13350534 -18.98330173 68.13350534 -17 69 C-17 69.66 -17 70.32 -17 71 C-16.34 71.33 -15.68 71.66 -15 72 C-15 72.66 -15 73.32 -15 74 C-13.906875 74.28875 -12.81375 74.5775 -11.6875 74.875 C-8 76 -8 76 -5 78 C1.81132065 80.05864542 8.92354182 80.55224628 16 80 C16.33 79.67 16.66 79.34 17 79 C18.5956376 78.6279752 20.20210335 78.30180201 21.8125 78 C24.90289463 77.41570087 27.95639333 76.79460128 31 76 C31 75.34 31 74.68 31 74 C32.98 73.34 34.96 72.68 37 72 C30.5522661 79.25370064 22.42287553 82.48177288 12.8046875 83.2578125 C1.41239336 83.63338264 -8.10509506 81.46850802 -16.90234375 73.98046875 C-24.57744412 66.73414493 -31.22760503 58.90012075 -32.17700195 47.96044922 C-32.57222986 34.05661472 -31.67495264 23.73315058 -22 13 C-16.51957251 7.25197351 -8.45730954 0 0 0 Z " fill="#469C62" transform="translate(80,88)"/>
<path d="M0 0 C2.41504056 1.11710695 4.54683041 1.62957417 7.16015625 2.0859375 C11.48784927 2.8825394 13.56423135 4.60665638 16.34765625 8.0859375 C17.94472461 11.28007421 17.72045631 14.61090837 17.34765625 18.0859375 C16.09765625 21.0234375 16.09765625 21.0234375 14.34765625 23.0859375 C12.16015625 23.8984375 12.16015625 23.8984375 10.34765625 24.0859375 C11.06888672 23.04373047 11.06888672 23.04373047 11.8046875 21.98046875 C13.54153405 18.72223256 13.83380446 16.43804004 14.03515625 12.7734375 C14.10089844 11.70480469 14.16664063 10.63617188 14.234375 9.53515625 C14.27175781 8.72691406 14.30914062 7.91867188 14.34765625 7.0859375 C13.02765625 7.0859375 11.70765625 7.0859375 10.34765625 7.0859375 C10.34765625 6.4259375 10.34765625 5.7659375 10.34765625 5.0859375 C9.33703125 4.9828125 8.32640625 4.8796875 7.28515625 4.7734375 C3.22616684 4.06472506 0.07456504 2.81135823 -3.65234375 1.0859375 C-10.42363353 -1.79186066 -17.4815739 -3.38559909 -24.65234375 -4.9140625 C-24.65234375 -5.5740625 -24.65234375 -6.2340625 -24.65234375 -6.9140625 C-26.27777455 -6.77311186 -27.90268426 -6.62614163 -29.52734375 -6.4765625 C-30.43226563 -6.39535156 -31.3371875 -6.31414063 -32.26953125 -6.23046875 C-34.66345236 -6.04416965 -34.66345236 -6.04416965 -36.65234375 -4.9140625 C-39.40846745 -4.67782333 -42.16326184 -4.53210174 -44.92578125 -4.390625 C-47.99407307 -3.85433331 -49.28244381 -2.86574481 -51.65234375 -0.9140625 C-55.94015612 0.51520829 -60.18414689 1.43205503 -64.65234375 2.0859375 C-64.65234375 2.7459375 -64.65234375 3.4059375 -64.65234375 4.0859375 C-65.31234375 4.0859375 -65.97234375 4.0859375 -66.65234375 4.0859375 C-66.98234375 5.0759375 -67.31234375 6.0659375 -67.65234375 7.0859375 C-69.30234375 7.4159375 -70.95234375 7.7459375 -72.65234375 8.0859375 C-53.93681612 -12.44077023 -23.10735212 -12.39906699 0 0 Z " fill="#469E63" transform="translate(167.65234375,53.9140625)"/>
<path d="M0 0 C2 1 2 1 3.10546875 3.1328125 C5.0463305 9.35374054 5.25459338 17.69608433 2.9375 23.875 C-4.25552045 35.47664589 -14.53215174 43.31493827 -27.69140625 47.046875 C-44.70994221 50.74731564 -60.14776999 48.94530755 -75.66796875 41.05078125 C-78.11004117 39.95041696 -80.36329253 39.42618185 -83 39 C-83 38.67 -83 38.34 -83 38 C-72.67456051 37.45866628 -72.67456051 37.45866628 -68 41 C-67.01 41.33 -66.02 41.66 -65 42 C-65 42.66 -65 43.32 -65 44 C-62.03 44 -59.06 44 -56 44 C-56 44.66 -56 45.32 -56 46 C-52.85424793 46.05896868 -49.7086414 46.09391603 -46.5625 46.125 C-45.24475586 46.15013672 -45.24475586 46.15013672 -43.90039062 46.17578125 C-36.57596678 46.22983604 -29.90861554 45.3897484 -23.1875 42.375 C-20 41 -20 41 -16 41 C-16 40.34 -16 39.68 -16 39 C-14.35 38.67 -12.7 38.34 -11 38 C-11 37.34 -11 36.68 -11 36 C-10.34 36 -9.68 36 -9 36 C-8.67 34.68 -8.34 33.36 -8 32 C-7.360625 31.896875 -6.72125 31.79375 -6.0625 31.6875 C-5.381875 31.460625 -4.70125 31.23375 -4 31 C-3.505 29.515 -3.505 29.515 -3 28 C-2.59523438 27.29746094 -2.19046875 26.59492188 -1.7734375 25.87109375 C1.81031578 19.63456221 2.79275175 15.04295329 1 8 C0.505 7.505 0.505 7.505 0 7 C-0.04092937 4.66702567 -0.04241723 2.33294775 0 0 Z " fill="#459F65" transform="translate(179,160)"/>
<path d="M0 0 C2.20986669 0.33997949 4.28683204 0.77012464 6.4375 1.375 C8.10269519 1.71560811 9.76907466 2.05058396 11.4375 2.375 C11.2209375 2.96667969 11.004375 3.55835937 10.78125 4.16796875 C8.65989206 10.11160902 8.65989206 10.11160902 8.4375 16.375 C4.70590331 17.61886556 2.25734796 17.15311718 -1.5625 16.375 C-1.8925 15.715 -2.2225 15.055 -2.5625 14.375 C-3.5525 14.375 -4.5425 14.375 -5.5625 14.375 C-7.75 13.375 -7.75 13.375 -9.5625 12.375 C-8.33637748 6.69025014 -6.5909473 0.96452887 0 0 Z " fill="#2FA957" transform="translate(137.5625,77.625)"/>
<path d="M0 0 C2.64 0 5.28 0 8 0 C8 0.66 8 1.32 8 2 C8.99 2.66 9.98 3.32 11 4 C11 5.32 11 6.64 11 8 C11.94875 7.814375 12.8975 7.62875 13.875 7.4375 C17 7 17 7 19 8 C19 8.66 19 9.32 19 10 C23.95 10.99 23.95 10.99 29 12 C27 14 27 14 24.25 14.375 C21 14 21 14 17.9375 11.875 C16.4834375 10.946875 16.4834375 10.946875 15 10 C9.84628562 11.53514896 5.03022663 14.46004836 1 18 C-0.20794918 21.20287857 -0.20794918 21.20287857 0 24 C-0.33 24 -0.66 24 -1 24 C-1 21.03 -1 18.06 -1 15 C-3.9306192 14.2673452 -6.58758863 13.72735837 -9.5625 13.375 C-10.32691406 13.27960938 -11.09132812 13.18421875 -11.87890625 13.0859375 C-14.19096471 12.86678071 -14.19096471 12.86678071 -17 14 C-18.12516085 15.83284443 -18.12516085 15.83284443 -19 18 C-19.66666667 19.33333333 -20.33333333 20.66666667 -21 22 C-21.35671933 18.16526716 -21.29771416 16.44657125 -19.125 13.1875 C-16.15073731 10.125759 -15.5191055 10.01674534 -11.125 9.875 C-8.86848737 9.8664201 -7.20406728 9.92688278 -5.0703125 10.69140625 C-1.93161253 11.15925021 -0.36230437 9.74674887 2.25 8.0625 C3.14203125 7.49660156 4.0340625 6.93070312 4.953125 6.34765625 C5.62859375 5.90292969 6.3040625 5.45820312 7 5 C4.702779 3.25728062 2.40133271 1.60088848 0 0 Z " fill="#3A9456" transform="translate(149,66)"/>
<path d="M0 0 C3.68747409 3.28666169 3.68747409 3.28666169 5 6 C4.8125 9.875 4.8125 9.875 4 13 C3.34 13 2.68 13 2 13 C1.67 13.99 1.34 14.98 1 16 C-3.8333472 16.08333357 -8.23692563 15.95261487 -13 15 C-12.77183594 14.39671875 -12.54367188 13.7934375 -12.30859375 13.171875 C-12.02113281 12.37265625 -11.73367187 11.5734375 -11.4375 10.75 C-11.14746094 9.96109375 -10.85742188 9.1721875 -10.55859375 8.359375 C-9.95477163 5.80896548 -10.1526068 4.44677771 -11 2 C-3.62603306 -0.74380165 -3.62603306 -0.74380165 0 0 Z " fill="#30AE58" transform="translate(136,162)"/>
<path d="M0 0 C0.97001953 0.01353516 1.94003906 0.02707031 2.93945312 0.04101562 C5.31439129 0.07611323 7.68814378 0.12527725 10.0625 0.1875 C10.0625 0.5175 10.0625 0.8475 10.0625 1.1875 C9.03511719 1.21328125 8.00773437 1.2390625 6.94921875 1.265625 C-4.36728289 1.67770666 -13.5652503 3.45870534 -22.9375 10.1875 C-23.5975 10.1875 -24.2575 10.1875 -24.9375 10.1875 C-27.09483802 13.78306337 -27.8664678 16.99660013 -27.9375 21.1875 C-26.14278524 25.27546139 -23.03674462 28.1912235 -19.65234375 31.00390625 C-12.90054068 36.84066945 -6.72330175 43.29713417 -0.4375 49.625 C0.87476585 50.94229059 2.18726395 52.25934986 3.5 53.57617188 C6.69018506 56.7772861 9.87720651 59.98151865 13.0625 63.1875 C9.01386013 63.1875 8.04692858 61.89430732 5.0625 59.1875 C3.52089959 57.43438713 2.02812743 55.64618258 0.53515625 53.8515625 C-1.40464993 51.65963297 -3.62150688 49.96903317 -5.9375 48.1875 C-8.75 45.5625 -8.75 45.5625 -10.9375 43.1875 C-10.9375 42.5275 -10.9375 41.8675 -10.9375 41.1875 C-12.4225 40.6925 -12.4225 40.6925 -13.9375 40.1875 C-14.95769573 39.2081121 -15.95899805 38.20854551 -16.9375 37.1875 C-17.5975 36.8575 -18.2575 36.5275 -18.9375 36.1875 C-18.9375 35.1975 -18.9375 34.2075 -18.9375 33.1875 C-20.2575 32.8575 -21.5775 32.5275 -22.9375 32.1875 C-22.9375 31.5275 -22.9375 30.8675 -22.9375 30.1875 C-23.865625 30.0946875 -23.865625 30.0946875 -24.8125 30 C-26.9375 29.1875 -26.9375 29.1875 -28.0625 26.8125 C-28.35125 25.94625 -28.64 25.08 -28.9375 24.1875 C-29.5975 23.1975 -30.2575 22.2075 -30.9375 21.1875 C-31.37337105 17.17289823 -30.98569008 13.54480779 -28.48046875 10.30078125 C-25.23446763 7.38008743 -22.42395759 5.45940652 -17.9375 5.1875 C-17.9375 4.5275 -17.9375 3.8675 -17.9375 3.1875 C-11.85697468 -0.02564861 -6.79924336 -0.18125119 0 0 Z " fill="#489C63" transform="translate(133.9375,62.8125)"/>
<path d="M0 0 C27 27 27 27 29.61865234 29.62792969 C32.56593919 32.56373438 35.58136235 35.41483068 38.625 38.25 C39.19734375 38.79140625 39.7696875 39.3328125 40.359375 39.890625 C42.88085648 42.23618917 44.69418643 43.89806214 48 45 C48 45.99 48 46.98 48 48 C48.66 48 49.32 48 50 48 C50.061875 48.61875 50.12375 49.2375 50.1875 49.875 C50.455625 50.57625 50.72375 51.2775 51 52 C52.66072849 52.68132451 54.327767 53.34742127 56 54 C57.76948398 56.48069137 58.02302635 57.73408284 57.7578125 60.796875 C57.54898438 61.77140625 57.34015625 62.7459375 57.125 63.75 C56.92132813 64.73484375 56.71765625 65.7196875 56.5078125 66.734375 C56.34023437 67.48203125 56.17265625 68.2296875 56 69 C53.525 69.495 53.525 69.495 51 70 C51.680625 69.154375 52.36125 68.30875 53.0625 67.4375 C55.46384459 63.17704992 55.20852383 61.67455195 54 57 C52.3262619 54.77938633 50.81721505 53.05244618 48.83764648 51.15649414 C48.30105408 50.61902557 47.76446167 50.08155701 47.21160889 49.52780151 C45.44529114 47.76564348 43.65872973 46.02566142 41.87109375 44.28515625 C40.63810349 43.06336378 39.40643668 41.8402344 38.17604065 40.61582947 C34.94225673 37.40489742 31.69086087 34.21239535 28.4354248 31.0234375 C25.11341028 27.76292297 21.80842546 24.48524589 18.50195312 21.20898438 C12.01782681 14.78910647 5.51495915 8.38857566 -1 2 C-0.67 1.34 -0.34 0.68 0 0 Z " fill="#459B62" transform="translate(109,112)"/>
<path d="M0 0 C5.28067631 4.01757506 8.98576657 8.07090348 12 14 C12.32097656 14.62003906 12.64195312 15.24007812 12.97265625 15.87890625 C16.81345118 25.00749327 16.48240624 37.75716154 13.4375 47.0625 C11.20177711 52.2206321 8.11430883 57.13388613 4 61 C3.01 61 2.02 61 1 61 C1.66 60.01 2.32 59.02 3 58 C3.66 58 4.32 58 5 58 C5.103125 57.401875 5.20625 56.80375 5.3125 56.1875 C6 54 6 54 7.4375 52.6875 C9.77633652 50.16155656 10.16359311 47.2858842 11 44 C11.33 43.34 11.66 42.68 12 42 C12.15175549 40.40737934 12.24900325 38.80935144 12.31640625 37.2109375 C12.35830078 36.26992187 12.40019531 35.32890625 12.44335938 34.359375 C12.48267578 33.37453125 12.52199219 32.3896875 12.5625 31.375 C12.60568359 30.38242188 12.64886719 29.38984375 12.69335938 28.3671875 C12.79961069 25.91160162 12.90164964 23.45591297 13 21 C12.34 21 11.68 21 11 21 C8.92373687 16.37559575 7.29977048 11.8991349 6 7 C5.38125 6.95875 4.7625 6.9175 4.125 6.875 C3.42375 6.58625 2.7225 6.2975 2 6 C0.75 2.9375 0.75 2.9375 0 0 Z " fill="#479E64" transform="translate(210,97)"/>
<path d="M0 0 C0 0.33 0 0.66 0 1 C-1.9914056 1.38133299 -3.99279077 1.71325582 -6 2 C-6.495 1.505 -6.495 1.505 -7 1 C-18.65888191 0.18183285 -26.43091022 5.57345553 -35 13 C-35.515625 13.61875 -36.03125 14.2375 -36.5625 14.875 C-38 16 -38 16 -40.5 15.75 C-42.34276141 15.19717158 -44.17482878 14.60839041 -46 14 C-46.33 12.02 -46.66 10.04 -47 8 C-44.36 9.98 -41.72 11.96 -39 14 C-38.2265625 13.18015625 -37.453125 12.3603125 -36.65625 11.515625 C-26.35589486 0.76713969 -15.61149214 -7.35004338 0 0 Z " fill="#011F09" transform="translate(195,108)"/>
<path d="M0 0 C0.43441406 0.50144531 0.86882812 1.00289062 1.31640625 1.51953125 C2.30640625 1.84953125 3.29640625 2.17953125 4.31640625 2.51953125 C3.98640625 3.17953125 3.65640625 3.83953125 3.31640625 4.51953125 C2.77757812 4.30296875 2.23875 4.08640625 1.68359375 3.86328125 C-10.54006009 -0.27513447 -26.55662596 -0.45006784 -38.7578125 3.86328125 C-40.68359375 4.51953125 -40.68359375 4.51953125 -43.68359375 4.51953125 C-43.68359375 3.85953125 -43.68359375 3.19953125 -43.68359375 2.51953125 C-42.54921875 2.23078125 -41.41484375 1.94203125 -40.24609375 1.64453125 C-39.07046875 1.27328125 -37.89484375 0.90203125 -36.68359375 0.51953125 C-36.35359375 -0.14046875 -36.02359375 -0.80046875 -35.68359375 -1.48046875 C-27.06862727 -2.89275834 -6.78023134 -5.96219879 0 0 Z " fill="#03230C" transform="translate(154.68359375,45.48046875)"/>
<path d="M0 0 C1.2734375 2.109375 1.2734375 2.109375 2 4 C2.66 4 3.32 4 4 4 C4 4.66 4 5.32 4 6 C4.639375 6.226875 5.27875 6.45375 5.9375 6.6875 C8 8 8 8 8.75 10.625 C8.8325 11.40875 8.915 12.1925 9 13 C5.52686212 11.84228737 5.22938291 11.14795813 3.3125 8.1875 C0.10749344 3.8439753 -2.70669416 1.34007743 -8 0 C-15.93909525 -0.89036582 -23.47039 -1.04626875 -30 4 C-32.47367755 6.2172887 -34.77972595 8.52994512 -37 11 C-37.33 10.01 -37.66 9.02 -38 8 C-37.34 8 -36.68 8 -36 8 C-36 7.01 -36 6.02 -36 5 C-33.37403939 3.15473038 -31.04872454 2.01624151 -28 1 C-28 0.34 -28 -0.32 -28 -1 C-19.68259885 -4.69662273 -8.08262084 -4.31502467 0 0 Z " fill="#409059" transform="translate(198,107)"/>
<path d="M0 0 C0.33 0.99 0.66 1.98 1 3 C-0.36064049 4.32738039 -1.73924828 5.63635688 -3.125 6.9375 C-3.89070312 7.66839844 -4.65640625 8.39929688 -5.4453125 9.15234375 C-8.35749016 11.25855175 -10.45787708 11.67658878 -14 12 C-13.7834375 12.83144531 -13.566875 13.66289062 -13.34375 14.51953125 C-13.0653125 15.60621094 -12.786875 16.69289062 -12.5 17.8125 C-12.2215625 18.89144531 -11.943125 19.97039062 -11.65625 21.08203125 C-11 24 -11 24 -11 27 C-5.56785506 25.19465395 -5.56785506 25.19465395 -0.75 22.25 C-0.1725 21.8375 0.405 21.425 1 21 C3.109375 21.421875 3.109375 21.421875 5 22 C-0.48286421 25.91419734 -5.3386656 27.96687638 -12 29 C-12.25394531 28.28714844 -12.50789062 27.57429688 -12.76953125 26.83984375 C-14.69493254 21.48189183 -16.68760351 16.2028921 -19 11 C-18.02160156 10.74476563 -18.02160156 10.74476563 -17.0234375 10.484375 C-9.98660224 8.53315814 -4.1198371 6.4086355 0 0 Z " fill="#459F65" transform="translate(203,141)"/>
<path d="M0 0 C0.66 0.33 1.32 0.66 2 1 C0.92598892 3.91517292 0.22189824 5.77810176 -2 8 C-3.6229808 17.18875597 -3.74070524 25.5967591 1.6875 33.4375 C2.120625 33.953125 2.55375 34.46875 3 35 C3 35.66 3 36.32 3 37 C4.32 37.33 5.64 37.66 7 38 C7 39.32 7 40.64 7 42 C0.66504534 37.47503239 -3.53033744 31.40898767 -6 24 C-6.6482505 15.63650589 -6.65380954 9.11759106 -2 2 C-1.34 1.34 -0.68 0.68 0 0 Z " fill="#459B61" transform="translate(93,64)"/>
<path d="M0 0 C5.50722443 4.58451005 10.58881972 9.46848372 15.625 14.5625 C16.36234375 15.30435547 17.0996875 16.04621094 17.859375 16.81054688 C19.27834921 18.23842146 20.69644556 19.66716916 22.11352539 21.09692383 C26.40600202 25.45070544 26.40600202 25.45070544 30.8125 29.6875 C32 31 32 31 32 33 C31.34 33 30.68 33 30 33 C28.66796875 31.5390625 28.66796875 31.5390625 27.1875 29.625 C24.70683071 26.63004561 22.88445249 24.94486682 19 24 C18.01 24 17.02 24 16 24 C15.78085938 23.33613281 15.56171875 22.67226562 15.3359375 21.98828125 C13.14867854 15.8977431 11.29026674 12.7144426 6 9 C4.98131338 8.01904252 3.97648017 7.02297922 3 6 C2.443125 5.505 1.88625 5.01 1.3125 4.5 C0 3 0 3 0 0 Z " fill="#38AF61" transform="translate(147,127)"/>
<path d="M0 0 C10.32543949 -0.54133372 10.32543949 -0.54133372 15 3 C15.99 3.33 16.98 3.66 18 4 C18 4.66 18 5.32 18 6 C20.97 6 23.94 6 27 6 C27 6.66 27 7.32 27 8 C32.61 8.33 38.22 8.66 44 9 C44 9.66 44 10.32 44 11 C31.00487416 11.88603131 18.90066483 8.9352988 7.33203125 3.05078125 C4.88995883 1.95041696 2.63670747 1.42618185 0 1 C0 0.67 0 0.34 0 0 Z " fill="#3D935B" transform="translate(96,198)"/>
<path d="M0 0 C0.61875 0.804375 1.2375 1.60875 1.875 2.4375 C5.0672194 5.70268442 8.2475725 5.47880197 12.6171875 5.6875 C15.93493195 6.12261403 17.71353401 7.63731847 20 10 C19.67 10.66 19.34 11.32 19 12 C18.1028125 11.2265625 18.1028125 11.2265625 17.1875 10.4375 C12.41292793 8.28426162 8.08021909 9.26154434 3 10 C3.66 11.65 4.32 13.3 5 15 C4.34 15 3.68 15 3 15 C3 16.32 3 17.64 3 19 C2.34 19 1.68 19 1 19 C0.96261719 18.39671875 0.92523438 17.7934375 0.88671875 17.171875 C0.43746659 11.00632228 0.43746659 11.00632228 -3 6 C-2.01 5.34 -1.02 4.68 0 4 C0 2.68 0 1.36 0 0 Z " fill="#3FAC64" transform="translate(122,154)"/>
<path d="M0 0 C7.29247911 0.99442897 7.29247911 0.99442897 10 3 C10.75 5.625 10.75 5.625 11 8 C12.32 8.33 13.64 8.66 15 9 C15 9.99 15 10.98 15 12 C15.66 12 16.32 12 17 12 C22.41555494 21.74799889 23.5512195 29.97376413 22 41 C21.67 41 21.34 41 21 41 C20.97421875 40.18917969 20.9484375 39.37835938 20.921875 38.54296875 C20.27754 25.96379218 17.21523667 15.8113988 7.90625 7.0234375 C6.53120515 5.81280018 5.14179141 4.61815951 3.734375 3.4453125 C2 2 2 2 0 0 Z " fill="#051F0B" transform="translate(204,92)"/>
<path d="M0 0 C2.475 0.495 2.475 0.495 5 1 C5.33 1.99 5.66 2.98 6 4 C6.99 4.33 7.98 4.66 9 5 C9.33 7.31 9.66 9.62 10 12 C3.71428571 14.42857143 3.71428571 14.42857143 0 13 C0.33 12.67 0.66 12.34 1 12 C1.16017882 7.83535074 0.98248196 4.05273808 0 0 Z " fill="#010709" transform="translate(128,139)"/>
<path d="M0 0 C1.9453125 0.734375 1.9453125 0.734375 4 2 C5.38854268 5.99006518 5.17775956 10.09342622 4.375 14.1875 C0.96485014 21.16280654 0.96485014 21.16280654 -2 23 C-7.46100355 23.84128974 -12.32801504 24.11465664 -17 21 C-16.34773437 21.03480469 -15.69546875 21.06960937 -15.0234375 21.10546875 C-9.5934192 21.27365516 -5.61589519 21.23112663 -1 18 C1.44152138 15.0035874 1.28790359 11.7523685 1.203125 7.97265625 C0.93884644 5.40610482 0.14932212 3.29864424 -1 1 C-0.67 0.67 -0.34 0.34 0 0 Z " fill="#021F0A" transform="translate(183,58)"/>
<path d="M0 0 C3 1 3 1 4.16430664 2.78442383 C6.88129436 9.98765594 6.18109834 20.87882855 4.08984375 28.17578125 C1.65218022 32.83947836 -1.3947457 35.53672444 -6 38 C-6.66 37.67 -7.32 37.34 -8 37 C-7.52949219 36.55269531 -7.05898437 36.10539062 -6.57421875 35.64453125 C-0.95490751 30.18809859 2.69579861 25.80287187 3.203125 17.79296875 C3.32443364 8.48889966 3.32443364 8.48889966 0 0 Z " fill="#072D14" transform="translate(179,159)"/>
<path d="M0 0 C4.64080989 3.84067025 6.47602099 8.38265094 7.32421875 14.23828125 C7.6204981 20.15365177 5.95446439 23.92201434 3 29 C1.83125644 25.56532505 2.25518158 23.46142529 3.1875 20 C4.40830017 14.07153906 3.12445604 9.9824725 0.9453125 4.43359375 C0 2 0 2 0 0 Z " fill="#06280E" transform="translate(200,113)"/>
<path d="M0 0 C1.32 0 2.64 0 4 0 C4 0.66 4 1.32 4 2 C4.99 2 5.98 2 7 2 C7 2.66 7 3.32 7 4 C7.99 4.33 8.98 4.66 10 5 C10 6.32 10 7.64 10 9 C10.66 9 11.32 9 12 9 C12 9.66 12 10.32 12 11 C12.66 11 13.32 11 14 11 C14.33 11.66 14.66 12.32 15 13 C15.99 13.33 16.98 13.66 18 14 C18 14.99 18 15.98 18 17 C18.99 17 19.98 17 21 17 C20.67 18.32 20.34 19.64 20 21 C17.14852788 18.17317491 14.30029574 15.34313037 11.45507812 12.51000977 C10.48592079 11.54589335 9.51586952 10.58267471 8.54492188 9.62036133 C7.15262088 8.24013641 5.7637538 6.85645022 4.375 5.47265625 C3.53710938 4.64000244 2.69921875 3.80734863 1.8359375 2.94946289 C0 1 0 1 0 0 Z " fill="#01210B" transform="translate(144,123)"/>
<path d="M0 0 C0.99 0.33 1.98 0.66 3 1 C-2.64233407 4.10795234 -6.64921427 5.51296711 -13.0546875 4.26171875 C-15.21198805 3.82627461 -15.21198805 3.82627461 -18 5 C-19.12516085 6.83284443 -19.12516085 6.83284443 -20 9 C-20.66666667 10.33333333 -21.33333333 11.66666667 -22 13 C-22.35671933 9.16526716 -22.29771416 7.44657125 -20.125 4.1875 C-17.15073731 1.125759 -16.5191055 1.01674534 -12.125 0.875 C-9.79618808 0.89181453 -8.003327 0.99907583 -5.75 1.625 C-3.31645996 2.14647286 -2.15825504 1.11393808 0 0 Z " fill="#469A60" transform="translate(150,75)"/>
<path d="M0 0 C0.66 0.33 1.32 0.66 2 1 C2 1.99 2 2.98 2 4 C13.385 5.485 13.385 5.485 25 7 C25 7.33 25 7.66 25 8 C14.60510406 8.41167905 5.57565812 8.72455379 -4 4 C-4 3.34 -4 2.68 -4 2 C-2.125 0.9375 -2.125 0.9375 0 0 Z " fill="#042B0C" transform="translate(119,182)"/>
<path d="M0 0 C3.15204981 1.39347376 5.26171773 3.02485079 7.671875 5.4765625 C8.33574219 6.146875 8.99960938 6.8171875 9.68359375 7.5078125 C10.36550781 8.20648438 11.04742187 8.90515625 11.75 9.625 C12.44738281 10.33140625 13.14476562 11.0378125 13.86328125 11.765625 C15.58012488 13.50598703 17.29211832 15.25084981 19 17 C14.8991574 17 12.42583462 15.31176785 9.4375 12.5625 C8.963125 12.046875 8.48875 11.53125 8 11 C7.278125 10.34 6.55625 9.68 5.8125 9 C4 7 4 7 4 4 C2.68 3.67 1.36 3.34 0 3 C0 2.01 0 1.02 0 0 Z " fill="#001603" transform="translate(133,140)"/>
<path d="M0 0 C2.58879561 2.26092704 2.97058713 2.68822359 3.3125 6.3125 C2.81220847 12.21594003 0.72904958 16.78999626 -2 22 C-2.33 22 -2.66 22 -3 22 C-3.16335585 16.76580643 -2.60552037 12.13693808 -1.5 7.0625 C-1.35691406 6.37865234 -1.21382812 5.69480469 -1.06640625 4.99023438 C-0.71716229 3.32550486 -0.35947054 1.66255125 0 0 Z " fill="#011708" transform="translate(226,126)"/>
<path d="M0 0 C0 0.33 0 0.66 0 1 C-2.64 1 -5.28 1 -8 1 C-8 0.34 -8 -0.32 -8 -1 C-8.82242188 -0.9278125 -9.64484375 -0.855625 -10.4921875 -0.78125 C-17.34915248 -0.21115591 -24.11992439 0.1397758 -31 0 C-21.98744769 -6.00836821 -9.63248315 -3.24300034 0 0 Z " fill="#062B10" transform="translate(152,67)"/>
<path d="M0 0 C1.2065625 0.9590625 1.2065625 0.9590625 2.4375 1.9375 C5.82255764 4.22340951 8.67856255 4.38767222 12.67578125 4.65234375 C16.58409845 5.23694918 19.58062978 7.0727186 23 9 C23 9.66 23 10.32 23 11 C21.35 11 19.7 11 18 11 C18 10.34 18 9.68 18 9 C17.02160156 8.94392578 17.02160156 8.94392578 16.0234375 8.88671875 C10.77876116 8.4922077 6.42671926 8.09870348 2 5 C0.625 2.3125 0.625 2.3125 0 0 Z " fill="#011D08" transform="translate(88,195)"/>
<path d="M0 0 C0 0.33 0 0.66 0 1 C-1.16015625 1.14695312 -1.16015625 1.14695312 -2.34375 1.296875 C-13.28725465 2.8679722 -19.59882952 5.76619784 -27 14 C-27.33 13.01 -27.66 12.02 -28 11 C-27.34 11 -26.68 11 -26 11 C-26 10.01 -26 9.02 -26 8 C-23.37403939 6.15473038 -21.04872454 5.01624151 -18 4 C-18 3.34 -18 2.68 -18 2 C-12.12116651 -0.61281488 -6.29268272 -0.18328202 0 0 Z " fill="#479F64" transform="translate(188,104)"/>
<path d="M0 0 C0 0.66 0 1.32 0 2 C-0.99 2 -1.98 2 -3 2 C-3 2.66 -3 3.32 -3 4 C-4.6232687 4.6708712 -6.24867578 5.33657029 -7.875 6 C-8.77992187 6.37125 -9.68484375 6.7425 -10.6171875 7.125 C-13 8 -13 8 -15 8 C-15 8.66 -15 9.32 -15 10 C-15.66 10 -16.32 10 -17 10 C-17.33 10.99 -17.66 11.98 -18 13 C-19.65 13.33 -21.3 13.66 -23 14 C-17.61139991 8.08992249 -8.46757331 0 0 0 Z " fill="#43975E" transform="translate(118,48)"/>
<path d="M0 0 C0.55945313 0.144375 1.11890625 0.28875 1.6953125 0.4375 C12.50450423 2.93994953 23.26299407 2.77084024 34 0 C33 2 33 2 29.9375 3.0625 C25.51966002 4.08200153 21.07500777 4.39099949 16.5625 4.6875 C15.8398999 4.73592041 15.1172998 4.78434082 14.37280273 4.83422852 C12.58381102 4.93426592 10.79157647 4.97256714 9 5 C8.67 4.67 8.34 4.34 8 4 C5.67182036 3.63239269 3.3381615 3.29758419 1 3 C0.67 2.01 0.34 1.02 0 0 Z " fill="#011F07" transform="translate(72,168)"/>
<path d="M0 0 C7.15801225 5.82628904 13.52591766 12.4382985 20 19 C19.34 19.66 18.68 20.32 18 21 C17.33613281 20.25234375 16.67226562 19.5046875 15.98828125 18.734375 C15.09655851 17.73940016 14.20461989 16.74461877 13.3125 15.75 C12.44238281 14.77546875 11.57226562 13.8009375 10.67578125 12.796875 C8.24797855 10.25920093 5.7880115 8.12442657 3 6 C1.1875 4.4375 1.1875 4.4375 0 3 C0 2.01 0 1.02 0 0 Z " fill="#4AA46A" transform="translate(147,127)"/>
<path d="M0 0 C4.14465217 1.18418633 6.1116888 3.01871379 8.73046875 6.40234375 C10.63602473 8.80041266 12.8046903 10.86741343 15 13 C13.68 13.33 12.36 13.66 11 14 C10.38125 13.030625 9.7625 12.06125 9.125 11.0625 C7.34321154 7.97164638 7.34321154 7.97164638 5 7 C5 6.34 5 5.68 5 5 C3.68 4.67 2.36 4.34 1 4 C0.67 2.68 0.34 1.36 0 0 Z " fill="#031B07" transform="translate(97,105)"/>
<path d="M0 0 C2.46800047 1.15173355 4.04783565 2.04783565 6 4 C6 4.99 6 5.98 6 7 C5.01 6.67 4.02 6.34 3 6 C3 5.34 3 4.68 3 4 C2.32453125 4.30035156 1.6490625 4.60070312 0.953125 4.91015625 C0.06109375 5.29042969 -0.8309375 5.67070312 -1.75 6.0625 C-2.63171875 6.44535156 -3.5134375 6.82820312 -4.421875 7.22265625 C-7.15256309 8.04600008 -8.36901347 7.9773992 -11 7 C-10.37351562 6.66226563 -9.74703125 6.32453125 -9.1015625 5.9765625 C-8.28429687 5.53054687 -7.46703125 5.08453125 -6.625 4.625 C-5.40683594 3.96371094 -5.40683594 3.96371094 -4.1640625 3.2890625 C-1.89185698 2.0556107 -1.89185698 2.0556107 0 0 Z " fill="#03290C" transform="translate(117,160)"/>
<path d="M0 0 C3.34363602 4.45818135 5.13816631 7.23255146 5.625 12.75 C5.69976562 13.54921875 5.77453125 14.3484375 5.8515625 15.171875 C5.92503906 16.07679688 5.92503906 16.07679688 6 17 C5.34 17 4.68 17 4 17 C3.67 15.68 3.34 14.36 3 13 C2.01 13 1.02 13 0 13 C0 8.71 0 4.42 0 0 Z " fill="#01190A" transform="translate(184,153)"/>
<path d="M0 0 C0.33 0.99 0.66 1.98 1 3 C-7.26947315 11.40346925 -7.26947315 11.40346925 -12.5625 12 C-13.696875 12 -14.83125 12 -16 12 C-16.33 13.32 -16.66 14.64 -17 16 C-17.66 14.35 -18.32 12.7 -19 11 C-18.02160156 10.74476563 -18.02160156 10.74476563 -17.0234375 10.484375 C-9.98660224 8.53315814 -4.1198371 6.4086355 0 0 Z " fill="#479461" transform="translate(203,141)"/>
<path d="M0 0 C1.485 0.99 1.485 0.99 3 2 C5.34391428 2.30867597 5.34391428 2.30867597 7.875 2.375 C12.38591028 2.7245296 14.76879343 3.66108654 18 7 C17.67 7.66 17.34 8.32 17 9 C16.38125 8.505 15.7625 8.01 15.125 7.5 C10.73970259 5.39505724 6.78286739 5.74924773 2 6 C2 5.01 2 4.02 2 3 C1.34 3 0.68 3 0 3 C0 2.01 0 1.02 0 0 Z " fill="#49A867" transform="translate(124,157)"/>
<path d="M0 0 C1.98 0.66 3.96 1.32 6 2 C6.0270043 3.45823212 6.04639787 4.91660675 6.0625 6.375 C6.07410156 7.18710938 6.08570313 7.99921875 6.09765625 8.8359375 C6 11 6 11 5 13 C2.9375 13.625 2.9375 13.625 1 14 C1 13.34 1 12.68 1 12 C1.66 12 2.32 12 3 12 C3.49544197 7.24595988 3.49544197 7.24595988 1.5 3.1875 C1.005 2.795625 0.51 2.40375 0 2 C0 1.34 0 0.68 0 0 Z " fill="#40A260" transform="translate(137,163)"/>
<path d="M0 0 C0.33 0 0.66 0 1 0 C1.06058594 1.04800781 1.12117188 2.09601563 1.18359375 3.17578125 C1.26801738 4.55470048 1.35266447 5.93360605 1.4375 7.3125 C1.47681641 8.00279297 1.51613281 8.69308594 1.55664062 9.40429688 C1.74927415 12.47161535 2.02322717 15.06968152 3 18 C3.66 18 4.32 18 5 18 C5.33 19.32 5.66 20.64 6 22 C5.34 22.33 4.68 22.66 4 23 C-0.31483751 15.76220805 -2.19545754 9.97728768 -0.5 1.5 C-0.335 1.005 -0.17 0.51 0 0 Z " fill="#0A3314" transform="translate(67,121)"/>
<path d="M0 0 C0.66 0 1.32 0 2 0 C3.78703225 1.97608856 5.40613643 4.05680754 7.05078125 6.15234375 C9.38501261 8.36495184 10.85593695 8.60511768 14 9 C14.99 9.33 15.98 9.66 17 10 C15.35 11.32 13.7 12.64 12 14 C9.99387601 12.04761147 7.99507567 10.08862178 6 8.125 C5.42765625 7.56941406 4.8553125 7.01382813 4.265625 6.44140625 C2.80549218 4.99865596 1.39850702 3.5025626 0 2 C0 1.34 0 0.68 0 0 Z " fill="#4B9A64" transform="translate(143,109)"/>
<path d="M0 0 C0.66 0 1.32 0 2 0 C3.19690598 1.6956168 4.39047038 3.39380277 5.55859375 5.109375 C7.6994129 7.91738711 10.20598852 9.85575863 13 12 C12.01 13.485 12.01 13.485 11 15 C11 14.01 11 13.02 11 12 C9.68 11.67 8.36 11.34 7 11 C7 10.34 7 9.68 7 9 C6.38125 8.938125 5.7625 8.87625 5.125 8.8125 C3 8 3 8 1.8125 5.625 C1.4103125 4.325625 1.4103125 4.325625 1 3 C0.67 2.01 0.34 1.02 0 0 Z " fill="#42965D" transform="translate(104,84)"/>
<path d="M0 0 C-0.99 1.485 -0.99 1.485 -2 3 C-4.8203125 3.51171875 -4.8203125 3.51171875 -8.125 3.6875 C-9.76855469 3.78611328 -9.76855469 3.78611328 -11.4453125 3.88671875 C-12.28835937 3.92410156 -13.13140625 3.96148437 -14 4 C-14 4.66 -14 5.32 -14 6 C-16.5 7.625 -16.5 7.625 -19 9 C-18.9375 7.25 -18.9375 7.25 -18 5 C-12.13749601 0.97671295 -7.12515978 -0.20956352 0 0 Z " fill="#011604" transform="translate(130,66)"/>
<path d="M0 0 C1.010625 0.66 2.02125 1.32 3.0625 2 C6.07440946 3.75949275 7.06849895 4 10.75 4 C11.8225 4 12.895 4 14 4 C15.9375 6 15.9375 6 17 8 C13.90272037 9.54863982 11.75867742 8.3194397 8.5 7.375 C7.3346875 7.05273438 6.169375 6.73046875 4.96875 6.3984375 C2 5 2 5 0.59375 2.3515625 C0.3978125 1.57554688 0.201875 0.79953125 0 0 Z " fill="#02220C" transform="translate(129,92)"/>
<path d="M0 0 C5.8580957 0.52304426 10.61504704 1.58605557 16 4 C16.99 5.485 16.99 5.485 18 7 C12.71746819 6.55232781 9.45596017 6.0107839 5 3 C3.34630643 2.30177383 1.68272986 1.62501395 0 1 C0 0.67 0 0.34 0 0 Z " fill="#40A763" transform="translate(192,90)"/>
<path d="M0 0 C1.91796875 0.72265625 1.91796875 0.72265625 4 2 C6.87152138 8.63958111 5.9796197 16.03675724 5 23 C4.67 23 4.34 23 4 23 C3.96261719 22.17757812 3.92523438 21.35515625 3.88671875 20.5078125 C3.46019124 13.26520813 2.45264219 6.8334622 0 0 Z " fill="#062B11" transform="translate(221,110)"/>
<path d="M0 0 C3.96 0 7.92 0 12 0 C12 0.66 12 1.32 12 2 C14.31 2 16.62 2 19 2 C19.33 1.34 19.66 0.68 20 0 C20 0.99 20 1.98 20 3 C17 5 17 5 15.0625 4.75 C13 4 13 4 11.16796875 2.9609375 C8.67516576 1.85601942 6.96027896 1.79528591 4.25 1.875 C3.05117187 1.90207031 3.05117187 1.90207031 1.828125 1.9296875 C0.92320313 1.96449219 0.92320313 1.96449219 0 2 C0 1.34 0 0.68 0 0 Z " fill="#02280C" transform="translate(93,176)"/>
<path d="M0 0 C5.29158974 1.40071493 7.77478044 4.85487245 11 9 C10.34 9.66 9.68 10.32 9 11 C7.29115995 9.37660195 5.62553283 7.70680947 4 6 C4 5.34 4 4.68 4 4 C1.03 3.505 1.03 3.505 -2 3 C-1.34 2.01 -0.68 1.02 0 0 Z " fill="#479B5F" transform="translate(116,135)"/>
<path d="M0 0 C-2.28929053 1.17154293 -4.58118362 2.33738074 -6.875 3.5 C-7.52597656 3.83386719 -8.17695312 4.16773437 -8.84765625 4.51171875 C-13.7734375 7 -13.7734375 7 -16 7 C-15.67 6.01 -15.34 5.02 -15 4 C-14.34 4 -13.68 4 -13 4 C-12.67 3.01 -12.34 2.02 -12 1 C-10.29296875 0.234375 -10.29296875 0.234375 -8.1875 -0.25 C-7.50042969 -0.42015625 -6.81335938 -0.5903125 -6.10546875 -0.765625 C-3.80500179 -1.02170666 -2.19370273 -0.69015367 0 0 Z " fill="#02220B" transform="translate(80,88)"/>
<path d="M0 0 C0.33 0 0.66 0 1 0 C1 1.98 1 3.96 1 6 C1.66 6.33 2.32 6.66 3 7 C2.01 8.485 2.01 8.485 1 10 C-0.99422795 10.36628677 -2.99453311 10.70131344 -5 11 C-5.33 11.66 -5.66 12.32 -6 13 C-6.99 13 -7.98 13 -9 13 C-9 12.34 -9 11.68 -9 11 C-7.28515625 9.921875 -7.28515625 9.921875 -5.0625 8.75 C-1.46262659 6.65639385 -1.46262659 6.65639385 0 2.6875 C0 1.800625 0 0.91375 0 0 Z " fill="#3A9058" transform="translate(122,167)"/>
<path d="M0 0 C16.94535248 -0.65081724 16.94535248 -0.65081724 23 3 C23.33 3.99 23.66 4.98 24 6 C20 4.66666667 16 3.33333333 12 2 C9.94106379 1.77674186 7.87766347 1.59294241 5.8125 1.4375 C4.72582031 1.35371094 3.63914063 1.26992187 2.51953125 1.18359375 C1.68808594 1.12300781 0.85664063 1.06242187 0 1 C0 0.67 0 0.34 0 0 Z " fill="#04280F" transform="translate(180,86)"/>
<path d="M0 0 C1.32 0 2.64 0 4 0 C4 0.66 4 1.32 4 2 C3.34 2 2.68 2 2 2 C1.67 2.99 1.34 3.98 1 5 C0.34 5 -0.32 5 -1 5 C-1.33 6.32 -1.66 7.64 -2 9 C-1.34 9.33 -0.68 9.66 0 10 C-0.99 10 -1.98 10 -3 10 C-3.68707555 7.50935112 -4 5.62113708 -4 3 C-3.01 3 -2.02 3 -1 3 C-0.67 2.01 -0.34 1.02 0 0 Z " fill="#37A25B" transform="translate(117,177)"/>
<path d="M0 0 C0.66 0 1.32 0 2 0 C1.34 3.96 0.68 7.92 0 12 C-0.99 11.34 -1.98 10.68 -3 10 C-3 9.34 -3 8.68 -3 8 C-3.66 7.67 -4.32 7.34 -5 7 C-4.175 6.030625 -3.35 5.06125 -2.5 4.0625 C0.10539608 1.52977999 0.10539608 1.52977999 0 0 Z " fill="#3B9759" transform="translate(148,101)"/>
<path d="M0 0 C0.66 0.33 1.32 0.66 2 1 C1.21258141 2.46063143 0.4199095 3.91843173 -0.375 5.375 C-0.81585938 6.18710938 -1.25671875 6.99921875 -1.7109375 7.8359375 C-3 10 -3 10 -5 12 C-5.66 11.67 -6.32 11.34 -7 11 C-6.71125 10.443125 -6.4225 9.88625 -6.125 9.3125 C-4.94092436 6.98588247 -4.94092436 6.98588247 -4.0625 4.375 C-3 2 -3 2 0 0 Z " fill="#021D09" transform="translate(92,62)"/>
<path d="M0 0 C0.99 0.99 1.98 1.98 3 3 C2.9375 6.5 2.9375 6.5 2 10 C0.68 10.99 -0.64 11.98 -2 13 C-1.34 8.71 -0.68 4.42 0 0 Z " fill="#002309" transform="translate(162,168)"/>
<path d="M0 0 C0.99 0.495 0.99 0.495 2 1 C2 3.64 2 6.28 2 9 C2.66 9.33 3.32 9.66 4 10 C3.01 10.495 3.01 10.495 2 11 C2 12.98 2 14.96 2 17 C1.34 17.33 0.68 17.66 0 18 C0 12.06 0 6.12 0 0 Z " fill="#000C04" transform="translate(184,166)"/>
<path d="M0 0 C0.5775 0.37382813 1.155 0.74765625 1.75 1.1328125 C0.821875 1.3184375 0.821875 1.3184375 -0.125 1.5078125 C-2.44120832 2.00478606 -2.44120832 2.00478606 -4.25 4.1328125 C-5.24 4.1328125 -6.23 4.1328125 -7.25 4.1328125 C-7.25 4.7928125 -7.25 5.4528125 -7.25 6.1328125 C-9.56 6.7928125 -11.87 7.4528125 -14.25 8.1328125 C-11.84334824 5.42532927 -9.23206998 3.28851314 -6.25 1.2578125 C-5.59 0.80664062 -4.93 0.35546875 -4.25 -0.109375 C-2.25 -0.8671875 -2.25 -0.8671875 0 0 Z " fill="#021E08" transform="translate(164.25,75.8671875)"/>
<path d="M0 0 C0 0.66 0 1.32 0 2 C-1.423125 2.8971875 -1.423125 2.8971875 -2.875 3.8125 C-6.14949697 6.10464788 -6.95605637 7.24180292 -8 11 C-8.66 11 -9.32 11 -10 11 C-10 11.66 -10 12.32 -10 13 C-10.66 13 -11.32 13 -12 13 C-10.33786678 7.86249731 -6.12730521 0 0 0 Z " fill="#012107" transform="translate(80,108)"/>
<path d="M0 0 C2.75 0.125 2.75 0.125 6 1 C8.4375 3.875 8.4375 3.875 10 7 C9.67 7.99 9.34 8.98 9 10 C7.88625 8.63875 7.88625 8.63875 6.75 7.25 C4.62325416 4.6930577 2.39770184 2.30889807 0 0 Z " fill="#061F0C" transform="translate(169,148)"/>
<path d="M0 0 C0.99 0 1.98 0 3 0 C4.26237731 2.52475462 4.09856404 4.31200466 4.0625 7.125 C4.05347656 8.03507813 4.04445312 8.94515625 4.03515625 9.8828125 C4.02355469 10.58148438 4.01195312 11.28015625 4 12 C3.01 12.33 2.02 12.66 1 13 C1.01740234 11.84371094 1.01740234 11.84371094 1.03515625 10.6640625 C1.04417969 9.66117188 1.05320313 8.65828125 1.0625 7.625 C1.07410156 6.62726563 1.08570313 5.62953125 1.09765625 4.6015625 C1.18006602 2.01567547 1.18006602 2.01567547 0 0 Z " fill="#06260E" transform="translate(141,163)"/>
<path d="M0 0 C-3.88309282 3.64775386 -6.71201818 4.58525633 -12 5 C-12.33 4.34 -12.66 3.68 -13 3 C-11.21189234 2.30329584 -9.41937948 1.61788811 -7.625 0.9375 C-6.62726563 0.55464844 -5.62953125 0.17179688 -4.6015625 -0.22265625 C-2 -1 -2 -1 0 0 Z " fill="#011F0B" transform="translate(204,167)"/>
<path d="M0 0 C0.33 0.99 0.66 1.98 1 3 C0.34 3.66 -0.32 4.32 -1 5 C-1.6425235 7.06874034 -1.6425235 7.06874034 -2 9 C-3.32 8.67 -4.64 8.34 -6 8 C-4.55746343 4.63408134 -2.66735273 2.48952921 0 0 Z " fill="#06270E" transform="translate(129,148)"/>
<path d="M0 0 C1.32 0.66 2.64 1.32 4 2 C1.0094833 5.33557632 -1.93184627 7.15083921 -6 9 C-5.34 7.35 -4.68 5.7 -4 4 C-2.35 4 -0.7 4 1 4 C0.67 2.68 0.34 1.36 0 0 Z " fill="#022008" transform="translate(153,68)"/>
<path d="M0 0 C0.66 0 1.32 0 2 0 C0.78836152 3.63491543 -0.10771062 3.95246215 -3.375 5.75 C-4.56222656 6.42289063 -4.56222656 6.42289063 -5.7734375 7.109375 C-8 8 -8 8 -11 7 C-10.34 6.34 -9.68 5.68 -9 5 C-7.68 5 -6.36 5 -5 5 C-5 4.34 -5 3.68 -5 3 C-3.35 2.67 -1.7 2.34 0 2 C0 1.34 0 0.68 0 0 Z " fill="#42935E" transform="translate(168,196)"/>
<path d="M0 0 C-0.33 0.99 -0.66 1.98 -1 3 C-4.14930893 4.04976964 -6.38814456 4.10131595 -9.6875 4.0625 C-10.68136719 4.05347656 -11.67523438 4.04445312 -12.69921875 4.03515625 C-13.83810547 4.01775391 -13.83810547 4.01775391 -15 4 C-15 3.67 -15 3.34 -15 3 C-13.783125 2.87625 -12.56625 2.7525 -11.3125 2.625 C-7.41338466 2.14882485 -3.79707023 0 0 0 Z " fill="#001405" transform="translate(151,185)"/>
<path d="M0 0 C0 3.27375077 -0.01146658 4.43147767 -2 7 C-4.65559401 7.97010475 -7.20694934 8.45940955 -10 9 C-6.85281112 5.7317654 -3.50647501 2.8689341 0 0 Z " fill="#03260D" transform="translate(214,157)"/>
<path d="M0 0 C0 3 0 3 -1.9375 5 C-2.618125 5.66 -3.29875 6.32 -4 7 C-4.33 7.99 -4.66 8.98 -5 10 C-6.65 10.33 -8.3 10.66 -10 11 C-6.79239749 7.19364503 -3.59253891 3.45436433 0 0 Z " fill="#459860" transform="translate(113,138)"/>
<path d="M0 0 C3.99881788 0.61520275 6.80358226 2.60268669 10 5 C10 5.66 10 6.32 10 7 C5.56541027 5.6062718 3.12621626 3.39417765 0 0 Z " fill="#04210A" transform="translate(72,144)"/>
<path d="M0 0 C0.66 0 1.32 0 2 0 C0.74194623 4.50802601 -0.90407165 7.4912812 -4 11 C-3.25531915 3.25531915 -3.25531915 3.25531915 0 0 Z " fill="#07290E" transform="translate(109,73)"/>
<path d="M0 0 C-0.33 0.99 -0.66 1.98 -1 3 C-0.34 3.33 0.32 3.66 1 4 C0.43796875 3.85691406 -0.1240625 3.71382812 -0.703125 3.56640625 C-3.04545453 2.98879098 -5.39417659 2.45716693 -7.75 1.9375 C-8.54921875 1.76089844 -9.3484375 1.58429687 -10.171875 1.40234375 C-10.77515625 1.26957031 -11.3784375 1.13679688 -12 1 C-12 0.67 -12 0.34 -12 0 C-7.6835078 -0.76173392 -4.25566547 -1.16063604 0 0 Z " fill="#3A9F5C" transform="translate(155,48)"/>
<path d="M0 0 C0.33 0 0.66 0 1 0 C1.28571429 7.42857143 1.28571429 7.42857143 -1 11 C-1.99 10.67 -2.98 10.34 -4 10 C-3.25130208 8.27473958 -2.50260417 6.54947917 -1.75390625 4.82421875 C-1.10038058 3.24288979 -0.54108198 1.62324594 0 0 Z " fill="#03220B" transform="translate(183,177)"/>
<path d="M0 0 C0.66 0.66 1.32 1.32 2 2 C1.01 3.485 1.01 3.485 0 5 C-0.68177416 6.32567199 -1.35191436 7.65753688 -2 9 C-2.66 9 -3.32 9 -4 9 C-3.67 7.02 -3.34 5.04 -3 3 C-2.34 3 -1.68 3 -1 3 C-0.67 2.01 -0.34 1.02 0 0 Z " fill="#379E5B" transform="translate(212,153)"/>
<path d="M0 0 C3.97256398 2.09663099 6.43898489 4.30075595 9 8 C9 8.66 9 9.32 9 10 C7 10 7 10 5.2734375 8.3203125 C4.64695313 7.59585938 4.02046875 6.87140625 3.375 6.125 C2.74335938 5.40570313 2.11171875 4.68640625 1.4609375 3.9453125 C0 2 0 2 0 0 Z " fill="#469760" transform="translate(170,150)"/>
<path d="M0 0 C-1.13499394 3.29148243 -1.99283376 3.9959869 -5.125 5.75 C-6.548125 6.36875 -6.548125 6.36875 -8 7 C-6.47663111 3.31852519 -4.31953005 0 0 0 Z " fill="#041F08" transform="translate(201,143)"/>
<path d="M0 0 C0.99 0.33 1.98 0.66 3 1 C3 1.66 3 2.32 3 3 C4.32 3.33 5.64 3.66 7 4 C7 5.32 7 6.64 7 8 C1.125 3.375 1.125 3.375 0 0 Z " fill="#41915B" transform="translate(93,98)"/>
<path d="M0 0 C0.99 0.33 1.98 0.66 3 1 C0.69 3.31 -1.62 5.62 -4 8 C-4.33 7.01 -4.66 6.02 -5 5 C-3.35 3.35 -1.7 1.7 0 0 Z " fill="#02230C" transform="translate(61,95)"/>
<path d="M0 0 C0.66 0.33 1.32 0.66 2 1 C1.01 1.33 0.02 1.66 -1 2 C-1 2.66 -1 3.32 -1 4 C-3.31 4.66 -5.62 5.32 -8 6 C-7 3 -7 3 -3.5625 1.25 C-2.386875 0.8375 -1.21125 0.425 0 0 Z " fill="#021F0A" transform="translate(162,202)"/>
<path d="M0 0 C0 0.99 0 1.98 0 3 C-7.42857143 7.42857143 -7.42857143 7.42857143 -11 8 C-8.80861021 5.64270057 -6.56068027 3.97942902 -3.8125 2.3125 C-3.09707031 1.87550781 -2.38164062 1.43851563 -1.64453125 0.98828125 C-1.10183594 0.66214844 -0.55914062 0.33601562 0 0 Z " fill="#021B08" transform="translate(175,194)"/>
<path d="M0 0 C-1.12073862 0.83905565 -2.24674547 1.67107831 -3.375 2.5 C-4.00148437 2.9640625 -4.62796875 3.428125 -5.2734375 3.90625 C-7 5 -7 5 -9 5 C-9 3 -9 3 -7.6875 1.4375 C-4.86835321 -0.96399542 -3.50776556 -1.16925519 0 0 Z " fill="#03270E" transform="translate(160,182)"/>
<path d="M0 0 C0.886875 0.804375 1.77375 1.60875 2.6875 2.4375 C5.38287032 4.7039159 7.42063478 5.68417366 11 6 C11 6.33 11 6.66 11 7 C7.18634321 7.35475877 5.41557542 7.2619932 2.125 5.1875 C0 3 0 3 0 0 Z " fill="#4AA268" transform="translate(129,89)"/>
<path d="M0 0 C0.66 0.33 1.32 0.66 2 1 C1.1875 3.4375 1.1875 3.4375 0 6 C-0.99 6.33 -1.98 6.66 -3 7 C-2.25 2.25 -2.25 2.25 0 0 Z " fill="#49A767" transform="translate(93,64)"/>
<path d="M0 0 C-2.31 1.65 -4.62 3.3 -7 5 C-7.33 3.68 -7.66 2.36 -8 1 C-4.59449725 -1.06762667 -4.18836538 -1.04709135 0 0 Z " fill="#04220C" transform="translate(101,57)"/>
<path d="M0 0 C1.5 1.375 1.5 1.375 3 3 C3 3.66 3 4.32 3 5 C3.66 5 4.32 5 5 5 C5.33 6.32 5.66 7.64 6 9 C5.01 9.495 5.01 9.495 4 10 C0 3.375 0 3.375 0 0 Z " fill="#042A0E" transform="translate(67,134)"/>
<path d="M0 0 C1.32 1.32 2.64 2.64 4 4 C3.67 4.66 3.34 5.32 3 6 C1.68 5.67 0.36 5.34 -1 5 C-0.67 3.35 -0.34 1.7 0 0 Z " fill="#011114" transform="translate(122,131)"/>
<path d="M0 0 C2.4375 1.1875 2.4375 1.1875 5 3 C5.8125 5.6875 5.8125 5.6875 6 8 C2.24623848 6.74874616 1.75926711 5.4347596 0 2 C0 1.34 0 0.68 0 0 Z " fill="#001506" transform="translate(195,109)"/>
<path d="M0 0 C3.65316671 1.24976756 4.78065836 1.67098753 7 5 C5.35 5 3.7 5 2 5 C1.34 3.35 0.68 1.7 0 0 Z " fill="#062611" transform="translate(97,105)"/>
<path d="M0 0 C1.32 0.66 2.64 1.32 4 2 C3.67 2.99 3.34 3.98 3 5 C1.35 5 -0.3 5 -2 5 C-1.34 3.35 -0.68 1.7 0 0 Z " fill="#39B061" transform="translate(114,138)"/>
<path d="M0 0 C1.14926266 0.95421808 2.29430541 1.91352045 3.4375 2.875 C4.07558594 3.40867187 4.71367188 3.94234375 5.37109375 4.4921875 C7 6 7 6 8 8 C4.11137013 6.73882275 2.10624401 5.54735833 0 2 C0 1.34 0 0.68 0 0 Z " fill="#00270A" transform="translate(115,121)"/>
<path d="M0 0 C0.66 0 1.32 0 2 0 C2 0.99 2 1.98 2 3 C-0.375 4.75 -0.375 4.75 -3 6 C-3.66 5.67 -4.32 5.34 -5 5 C-4.34 4.01 -3.68 3.02 -3 2 C-2.34 2.33 -1.68 2.66 -1 3 C-0.67 2.01 -0.34 1.02 0 0 Z " fill="#41995F" transform="translate(154,77)"/>
<path d="M0 0 C0.33 0.99 0.66 1.98 1 3 C-2 5 -2 5 -4.1875 4.625 C-4.785625 4.41875 -5.38375 4.2125 -6 4 C-6 3.34 -6 2.68 -6 2 C-4.02 2 -2.04 2 0 2 C0 1.34 0 0.68 0 0 Z " fill="#011D07" transform="translate(112,176)"/>
<path d="M0 0 C2.31 1.65 4.62 3.3 7 5 C6.01 5.66 5.02 6.32 4 7 C1 5 1 5 0.3125 2.375 C0.209375 1.59125 0.10625 0.8075 0 0 Z " fill="#072810" transform="translate(59,158)"/>
<path d="M0 0 C0.66 0.33 1.32 0.66 2 1 C-0.71182212 3.60334924 -1.89133813 3.99456691 -5.75 4.1875 C-6.8225 4.125625 -7.895 4.06375 -9 4 C-6.06195683 2.47657021 -3.13439441 1.07229283 0 0 Z " fill="#48A367" transform="translate(101,149)"/>
<path d="M0 0 C1.98 0.99 1.98 0.99 4 2 C4 3.32 4 4.64 4 6 C3.01 5.67 2.02 5.34 1 5 C0.67 3.35 0.34 1.7 0 0 Z " fill="#44AA64" transform="translate(203,114)"/>
<path d="M0 0 C0.99 0.33 1.98 0.66 3 1 C2.2884375 1.804375 2.2884375 1.804375 1.5625 2.625 C-0.28186076 5.42842836 -0.62456847 7.69620258 -1 11 C-1.33 11 -1.66 11 -2 11 C-2.28571429 3.57142857 -2.28571429 3.57142857 0 0 Z " fill="#02290F" transform="translate(129,77)"/>
<path d="M0 0 C6.625 0.75 6.625 0.75 10 3 C7.36 3 4.72 3 2 3 C2 2.34 2 1.68 2 1 C1.34 0.67 0.68 0.34 0 0 Z " fill="#012209" transform="translate(142,65)"/>
<path d="M0 0 C6.52307692 0.61538462 6.52307692 0.61538462 8.9375 2.5625 C9.288125 3.036875 9.63875 3.51125 10 4 C5.78087253 3.5205537 3.20336822 2.83374881 0 0 Z " fill="#032309" transform="translate(164,52)"/>
</svg>
