<?xml version="1.0" encoding="UTF-8"?>
<svg version="1.1" xmlns="http://www.w3.org/2000/svg" width="786" height="225">
<path d="M0 0 C259.38 0 518.76 0 786 0 C786 74.25 786 148.5 786 225 C526.62 225 267.24 225 0 225 C0 150.75 0 76.5 0 0 Z " fill="#EFF7FC" transform="translate(0,0)"/>
<path d="M0 0 C0.33 0.33 0.66 0.66 1 1 C2.58126231 1.24304587 4.16509631 1.46945852 5.75 1.6875 C9.49517409 2.38938527 11.61336145 3.03069043 14.0625 6 C16.97720556 10.51309247 17.16427428 12.50732558 16.5078125 17.7421875 C15.78070655 20.9750124 14.38888692 22.7476209 12 25 C7.78099699 27.50835683 3.80264753 27.73492471 -1 27 C-4.0625 25 -4.0625 25 -6 23 C-15.94431264 26.31696355 -15.94431264 26.31696355 -23.1796875 33.18359375 C-23.68152733 35.79404126 -23.73473184 37.43984744 -23 40 C-20.9774263 42.5166375 -18.71497893 44.27351714 -16 46 C-15.46632813 45.61328125 -14.93265625 45.2265625 -14.3828125 44.828125 C-2.63783557 36.61883317 8.85170561 33.25421284 23.16796875 35.49609375 C36.75235735 38.60661999 47.41527006 45.14915056 54.95703125 57.1015625 C56.47782052 60.0247341 57.79692972 62.93369091 59 66 C59.26425781 66.66257812 59.52851563 67.32515625 59.80078125 68.0078125 C63.61141764 79.98409828 61.09780961 92.78076228 55.64453125 103.71875 C49.78000606 114.1585482 41.73724968 120.78831145 30.6875 125.375 C28.01399091 125.9967463 25.73120217 126.04574878 23 126 C22.82984375 125.35933594 22.6596875 124.71867188 22.484375 124.05859375 C20.92028783 118.4761337 18.99091478 113.95047964 16 109 C16 108.34 16 107.68 16 107 C16.68964844 106.87625 17.37929687 106.7525 18.08984375 106.625 C26.63636572 104.74922014 32.48974223 101.18948919 37.4453125 93.86328125 C40.39078075 88.12682735 41.09824431 82.33406018 40 76 C37.50760884 68.40055828 34.18087139 63.03192199 27.16015625 59.046875 C20.21251246 55.67984329 13.98615041 54.9673234 6.5625 57.0625 C-2.19170788 60.28140118 -8.6937481 67.38444964 -15 74 C-18.81316478 72.41043716 -21.372784 69.99239303 -24.3125 67.125 C-25.21613281 66.26132813 -26.11976562 65.39765625 -27.05078125 64.5078125 C-29 62 -29 62 -28.953125 59.9140625 C-27.93136243 57.86216225 -26.81314847 56.08419796 -25.4375 54.25 C-24.98246094 53.63640625 -24.52742188 53.0228125 -24.05859375 52.390625 C-23.53458984 51.70226562 -23.53458984 51.70226562 -23 51 C-26.63916195 47.26507063 -28.73011012 45.74677732 -34 45.5 C-39.29662211 45.23636723 -41.3729125 43.81309199 -45 40 C-46.60540839 36.78918322 -46.48463309 33.48289645 -46 30 C-43 24.5 -43 24.5 -40 23 C-38.39818997 22.90360789 -36.79220049 22.8701883 -35.1875 22.875 C-34.33542969 22.87242188 -33.48335938 22.86984375 -32.60546875 22.8671875 C-30 23 -30 23 -27.5 23.69140625 C-24.06311783 24.11564639 -22.65323441 22.95775548 -19.8125 21.0625 C-15.1594533 18 -15.1594533 18 -13 18 C-13 17.34 -13 16.68 -13 16 C-13.86625 15.71382812 -14.7325 15.42765625 -15.625 15.1328125 C-17.73779914 14.42365538 -19.8435296 13.69265012 -21.9375 12.9296875 C-34.1174428 8.73506434 -45.27126649 8.29312809 -57 14 C-61.85142924 16.51979799 -66.27389803 19.11573397 -69 24 C-69.78502869 30.18210092 -68.78295408 33.07124712 -65 38 C-62.6710831 40.57879497 -60.20557352 43.00711671 -57.72460938 45.43896484 C-56.99893265 46.15850845 -56.27325592 46.87805206 -55.52558899 47.61940002 C-53.95576432 49.17496308 -52.38370222 50.72827078 -50.80964661 52.27955246 C-48.31597824 54.73832058 -45.82956672 57.20421543 -43.34509277 59.67227173 C-36.28230415 66.68625821 -29.20840575 73.68895921 -22.12548828 80.68261719 C-17.78758852 84.96684849 -13.45956457 89.2608548 -9.1374054 93.56096268 C-7.49220204 95.19377933 -5.84321701 96.82279501 -4.19035339 98.4478569 C-1.87610386 100.72352044 0.4254185 103.01138313 2.72460938 105.30224609 C3.40524948 105.96536301 4.08588959 106.62847992 4.78715515 107.31169128 C11.57541912 114.12802541 14.84770174 121.04668449 15.3125 130.6875 C15.1412822 140.31850153 10.96798806 146.92531454 4.4140625 153.74609375 C-7.68422799 165.04174685 -22.97264997 169.39933383 -39.1875 169.375 C-40.29794678 169.37338867 -41.40839355 169.37177734 -42.55249023 169.37011719 C-53.32880341 169.20895834 -61.57398765 166.9902536 -71.03125 161.80078125 C-73.45311541 160.8156971 -75.5835285 160.6646629 -78.1875 160.5 C-82.61642997 160.20745931 -84.90885608 159.38093866 -88 156 C-90.67876123 151.52904264 -90.80796874 147.07980347 -90 142 C-88.31712073 138.87822767 -86.2172593 136.60862965 -83 135 C-77.05630204 134.45296939 -73.03226132 134.59582323 -68 138 C-62.15550244 137.2547285 -56.49097544 133.61828963 -52 130 C-50.44869057 126.84973 -50.24279781 124.41728639 -51 121 C-52.48292843 118.26362699 -52.48292843 118.26362699 -55 117 C-58.37264593 117.43040042 -60.64425342 118.95190574 -63.4375 120.8125 C-74.57972499 127.58266599 -86.80996913 130.15826483 -99.609375 127.15234375 C-112.03648373 123.15016354 -121.96757139 116.08285235 -129 105 C-132.1153309 98.91694739 -134.63129268 92.88253658 -135 86 C-135.061875 85.11957031 -135.12375 84.23914063 -135.1875 83.33203125 C-135.7324359 70.16842337 -130.74726026 58.02665356 -121.875 48.3125 C-115.19566989 42.06266118 -107.0120495 37.5597778 -98 36 C-97.67386719 36.89203125 -97.34773438 37.7840625 -97.01171875 38.703125 C-96.57472656 39.87359375 -96.13773438 41.0440625 -95.6875 42.25 C-95.25824219 43.41015625 -94.82898438 44.5703125 -94.38671875 45.765625 C-93.16806175 48.60801373 -91.88281923 50.59264169 -90 53 C-90 53.66 -90 54.32 -90 55 C-90.70125 55.20753906 -91.4025 55.41507812 -92.125 55.62890625 C-100.39221905 58.31350591 -106.80583305 61.9762481 -111.5 69.5 C-114.4289743 76.23795434 -114.3512092 84.88887413 -112.08203125 91.79296875 C-108.47083371 98.76994264 -103.18584681 102.90175445 -96 106 C-87.78296691 107.06927394 -79.9954587 106.67673924 -73 102 C-67.29773372 97.60410576 -62.52929613 92.57451832 -58 87 C-54.26132929 90.12827549 -50.56730154 93.30173921 -47 96.625 C-46.401875 97.17414063 -45.80375 97.72328125 -45.1875 98.2890625 C-44 100 -44 100 -44.1796875 102.0546875 C-45 104 -45 104 -47.125 106.5 C-49.24882028 108.7721574 -49.24882028 108.7721574 -48.875 111.1875 C-48.03225102 113.18733041 -48.03225102 113.18733041 -46 115 C-43.50243663 115.31305658 -43.50243663 115.31305658 -40.6875 115.375 C-35.94493094 115.71686278 -33.31351055 116.3551384 -30 120 C-28.25778289 123.48443422 -28.41324846 127.19887045 -29 131 C-30.70251719 134.07469523 -32.81226508 136.40613254 -36 138 C-43.21489651 138.23655398 -43.21489651 138.23655398 -46.3984375 137.27734375 C-50.12619857 136.87993979 -51.77064649 138.34851626 -54.8125 140.4375 C-55.78832031 141.09621094 -56.76414062 141.75492188 -57.76953125 142.43359375 C-58.50558594 142.95050781 -59.24164063 143.46742188 -60 144 C-48.79271824 150.32205638 -36.11581954 150.44593667 -23.8984375 147.046875 C-17.38109642 144.69290275 -10.4886999 141.21898678 -7 135 C-5.78218622 130.81376514 -5.56838419 128.88121561 -7.5 124.9375 C-9.86151613 122.16271855 -12.24934093 119.98912753 -15.06115723 117.70370483 C-16.98861416 116.01000499 -18.59640176 114.24915527 -20.25195312 112.29150391 C-23.88428025 108.08402628 -27.72108728 104.13409914 -31.65625 100.2109375 C-32.7151947 99.15055771 -32.7151947 99.15055771 -33.79553223 98.0687561 C-35.27668582 96.58692706 -36.75908268 95.10633975 -38.24267578 93.62695312 C-40.49757276 91.37742146 -42.7470693 89.12258868 -44.99609375 86.8671875 C-46.44499194 85.41895005 -47.89420026 83.9710228 -49.34375 82.5234375 C-50.33936951 81.52478165 -50.33936951 81.52478165 -51.35510254 80.50595093 C-54.95740201 76.92146152 -58.6357332 73.51061651 -62.54222107 70.25895691 C-64.41873559 68.63837448 -65.99287502 66.85330793 -67.5625 64.9375 C-69.63325594 62.49778977 -71.51981773 60.56681856 -74 58.5 C-82.76967301 51.19193916 -89.661446 41.35293426 -91.30859375 29.84375 C-91.8057727 20.80413267 -87.78421635 13.31739874 -82.375 6.25 C-75.2814255 -1.32512263 -65.88040875 -6.21058297 -56 -9 C-55.22527344 -9.22429688 -54.45054688 -9.44859375 -53.65234375 -9.6796875 C-34.71549138 -14.29534768 -16.51089211 -9.4596239 0 0 Z " fill="#059640" transform="translate(145,31)"/>
<path d="M0 0 C6.39719347 3.57998744 10.49035297 9.03415718 12.6875 16 C13.61953361 25.68333871 13.89458182 34.95723985 7.6875 43 C3.45529428 47.59854699 -0.84502032 50.59372854 -7.1796875 51.3359375 C-16.3282921 51.45475055 -20.02256221 49.46745334 -27.3125 44 C-27.3125 52.25 -27.3125 60.5 -27.3125 69 C-31.6025 69 -35.8925 69 -40.3125 69 C-40.3125 46.23 -40.3125 23.46 -40.3125 0 C-36.0225 0 -31.7325 0 -27.3125 0 C-26.9825 1.32 -26.6525 2.64 -26.3125 4 C-25.84199219 3.65066406 -25.37148438 3.30132812 -24.88671875 2.94140625 C-24.26410156 2.48636719 -23.64148438 2.03132813 -23 1.5625 C-22.38511719 1.11003906 -21.77023437 0.65757813 -21.13671875 0.19140625 C-14.92291354 -3.86686054 -6.47394444 -2.92308401 0 0 Z " fill="#071018" transform="translate(546.3125,64)"/>
<path d="M0 0 C4.26238741 2.8840827 7.78442641 6.80322782 10.08984375 11.4140625 C10.22761225 15.08421525 10.13256336 18.74017598 10.08984375 22.4140625 C5.79984375 22.4140625 1.50984375 22.4140625 -2.91015625 22.4140625 C-3.17828125 21.1559375 -3.44640625 19.8978125 -3.72265625 18.6015625 C-4.51671285 15.4140729 -5.13299682 13.3812171 -7.91015625 11.4140625 C-12.1117763 9.31325247 -17.34555609 9.87990716 -21.91015625 10.4140625 C-25.35828305 12.27339153 -25.35828305 12.27339153 -26.91015625 15.4140625 C-27.48639163 18.54158842 -27.48639163 18.54158842 -25.91015625 21.4140625 C-20.12320049 25.40478493 -13.16644225 26.85348409 -6.4453125 28.48046875 C1.38219178 30.49401755 6.23621629 34.03500927 11.08984375 40.4140625 C13.43545439 45.10528378 12.73178693 51.79424032 11.51171875 56.7734375 C8.69505015 63.37980567 3.00309069 66.45071524 -3.18359375 69.5546875 C-11.39903439 72.1440814 -22.9800948 71.6054808 -30.7578125 67.8828125 C-36.35117586 64.06592571 -40.86988366 58.91869393 -42.91015625 52.4140625 C-43.1511964 49.38177738 -43.00118567 46.46354817 -42.91015625 43.4140625 C-38.29015625 43.4140625 -33.67015625 43.4140625 -28.91015625 43.4140625 C-28.66265625 44.8165625 -28.41515625 46.2190625 -28.16015625 47.6640625 C-27.26610153 51.66842026 -26.37465597 53.96853329 -22.91015625 56.4140625 C-17.33473721 58.14759615 -11.83200608 58.16907493 -6.41015625 56.0390625 C-3.81993069 54.65544518 -3.81993069 54.65544518 -2.91015625 52.4140625 C-2.55541841 49.15047436 -2.39812566 47.18136199 -4.25 44.40625 C-8.33159839 41.34954636 -12.87625077 40.57888753 -17.78515625 39.4140625 C-27.62017857 37.06192838 -33.75242412 34.68301708 -39.91015625 26.4140625 C-41.74481736 20.91007916 -42.00420555 14.542839 -40.07421875 9.0234375 C-32.4492168 -4.38428405 -13.03060217 -6.19232035 0 0 Z " fill="#05933E" transform="translate(484.91015625,44.5859375)"/>
<path d="M0 0 C2.13162799 1.90670801 3.36712999 3.57543544 5 6 C5.598125 6.845625 6.19625 7.69125 6.8125 8.5625 C8 12 8 12 8 25 C-3.88 25 -15.76 25 -28 25 C-25.3499637 32.04355946 -25.3499637 32.04355946 -20 36 C-16.84008034 36.68306534 -14.15079219 36.75922703 -11 36 C-9.02478872 34.54162899 -7.36924013 32.93082285 -5.62109375 31.2109375 C-5.08613281 30.81132813 -4.55117188 30.41171875 -4 30 C-0.875 30.5 -0.875 30.5 2 32 C2.94875 32.37125 3.8975 32.7425 4.875 33.125 C5.57625 33.41375 6.2775 33.7025 7 34 C5.65486964 39.54866272 1.47386216 42.79977788 -3 46 C-9.47775269 49.32671028 -18.63839804 49.28010708 -25.58203125 47.2421875 C-27.53143902 46.29543879 -29.23783097 45.25680884 -31 44 C-31.886875 43.46375 -32.77375 42.9275 -33.6875 42.375 C-39.630663 36.27121097 -41.51805618 29.85075872 -41.625 21.5 C-41.49553301 13.43957877 -40.01069471 7.00230414 -34.1328125 1.13671875 C-23.87851819 -7.22232661 -10.76569447 -7.41723254 0 0 Z " fill="#081118" transform="translate(667,67)"/>
<path d="M0 0 C7.74970685 4.04939637 10.82041545 8.09847312 14.0625 16.25 C14.0625 20.21 14.0625 24.17 14.0625 28.25 C2.1825 28.25 -9.6975 28.25 -21.9375 28.25 C-19.81499989 35.75167117 -19.81499989 35.75167117 -16.75 38.25 C-11.92442434 39.96576024 -7.80099593 40.11963143 -3.125 37.9375 C-1.22844635 36.47444433 0.4570719 35.02442053 2.0625 33.25 C6.11531712 34.47527029 9.50610764 35.94880494 13.0625 38.25 C10.10180853 44.00690009 5.39246371 48.40156048 -0.69921875 50.73828125 C-9.15141378 52.67063299 -17.36560589 52.12146607 -24.8828125 47.734375 C-30.00261966 44.035655 -33.02348352 39.27241865 -34.9375 33.25 C-36.18384003 25.4949954 -36.33375054 16.49659474 -32.5 9.5 C-24.92963074 -0.93629477 -12.06141286 -5.16917694 0 0 Z " fill="#071017" transform="translate(754.9375,63.75)"/>
<path d="M0 0 C4.62 0 9.24 0 14 0 C14 12.54 14 25.08 14 38 C18.08168604 33.97076999 18.08168604 33.97076999 21.55078125 29.66796875 C28.51762359 20.69632519 28.51762359 20.69632519 33.11669922 19.40625 C37.81046846 18.87842003 42.34460884 19.30878075 47 20 C45.56827327 23.26160985 43.80509589 25.4457494 41.3046875 27.96875 C40.58925781 28.70480469 39.87382812 29.44085938 39.13671875 30.19921875 C37.62506184 31.73698373 36.10940664 33.27082819 34.58984375 34.80078125 C33.87699219 35.53683594 33.16414063 36.27289063 32.4296875 37.03125 C31.77210449 37.69705078 31.11452148 38.36285156 30.43701172 39.04882812 C28.60465771 41.13292232 28.60465771 41.13292232 29 45 C30.59771617 47.33196074 32.20338422 49.4574302 34 51.625 C34.74407104 52.54780762 34.74407104 52.54780762 35.50317383 53.48925781 C36.99275873 55.33403113 38.49440313 57.16828289 40 59 C41.56577333 60.91399353 43.12876737 62.83026826 44.6875 64.75 C45.33074219 65.52859375 45.97398437 66.3071875 46.63671875 67.109375 C48 69 48 69 48 71 C42.61099365 72.13379095 37.27065016 72.99905256 32 71 C26.68891449 66.61279634 22.93368695 60.64286961 19.25830078 54.87939453 C18.00428532 52.87483319 18.00428532 52.87483319 16 51 C14.45049732 52.54950268 14.78344807 54.09990594 14.68359375 56.25390625 C14.64169922 57.10791016 14.59980469 57.96191406 14.55664062 58.84179688 C14.49766602 60.18854492 14.49766602 60.18854492 14.4375 61.5625 C14.39431641 62.46419922 14.35113281 63.36589844 14.30664062 64.29492188 C14.20022016 66.52975156 14.09957519 68.76485486 14 71 C9.38 71 4.76 71 0 71 C0 47.57 0 24.14 0 0 Z " fill="#0F161E" transform="translate(390,43)"/>
<path d="M0 0 C4.29 0 8.58 0 13 0 C13.33 8.25 13.66 16.5 14 25 C15.65 23.68 17.3 22.36 19 21 C23.91321248 18.54339376 31.25299187 19.31542813 36.4609375 20.61328125 C41.80220544 22.93601654 44.62150931 26.77344535 47 32 C48.33559568 35.93337664 48.12607238 39.94552698 48.09765625 44.046875 C48.0962413 44.81807678 48.09482635 45.58927856 48.09336853 46.3838501 C48.08778534 48.83927338 48.07523595 51.29460442 48.0625 53.75 C48.05748283 55.41796743 48.0529203 57.08593629 48.04882812 58.75390625 C48.03782141 62.83597287 48.02056836 66.91797081 48 71 C43.71 71 39.42 71 35 71 C34.99589111 69.99622314 34.99178223 68.99244629 34.98754883 67.95825195 C34.96571688 64.22108156 34.91138706 60.48495799 34.84741211 56.74829102 C34.82426714 55.13348451 34.80984457 53.51852779 34.80444336 51.90356445 C34.79512726 49.57668852 34.75408632 47.25216324 34.70703125 44.92578125 C34.7109639 44.20787918 34.71489655 43.48997711 34.71894836 42.75032043 C34.60548926 38.8207264 34.10940513 37.13456264 31.59838867 34.04614258 C28.18212977 31.35595505 26.35218998 31.27621653 22.15625 31.5 C18.70628222 32.29999253 17.09072004 34.25592995 15 37 C13.52793987 39.94412027 13.76192808 42.96285915 13.68359375 46.1953125 C13.66281265 46.90275604 13.64203156 47.61019958 13.62062073 48.33908081 C13.55518922 50.60095425 13.49627026 52.86294462 13.4375 55.125 C13.39430867 56.65756422 13.35069418 58.19011657 13.30664062 59.72265625 C13.19951445 63.48165073 13.0982291 67.24076292 13 71 C8.71 71 4.42 71 0 71 C0 47.57 0 24.14 0 0 Z " fill="#060F17" transform="translate(569,43)"/>
<path d="M0 0 C4.29 0 8.58 0 13 0 C13 1.98 13 3.96 13 6 C13.41507812 5.566875 13.83015625 5.13375 14.2578125 4.6875 C19.74498626 -0.27161938 24.37432956 -0.79949751 31.65234375 -0.44921875 C37.05818087 0.2761853 40.86001125 1.63418329 44.5546875 5.71875 C48.63302 11.15652666 49.14131804 15.67119428 49.09765625 22.38671875 C49.0962413 23.20372757 49.09482635 24.02073639 49.09336853 24.86250305 C49.08777294 27.47087268 49.07522129 30.07915634 49.0625 32.6875 C49.05748443 34.45637897 49.05292162 36.22525928 49.04882812 37.99414062 C49.03780496 42.32946019 49.02054338 46.66471552 49 51 C44.38 51 39.76 51 35 51 C34.9906543 49.96069336 34.98130859 48.92138672 34.97167969 47.85058594 C34.93175877 43.98866162 34.86599522 40.1275322 34.79248047 36.26611328 C34.76428282 34.59596989 34.74306221 32.92569335 34.72900391 31.25537109 C34.70755663 28.85184628 34.66090155 26.44992017 34.609375 24.046875 C34.60814636 23.30193787 34.60691772 22.55700073 34.60565186 21.78948975 C34.50698356 18.28469922 34.26520637 16.344438 32.09838867 13.53027344 C29.0334534 11.29513507 26.8725248 11.44388691 23.19140625 11.6015625 C19.96663548 12.18788446 18.21304875 13.64863571 16 16 C14.50016915 18.9996617 14.76097945 22.11946961 14.68359375 25.4140625 C14.66281265 26.14370209 14.64203156 26.87334167 14.62062073 27.62509155 C14.55518083 29.95829763 14.49626632 32.29161721 14.4375 34.625 C14.39430947 36.20574095 14.35069501 37.78647039 14.30664062 39.3671875 C14.19950519 43.24467504 14.09822218 47.12227685 14 51 C9.38 51 4.76 51 0 51 C0 34.17 0 17.34 0 0 Z " fill="#0F171E" transform="translate(330,63)"/>
<path d="M0 0 C4.62 0 9.24 0 14 0 C14 19.14 14 38.28 14 58 C24.15713092 57.96040178 24.15713092 57.96040178 34.31420898 57.90991211 C35.57048096 57.90741455 36.82675293 57.90491699 38.12109375 57.90234375 C40.06133423 57.89448853 40.06133423 57.89448853 42.04077148 57.88647461 C45 58 45 58 46 59 C46 62.96 46 66.92 46 71 C30.82 71 15.64 71 0 71 C0 47.57 0 24.14 0 0 Z " fill="#0D171F" transform="translate(251,43)"/>
<path d="M0 0 C1.5675 0.061875 3.135 0.12375 4.75 0.1875 C4.75 4.1475 4.75 8.1075 4.75 12.1875 C2.04817708 12.28515625 -0.65364583 12.3828125 -3.35546875 12.48046875 C-7.31460518 13.44754526 -8.70627599 15.02571413 -11.25 18.1875 C-11.75762732 20.95642757 -11.97264271 23.13150312 -11.95703125 25.89453125 C-11.97215256 26.61992599 -11.98727386 27.34532074 -12.00285339 28.09269714 C-12.04562827 30.39545013 -12.05455741 32.69688984 -12.0625 35 C-12.08565261 36.56709196 -12.11101956 38.13415286 -12.13867188 39.70117188 C-12.20142194 43.53006345 -12.23383701 47.35813984 -12.25 51.1875 C-16.54 51.1875 -20.83 51.1875 -25.25 51.1875 C-25.25 34.6875 -25.25 18.1875 -25.25 1.1875 C-21.29 1.1875 -17.33 1.1875 -13.25 1.1875 C-13.25 3.1675 -13.25 5.1475 -13.25 7.1875 C-12.59 7.1875 -11.93 7.1875 -11.25 7.1875 C-11.0025 6.589375 -10.755 5.99125 -10.5 5.375 C-7.92604593 0.87058039 -5.05249227 -0.19944048 0 0 Z " fill="#050E16" transform="translate(710.25,62.8125)"/>
<path d="M0 0 C4.29 0 8.58 0 13 0 C13 16.83 13 33.66 13 51 C8.71 51 4.42 51 0 51 C0 34.17 0 17.34 0 0 Z " fill="#050E15" transform="translate(305,63)"/>
<path d="M0 0 C3.76292473 1.60124457 5.84097382 3.54555811 8 7 C9.74838824 12.24516472 9.45121529 16.57510961 7.8125 21.75 C5.77339763 25.4063215 4.7232328 27.06081625 1 29 C-3.44117324 29.71872422 -7.86261747 30.06869126 -11.9765625 28.01171875 C-15.66377637 25.07829491 -17.73293539 22.05577643 -18.3359375 17.4140625 C-18.41996981 11.41415541 -18.19483258 7.66092508 -14 3 C-9.63227469 -0.8927701 -5.61399073 -0.67440798 0 0 Z " fill="#EBF3F8" transform="translate(537,74)"/>
<path d="M0 0 C1.32 0 2.64 0 4 0 C4 9.9 4 19.8 4 30 C2.35 29.67 0.7 29.34 -1 29 C-1.99 29.66 -2.98 30.32 -4 31 C-8.21178243 31.46797583 -10.28599114 31.46565795 -13.875 29.125 C-17.03371908 25.96628092 -17.20006861 24.06048933 -17.3125 19.6875 C-17.28696011 15.79011267 -17.17420634 14.2903439 -15.125 10.875 C-11.68091992 7.83610582 -9.54852057 7.72708877 -5 8 C-3.68 8.66 -2.36 9.32 -1 10 C-0.67 6.7 -0.34 3.4 0 0 Z " fill="#5C656B" transform="translate(548,144)"/>
<path d="M0 0 C0.99 0 1.98 0 3 0 C3 9.9 3 19.8 3 30 C1.68 29.67 0.36 29.34 -1 29 C-1.61875 29.309375 -2.2375 29.61875 -2.875 29.9375 C-5.77515714 31.38757857 -7.79030742 31.32751965 -11 31 C-14.07832272 29.67072428 -15.58347259 28.69421235 -17.3125 25.8125 C-18.38457546 21.42673676 -19.13073799 17.34224297 -17.125 13.1875 C-14.90620725 10.15125729 -13.07557404 9.02294212 -9.5 7.9375 C-5.66927435 8.00590582 -4.01584266 8.71527072 -1 11 C-0.67 7.37 -0.34 3.74 0 0 Z " fill="#52585B" transform="translate(712,144)"/>
<path d="M0 0 C2.92970081 2.45138231 4.63434275 4.18236398 5.40234375 8 C5.61407629 12.47179133 4.83857782 15.57413022 2 19 C-0.92895597 21.35943675 -2.74681503 21.96835188 -6.5 22.4375 C-10.63857387 21.92017827 -12.15453294 21.00806518 -15 18 C-17.03969799 14.30911793 -17.51184637 11.18007873 -17 7 C-12.92143829 -0.57447174 -8.15897539 -2.45349972 0 0 Z " fill="#525A5F" transform="translate(684,153)"/>
<path d="M0 0 C3.7889742 0.98871656 5.17198005 2.26188819 7.23046875 5.58203125 C7.92032847 9.37911036 7.95946056 12.78899573 7.23046875 16.58203125 C5.02887135 19.47886993 3.44452413 20.97500356 0.23046875 22.58203125 C-3.84862931 22.96685182 -6.06042998 23.02324982 -9.58203125 20.83203125 C-12.78199334 17.54064168 -13.63445363 15.79772987 -14.14453125 11.20703125 C-13.7001377 6.91122693 -12.47361831 4.90419536 -9.76953125 1.58203125 C-6.02790348 -0.91238726 -4.30130635 -0.63852998 0 0 Z " fill="#4E565B" transform="translate(654.76953125,152.41796875)"/>
<path d="M0 0 C2.5625 2.125 2.5625 2.125 4 5 C4 7.31 4 9.62 4 12 C-1.28 12 -6.56 12 -12 12 C-11.67 13.65 -11.34 15.3 -11 17 C-7.7 17 -4.4 17 -1 17 C-0.67 16.34 -0.34 15.68 0 15 C1.32 15 2.64 15 4 15 C2.5435664 18.83968859 0.71785783 20.31006462 -3 22 C-6.05810094 22.52052782 -7.98392341 22.61673486 -10.6796875 20.98046875 C-13.41189986 18.8169226 -14.88759448 17.33721656 -16 14 C-16.67195988 7.16840786 -16.67195988 7.16840786 -14.953125 4.1796875 C-10.35831413 -1.41517044 -6.77007694 -1.7316005 0 0 Z " fill="#7D848A" transform="translate(574,153)"/>
<path d="M0 0 C2.1640625 0.53125 2.1640625 0.53125 4.7265625 2.15625 C6.1640625 4.53125 6.1640625 4.53125 6.1640625 11.53125 C0.8840625 11.53125 -4.3959375 11.53125 -9.8359375 11.53125 C-8.38304764 16.1154463 -8.38304764 16.1154463 -6.8359375 17.53125 C-2.81936607 17.76043242 -2.81936607 17.76043242 1.1640625 17.53125 C1.8240625 16.87125 2.4840625 16.21125 3.1640625 15.53125 C4.1540625 15.53125 5.1440625 15.53125 6.1640625 15.53125 C4.72220203 20.09714147 4.72220203 20.09714147 2.4765625 21.84375 C-0.82085354 22.82406288 -3.41136937 22.89173086 -6.8359375 22.53125 C-10.24512534 20.40997756 -12.61863055 18.40449937 -13.8359375 14.53125 C-14.3160885 10.20989101 -14.12766836 8.0644133 -12.0234375 4.21875 C-8.12255171 -0.57376682 -5.74324891 -0.82313665 0 0 Z " fill="#5A6166" transform="translate(313.8359375,152.46875)"/>
<path d="M0 0 C1.32 0 2.64 0 4 0 C4.33 5.61 4.66 11.22 5 17 C11.32917961 17.52174919 11.32917961 17.52174919 14 16 C15.10514766 12.68455701 15.32107631 9.79589889 15.5625 6.3125 C15.64628906 5.13300781 15.73007812 3.95351562 15.81640625 2.73828125 C15.87699219 1.83464844 15.93757813 0.93101562 16 0 C16.99 0 17.98 0 19 0 C19.04939662 3.95096978 19.08571755 7.9018203 19.10986328 11.85302734 C19.12488107 13.8591136 19.15028981 15.86511324 19.17578125 17.87109375 C19.18222656 19.12792969 19.18867188 20.38476562 19.1953125 21.6796875 C19.20578613 22.84226074 19.21625977 24.00483398 19.22705078 25.20263672 C19 28 19 28 17 30 C14.41935871 30.14497985 11.95056116 30.18677545 9.375 30.125 C8.31539063 30.11146484 8.31539063 30.11146484 7.234375 30.09765625 C5.48943902 30.07407603 3.74467705 30.03820461 2 30 C2 28.68 2 27.36 2 26 C6.62 26 11.24 26 16 26 C15.67 23.69 15.34 21.38 15 19 C14.34 19.66 13.68 20.32 13 21 C10.94140625 21.30078125 10.94140625 21.30078125 8.5625 21.3125 C7.38880859 21.33763672 7.38880859 21.33763672 6.19140625 21.36328125 C3.48074592 20.91392045 2.65279365 20.15823513 1 18 C-0.2062252 14.38132441 -0.10816918 11.07493749 -0.0625 7.3125 C-0.05798828 6.61060547 -0.05347656 5.90871094 -0.04882812 5.18554688 C-0.03706927 3.45699462 -0.01913454 1.72848635 0 0 Z " fill="#4F565C" transform="translate(343,153)"/>
<path d="M0 0 C5.94 0 11.88 0 18 0 C18 0.99 18 1.98 18 3 C13.05 3 8.1 3 3 3 C3 6.3 3 9.6 3 13 C7.62 13 12.24 13 17 13 C17 14.32 17 15.64 17 17 C12.38 17 7.76 17 3 17 C3 20.3 3 23.6 3 27 C8.28 27 13.56 27 19 27 C19 27.99 19 28.98 19 30 C12.73 30 6.46 30 0 30 C0 20.1 0 10.2 0 0 Z " fill="#41494E" transform="translate(254,144)"/>
<path d="M0 0 C3.80470451 0.7133821 5.41196019 1.67868421 8 4.5625 C8.92995212 8.03432124 9.34268246 10.40984082 8.3125 13.875 C5.96517443 16.89299002 3.78565918 17.44548693 0.0625 18 C-3 17.5625 -3 17.5625 -5.875 15.5 C-8 12.5625 -8 12.5625 -8.625 9.0625 C-7.67703424 3.75389177 -5.38444917 1.00958422 0 0 Z " fill="#0B1119" transform="translate(311,40.4375)"/>
<path d="M0 0 C1.32 0 2.64 0 4 0 C4 5.61 4 11.22 4 17 C5.299375 15.865625 6.59875 14.73125 7.9375 13.5625 C9.03384766 12.60537109 9.03384766 12.60537109 10.15234375 11.62890625 C11.12139353 10.77458541 12.08651175 9.91348825 13 9 C14.66617115 8.95936168 16.33388095 8.957279 18 9 C17.06409496 10.1055189 16.12620142 11.20935453 15.1875 12.3125 C14.40439453 13.23482422 14.40439453 13.23482422 13.60546875 14.17578125 C12.12827531 15.85424679 10.59960869 17.43882034 9 19 C9.56589844 19.54269531 10.13179688 20.08539063 10.71484375 20.64453125 C11.44832031 21.35996094 12.18179687 22.07539063 12.9375 22.8125 C13.66839844 23.52019531 14.39929688 24.22789062 15.15234375 24.95703125 C17 27 17 27 18 30 C13.88660367 29.87535163 12.07291148 28.3239356 9.3125 25.5 C8.73113281 24.8709375 8.14976562 24.241875 7.55078125 23.59375 C6.0715957 21.89864768 6.0715957 21.89864768 4 21 C4 23.97 4 26.94 4 30 C2.68 30 1.36 30 0 30 C0 20.1 0 10.2 0 0 Z " fill="#575E64" transform="translate(431,144)"/>
<path d="M0 0 C1.77734375 1.3671875 1.77734375 1.3671875 3 3 C3 3.99 3 4.98 3 6 C0.13275314 5.42655063 -0.8614515 5.1385485 -3 3 C-5.58354218 2.83312552 -5.58354218 2.83312552 -8 3 C-8.33 4.32 -8.66 5.64 -9 7 C-7.84371094 7.29003906 -7.84371094 7.29003906 -6.6640625 7.5859375 C-5.66117188 7.84632813 -4.65828125 8.10671875 -3.625 8.375 C-2.62726562 8.63023437 -1.62953125 8.88546875 -0.6015625 9.1484375 C2 10 2 10 4 12 C4.4375 14.875 4.4375 14.875 4 18 C1.90004464 20.49369699 0.29842946 21.74345547 -2.9375 22.3828125 C-6.70787238 22.5970382 -8.63640274 22.21661114 -11.9375 20.25 C-13.9610478 18.04249331 -14.6858889 16.93170364 -15 14 C-10.35776398 14.62732919 -10.35776398 14.62732919 -8.5 16.5625 C-7.02124974 18.28656977 -7.02124974 18.28656977 -4.3125 18.1875 C-3.549375 18.125625 -2.78625 18.06375 -2 18 C-1.34 16.35 -0.68 14.7 0 13 C-0.68707031 12.87882813 -1.37414062 12.75765625 -2.08203125 12.6328125 C-2.98308594 12.46523437 -3.88414062 12.29765625 -4.8125 12.125 C-5.70582031 11.96257812 -6.59914063 11.80015625 -7.51953125 11.6328125 C-10 11 -10 11 -13 9 C-13.46251613 5.36594473 -13.75039359 3.04402587 -11.5625 0 C-7.69554849 -1.50905425 -3.96401877 -1.15343456 0 0 Z " fill="#4F555B" transform="translate(614,153)"/>
<path d="M0 0 C0.66 0 1.32 0 2 0 C-1.17681872 13.0974105 -7.55253909 23.15113002 -19.0625 30.3125 C-24.43933235 33.36751838 -28.77987347 35.10418972 -35 35 C-35.25523437 34.03900391 -35.25523437 34.03900391 -35.515625 33.05859375 C-37.07971217 27.4761337 -39.00908522 22.95047964 -42 18 C-42 17.34 -42 16.68 -42 16 C-41.31035156 15.87625 -40.62070313 15.7525 -39.91015625 15.625 C-30.45524553 13.54984813 -24.58900928 8.80714734 -19 1 C-19.2381543 7.07293476 -19.2381543 7.07293476 -21.296875 9.578125 C-23.95996223 11.87207143 -25.42610954 13 -29 13 C-29.33 13.99 -29.66 14.98 -30 16 C-33.5625 17.6875 -33.5625 17.6875 -37 19 C-36.7834375 19.67546875 -36.566875 20.3509375 -36.34375 21.046875 C-36.0653125 21.93890625 -35.786875 22.8309375 -35.5 23.75 C-35.2215625 24.63171875 -34.943125 25.5134375 -34.65625 26.421875 C-34 29 -34 29 -34 33 C-32.02 33 -30.04 33 -28 33 C-28 32.34 -28 31.68 -28 31 C-26.68 31 -25.36 31 -24 31 C-24 30.34 -24 29.68 -24 29 C-22.68 29 -21.36 29 -20 29 C-20 28.34 -20 27.68 -20 27 C-17 25 -17 25 -14 25 C-13.73316406 24.41347656 -13.46632812 23.82695312 -13.19140625 23.22265625 C-11.62827881 20.30652669 -9.55686485 18.11743843 -7.33984375 15.68359375 C-5.78521084 13.92781556 -5.78521084 13.92781556 -5 11 C-4.34 11 -3.68 11 -3 11 C-2.814375 9.948125 -2.814375 9.948125 -2.625 8.875 C-1.96161655 5.82343613 -1.02788045 2.94659062 0 0 Z " fill="#2A9455" transform="translate(203,122)"/>
<path d="M0 0 C0.99 0 1.98 0 3 0 C3.06058594 1.05960938 3.12117188 2.11921875 3.18359375 3.2109375 C3.26800127 4.59897221 3.35264917 5.98699232 3.4375 7.375 C3.47681641 8.07367188 3.51613281 8.77234375 3.55664062 9.4921875 C3.74280134 13.37360492 3.74280134 13.37360492 5 17 C8.41656024 17.16677282 8.41656024 17.16677282 12 17 C14.84614024 14.15385976 14.45579076 11.19630858 14.625 7.375 C14.68300781 6.31539062 14.68300781 6.31539062 14.7421875 5.234375 C14.83647724 3.49001476 14.91932891 1.74504309 15 0 C16.32 0 17.64 0 19 0 C19 6.93 19 13.86 19 21 C17.35 20.67 15.7 20.34 14 20 C13.38125 20.33 12.7625 20.66 12.125 21 C8.82665825 22.55216082 6.45649507 21.87983511 3 21 C0.96580755 19.1990865 0.09669861 17.79315042 -0.23413086 15.07958984 C-0.29552543 12.79550793 -0.26134904 10.5336395 -0.1875 8.25 C-0.17396484 7.45722656 -0.16042969 6.66445312 -0.14648438 5.84765625 C-0.11125223 3.89814436 -0.05744821 1.94898374 0 0 Z " fill="#4F565D" transform="translate(479,153)"/>
<path d="M0 0 C2.88174413 2.2513626 2.97404512 3.82156019 3.5 7.4375 C3 11 3 11 0.875 14 C-2 16 -2 16 -5.125 16.0625 C-8.49548101 14.81688745 -9.49633631 14.25793799 -11 11 C-11.5096485 7.48908811 -11.62529316 4.25058632 -10 1 C-6.73582328 -0.63208836 -3.56124386 -0.65289471 0 0 Z " fill="#EAF2F6" transform="translate(656,156)"/>
<path d="M0 0 C2.5290973 0.5659875 3.42018122 1.34378966 4.9375 3.43359375 C5.3359375 5.58984375 5.3359375 5.58984375 5.3125 7.93359375 C5.32023438 8.70703125 5.32796875 9.48046875 5.3359375 10.27734375 C4.83916893 12.96573836 4.14164848 13.8428169 1.9375 15.43359375 C-0.78800267 16.04353487 -3.32069003 15.93625891 -6.0625 15.43359375 C-8.0625 13.87109375 -8.0625 13.87109375 -9.0625 11.43359375 C-9.44717994 7.84324762 -9.43748501 5.34761971 -8.0625 1.99609375 C-5.36320449 -0.11273087 -3.34710752 -0.00633922 0 0 Z " fill="#EBF3F9" transform="translate(680.0625,155.56640625)"/>
<path d="M0 0 C2.475 0.495 2.475 0.495 5 1 C5.33 0.67 5.66 0.34 6 0 C7.92578125 -0.23828125 7.92578125 -0.23828125 10.3125 -0.3125 C11.09238281 -0.34988281 11.87226562 -0.38726562 12.67578125 -0.42578125 C15 0 15 0 17.27734375 1.47265625 C19.80322029 5.17842069 19.43850336 8.37817218 19.25 12.75 C19.23195313 13.54277344 19.21390625 14.33554688 19.1953125 15.15234375 C19.14833082 17.10208348 19.07659044 19.05119878 19 21 C18.01 21 17.02 21 16 21 C15.67 15.39 15.34 9.78 15 4 C12.36 4 9.72 4 7 4 C4.15385976 6.84614024 4.54420924 9.80369142 4.375 13.625 C4.33632813 14.33140625 4.29765625 15.0378125 4.2578125 15.765625 C4.16352276 17.50998524 4.08067109 19.25495691 4 21 C2.68 21 1.36 21 0 21 C0 14.07 0 7.14 0 0 Z " fill="#515A5F" transform="translate(505,153)"/>
<path d="M0 0 C2.71765949 1.3871387 3.90005139 2.63755781 6 5 C6.33 6.65 6.66 8.3 7 10 C-0.59 10 -8.18 10 -16 10 C-15.04719453 5.23597264 -14.63468743 3.80390995 -10.875 0.95703125 C-7.29440745 -0.87056286 -3.87416447 -0.86476886 0 0 Z " fill="#DDE3E6" transform="translate(749,73)"/>
<path d="M0 0 C2.71765949 1.3871387 3.90005139 2.63755781 6 5 C6.33 6.65 6.66 8.3 7 10 C-0.59 10 -8.18 10 -16 10 C-15.04719453 5.23597264 -14.63468743 3.80390995 -10.875 0.95703125 C-7.29440745 -0.87056286 -3.87416447 -0.86476886 0 0 Z " fill="#DDE5E8" transform="translate(655,73)"/>
<path d="M0 0 C2.5290973 0.5659875 3.42018122 1.34378966 4.9375 3.43359375 C5.3359375 5.58984375 5.3359375 5.58984375 5.3125 7.93359375 C5.32023438 8.70703125 5.32796875 9.48046875 5.3359375 10.27734375 C4.84164847 12.95231968 4.11640019 13.83707241 1.9375 15.43359375 C-4.17014873 16.08798468 -4.17014873 16.08798468 -6.9375 14.05859375 C-9.22911927 10.74847703 -9.38372378 8.448891 -9.0625 4.43359375 C-7.1521207 -0.10355708 -4.45648794 -0.00844032 0 0 Z " fill="#F1F6F8" transform="translate(543.0625,155.56640625)"/>
<path d="M0 0 C2.475 0.495 2.475 0.495 5 1 C5.33 0.67 5.66 0.34 6 0 C7.92578125 -0.2734375 7.92578125 -0.2734375 10.3125 -0.375 C11.09238281 -0.42398438 11.87226563 -0.47296875 12.67578125 -0.5234375 C15 0 15 0 17.27734375 2.00390625 C19.54450803 5.94702416 19.45683654 8.86153673 19.25 13.3125 C19.23195313 14.05306641 19.21390625 14.79363281 19.1953125 15.55664062 C19.14847337 17.3716571 19.07673789 19.18600166 19 21 C17.68 21 16.36 21 15 21 C14.93941406 19.85660156 14.87882812 18.71320313 14.81640625 17.53515625 C14.73201572 16.04425695 14.64736698 14.55337225 14.5625 13.0625 C14.52318359 12.30775391 14.48386719 11.55300781 14.44335938 10.77539062 C14.55961976 7.08055813 14.55961976 7.08055813 13 4 C8.97509042 3.58792507 8.97509042 3.58792507 5.34765625 5.06640625 C3.30967476 7.99046665 3.47389388 10.6691135 3.3125 14.1875 C3.24675781 15.45980469 3.18101562 16.73210937 3.11328125 18.04296875 C3.05720703 19.50669922 3.05720703 19.50669922 3 21 C2.01 21 1.02 21 0 21 C0 14.07 0 7.14 0 0 Z " fill="#41484F" transform="translate(405,153)"/>
<path d="M0 0 C2.4375 1.5625 2.4375 1.5625 4 4 C4.56288002 7.94016013 4.60396028 10.05782196 2.4375 13.4375 C-0.92759017 15.59460908 -3.08204004 15.56988508 -7 15 C-9.30089518 13.21866179 -9.86901281 11.9169103 -10.27734375 9.05859375 C-10.4139842 6.09076326 -10.34680579 3.6528109 -8.9375 1 C-5.82090489 -0.60856522 -3.43737531 -0.42213381 0 0 Z " fill="#F3F7F9" transform="translate(708,156)"/>
<path d="M0 0 C1.32 0 2.64 0 4 0 C4 2.31 4 4.62 4 7 C5.98 7 7.96 7 10 7 C10 7.99 10 8.98 10 10 C8.02 10 6.04 10 4 10 C4 14.95 4 19.9 4 25 C5.98 25 7.96 25 10 25 C10 25.99 10 26.98 10 28 C7.03 28 4.06 28 1 28 C-0.59412284 24.81175432 -0.10174735 21.37103338 -0.0625 17.875 C-0.05798828 17.12089844 -0.05347656 16.36679688 -0.04882812 15.58984375 C-0.03703499 13.72652873 -0.01909942 11.86325445 0 10 C-1.98 10 -3.96 10 -6 10 C-6 9.01 -6 8.02 -6 7 C-4.02 7 -2.04 7 0 7 C0 4.69 0 2.38 0 0 Z " fill="#586268" transform="translate(627,146)"/>
<path d="M0 0 C2.475 0.495 2.475 0.495 5 1 C6.65 5.95 8.3 10.9 10 16 C10.78375 14.1025 11.5675 12.205 12.375 10.25 C13.81239108 6.77000055 15.26400675 3.3421926 17 0 C18.32 0.33 19.64 0.66 21 1 C19.85865495 4.14748018 18.71117657 7.29268881 17.5625 10.4375 C17.23701172 11.33533203 16.91152344 12.23316406 16.57617188 13.15820312 C16.26357422 14.01220703 15.95097656 14.86621094 15.62890625 15.74609375 C15.1968689 16.93223267 15.1968689 16.93223267 14.75610352 18.14233398 C14 20 14 20 13 21 C11.33382885 21.04063832 9.66611905 21.042721 8 21 C4.69582578 14.13045202 1.966369 7.36988707 0 0 Z " fill="#454B52" transform="translate(276,153)"/>
<path d="M0 0 C0.67740234 -0.01160156 1.35480469 -0.02320312 2.05273438 -0.03515625 C8.897491 0.00421915 14.49295333 2.4612645 20.0625 6.375 C22.4375 8.8125 22.4375 8.8125 24.0625 11.375 C23.6640625 13.53515625 23.6640625 13.53515625 23.0625 15.375 C22.44375 14.323125 21.825 13.27125 21.1875 12.1875 C17.31116145 6.69602039 11.26820746 4.44356915 5.0625 2.375 C-4.52140119 1.7140413 -11.3252052 4.29876062 -18.71875 10.390625 C-22.27670383 13.57273864 -25.64469116 16.920691 -28.9375 20.375 C-32.14793882 18.99311547 -33.98686365 17.45078097 -36.1875 14.75 C-36.70828125 14.11835937 -37.2290625 13.48671875 -37.765625 12.8359375 C-38.15234375 12.35382813 -38.5390625 11.87171875 -38.9375 11.375 C-35.11642188 12.13441929 -33.63747075 13.58503023 -30.9375 16.375 C-30.2775 16.375 -29.6175 16.375 -28.9375 16.375 C-28.6075 15.715 -28.2775 15.055 -27.9375 14.375 C-26.9475 14.375 -25.9575 14.375 -24.9375 14.375 C-24.6075 13.055 -24.2775 11.735 -23.9375 10.375 C-22.9475 10.375 -21.9575 10.375 -20.9375 10.375 C-20.9375 9.715 -20.9375 9.055 -20.9375 8.375 C-14.25397385 3.1618496 -8.69926845 -0.1481427 0 0 Z " fill="#1F8848" transform="translate(158.9375,84.625)"/>
<path d="M0 0 C2 2 2 2 2.22705078 5.43994141 C2.22673369 6.91051979 2.21540987 8.38112142 2.1953125 9.8515625 C2.1924826 10.62559418 2.18965271 11.39962585 2.18673706 12.19711304 C2.17552754 14.67323157 2.15042203 17.1489905 2.125 19.625 C2.11497118 21.30207812 2.10584516 22.97916189 2.09765625 24.65625 C2.07558574 28.77097223 2.04105102 32.88542511 2 37 C-2.29 37 -6.58 37 -11 37 C-11 25.78 -11 14.56 -11 3 C-10.67 3 -10.34 3 -10 3 C-10 13.56 -10 24.12 -10 35 C-6.7 35 -3.4 35 0 35 C0 23.45 0 11.9 0 0 Z " fill="#181B20" transform="translate(615,77)"/>
<path d="M0 0 C1.32 0 2.64 0 4 0 C4 10.23 4 20.46 4 31 C2.68 31 1.36 31 0 31 C0 20.77 0 10.54 0 0 Z " fill="#5A6167" transform="translate(382,144)"/>
<path d="M0 0 C0.66 0 1.32 0 2 0 C2.78234364 9.92707157 2.78234364 9.92707157 -0.1875 14 C-2.7498559 15.82211975 -5.2556576 17.46827401 -8 19 C-8.58652344 19.41507813 -9.17304688 19.83015625 -9.77734375 20.2578125 C-14.27789103 23.37700368 -17.73223329 24.59605923 -23.21484375 24.859375 C-25.0239399 24.80747558 -25.0239399 24.80747558 -26 26 C-35.36031082 26.89776566 -43.2414516 25.21098992 -52 22 C-52 21.34 -52 20.68 -52 20 C-51.20078125 20.2165625 -50.4015625 20.433125 -49.578125 20.65625 C-35.58094413 24.20483107 -22.37356608 24.44896428 -9.5 17.125 C-5.95679011 14.81025454 -3.10676756 12.75554217 -1 9 C-0.37580083 5.93102073 0 3.12558375 0 0 Z " fill="#1F8F4C" transform="translate(139,157)"/>
<path d="M0 0 C2.5625 2.1875 2.5625 2.1875 4 5 C4 6.98 4 8.96 4 11 C-1.61 11 -7.22 11 -13 11 C-13.33 11.66 -13.66 12.32 -14 13 C-14.33 11.35 -14.66 9.7 -15 8 C-14.34 7.67 -13.68 7.34 -13 7 C-13 7.66 -13 8.32 -13 9 C-8.38 9 -3.76 9 1 9 C-1.23911499 3.98104097 -1.23911499 3.98104097 -3.9375 3.44140625 C-4.9584375 3.50134766 -4.9584375 3.50134766 -6 3.5625 C-6.680625 3.58441406 -7.36125 3.60632813 -8.0625 3.62890625 C-10.31663036 3.93066394 -10.31663036 3.93066394 -13 6 C-13 2 -13 2 -11.5625 0.1875 C-7.61698961 -1.64090725 -4.12011389 -1.23225425 0 0 Z " fill="#3F484F" transform="translate(574,153)"/>
<path d="M0 0 C5.95504316 5.80234974 5.95504316 5.80234974 6.09765625 9.6015625 C6.06510417 12.40104167 6.03255208 15.20052083 6 18 C1.71 18 -2.58 18 -7 18 C-7.268125 16.741875 -7.53625 15.48375 -7.8125 14.1875 C-8.6065566 11.0000104 -9.22284057 8.9671546 -12 7 C-16.18586159 4.9070692 -21.45388287 5.42945927 -26 6 C-28.34350514 7.42908842 -29.32331165 8.76441554 -31 11 C-31.66 11 -32.32 11 -33 11 C-32.67 9.68 -32.34 8.36 -32 7 C-31.34 7 -30.68 7 -30 7 C-30 6.34 -30 5.68 -30 5 C-23.95561561 2.9852052 -17.26940254 3.21870667 -11 4 C-7.90425109 5.79867571 -6.35068987 7.69831365 -5 11 C-4.625 13.9375 -4.625 13.9375 -5 16 C-2.03 16 0.94 16 4 16 C2.98408579 10.53135543 1.92908943 5.23609987 0 0 Z " fill="#198142" transform="translate(489,49)"/>
<path d="M0 0 C0 0.99 0 1.98 0 3 C-0.58652344 3.24621094 -1.17304687 3.49242187 -1.77734375 3.74609375 C-4.34305497 5.19353365 -5.71261038 6.78221101 -7.5625 9.0625 C-10.67024793 12.89008264 -10.67024793 12.89008264 -14 14 C-14.75407101 16.30657014 -15.411438 18.645752 -16 21 C-16.37125 21.804375 -16.7425 22.60875 -17.125 23.4375 C-19.43836309 30.21234905 -17.9498984 37.99187551 -14.875 44.3125 C-14.58625 44.869375 -14.2975 45.42625 -14 46 C-14 46.99 -14 47.98 -14 49 C-13.34 49.33 -12.68 49.66 -12 50 C-12.99 50 -13.98 50 -15 50 C-15.81674796 48.25197854 -16.62823451 46.50149811 -17.4375 44.75 C-17.88996094 43.77546875 -18.34242187 42.8009375 -18.80859375 41.796875 C-21.59251713 35.26150077 -22.3572619 28.69607307 -19.87109375 21.92578125 C-15.0020322 11.79355656 -9.56576036 5.80322795 0 0 Z " fill="#2A9454" transform="translate(75,28)"/>
<path d="M0 0 C4.34530999 0.37785304 7.84555684 1.24387467 11.875 2.9375 C27.00721745 9.14848477 43.72129321 8.75050228 59 3 C59.66 2.34 60.32 1.68 61 1 C63.32275177 0.59952556 65.65739357 0.2602896 68 0 C64.75863529 2.7103832 61.5042382 4.13944318 57.5625 5.625 C56.45003906 6.05039063 55.33757812 6.47578125 54.19140625 6.9140625 C37.85334559 12.4734026 18.43819653 10.11240522 3.1875 2.75 C2.135625 2.1725 1.08375 1.595 0 1 C0 0.67 0 0.34 0 0 Z " fill="#1E8A4A" transform="translate(72,191)"/>
<path d="M0 0 C-1.37115345 3.16736448 -2.87840681 4.9144193 -5.5 7.125 C-8.99102114 10.5646826 -10.43441879 13.51577006 -11.1015625 18.37109375 C-10.91054625 23.31547588 -9.06841256 27.16972647 -6 31 C-3.35295864 32.89144023 -1.08596941 33.84929954 2 35 C2 35.66 2 36.32 2 37 C-2.00298439 36.46906315 -4.17853328 35.42722378 -7.1875 32.75 C-7.86167969 32.16734375 -8.53585937 31.5846875 -9.23046875 30.984375 C-13.44169485 26.26185213 -13.49086515 21.07989099 -13.37890625 15.01171875 C-12.71446571 9.73044393 -10.40578464 6.07050414 -6.40234375 2.625 C-4.26524813 1.11275544 -2.66867781 0 0 0 Z " fill="#238C4D" transform="translate(457,44)"/>
<path d="M0 0 C0.99 0 1.98 0 3 0 C3 0.66 3 1.32 3 2 C3.99 1.34 4.98 0.68 6 0 C8.6875 -0.125 8.6875 -0.125 11 0 C11 0.99 11 1.98 11 3 C9.02 3.66 7.04 4.32 5 5 C4.67 10.28 4.34 15.56 4 21 C2.68 21 1.36 21 0 21 C0 14.07 0 7.14 0 0 Z " fill="#4F585E" transform="translate(327,153)"/>
<path d="M0 0 C4.70699441 -0.47069944 8.61007379 -0.85562871 12.4375 2.25 C15.1443526 5.15491499 16.90116967 7.15846149 17.1171875 11.18359375 C16.57453946 16.23372146 15.84589554 19.37386992 12 23 C7.78875765 25.50374283 3.79564522 25.74905051 -1 25 C-2.7074998 23.71937515 -4.38263741 22.3927289 -6 21 C-8.75124253 21.13149826 -8.75124253 21.13149826 -11 22 C-11 21.01 -11 20.02 -11 19 C-8.3125 18.75 -8.3125 18.75 -5 19 C-4.278125 19.680625 -3.55625 20.36125 -2.8125 21.0625 C1.59477057 24.09861973 5.90462468 22.82097116 11 22 C11.33 20.35 11.66 18.7 12 17 C12.99 17 13.98 17 15 17 C14.8873346 12.29878028 14.64980462 8.94517035 11.9375 5 C8.12853719 2.40666362 5.55128169 2.37927347 1 2 C0.67 1.34 0.34 0.68 0 0 Z " fill="#2A9053" transform="translate(145,33)"/>
<path d="M0 0 C0.32613281 0.89203125 0.65226562 1.7840625 0.98828125 2.703125 C1.64376953 4.45882812 1.64376953 4.45882812 2.3125 6.25 C2.74175781 7.41015625 3.17101562 8.5703125 3.61328125 9.765625 C4.83193825 12.60801373 6.11718077 14.59264169 8 17 C8 17.66 8 18.32 8 19 C6.948125 19.31130859 6.948125 19.31130859 5.875 19.62890625 C-1.13531244 21.90535282 -5.84700431 24.76193126 -11 30 C-11.5671875 30.56589844 -12.134375 31.13179687 -12.71875 31.71484375 C-13.35296875 32.35099609 -13.35296875 32.35099609 -14 33 C-13.69121904 29.39755548 -13.00552268 28.00654002 -10.625 25.1875 C-8 23 -8 23 -5 23 C-5 22.34 -5 21.68 -5 21 C-4.36191406 20.73445313 -3.72382812 20.46890625 -3.06640625 20.1953125 C-2.24011719 19.84210938 -1.41382813 19.48890625 -0.5625 19.125 C0.26121094 18.77695313 1.08492187 18.42890625 1.93359375 18.0703125 C4.15746715 17.1755063 4.15746715 17.1755063 5 15 C4.01 14.67 3.02 14.34 2 14 C1.05078125 11.78515625 1.05078125 11.78515625 0.3125 9.0625 C0.06113281 8.16660156 -0.19023438 7.27070312 -0.44921875 6.34765625 C-1 4 -1 4 -1 2 C-2.32 1.67 -3.64 1.34 -5 1 C-2 0 -2 0 0 0 Z " fill="#258E50" transform="translate(47,67)"/>
<path d="M0 0 C2.35951179 2.35951179 2.34409415 3.01925635 2.4375 6.25 C2.37475235 9.78668586 1.8804695 11.75883943 -0.375 14.5 C-4.05230911 18.00219915 -5.78737907 18.1132974 -10.83203125 18.1328125 C-13 18 -13 18 -15.3671875 17.27734375 C-19.1920123 16.87443194 -21.10076498 18.42575389 -24.3125 20.4375 C-25.38113281 21.09621094 -26.44976562 21.75492188 -27.55078125 22.43359375 C-28.76314453 23.20896484 -28.76314453 23.20896484 -30 24 C-30 23.01 -30 22.02 -30 21 C-29.01 21 -28.02 21 -27 21 C-26.67 20.01 -26.34 19.02 -26 18 C-23.39757586 16.35179805 -22.13751221 16 -19 16 C-19 15.34 -19 14.68 -19 14 C-18.10796875 14.10699219 -17.2159375 14.21398437 -16.296875 14.32421875 C-14.54117188 14.50404297 -14.54117188 14.50404297 -12.75 14.6875 C-11.00976562 14.87892578 -11.00976562 14.87892578 -9.234375 15.07421875 C-5.61840485 14.99124359 -4.62668978 14.34353744 -2 12 C-1.34 12 -0.68 12 0 12 C0 8.04 0 4.08 0 0 Z " fill="#1F8D4C" transform="translate(114,151)"/>
<path d="M0 0 C1.32 0.33 2.64 0.66 4 1 C4.33 0.67 4.66 0.34 5 0 C6.99958364 -0.04080783 9.00045254 -0.04254356 11 0 C11 0.99 11 1.98 11 3 C8.69 3.33 6.38 3.66 4 4 C3.67 9.61 3.34 15.22 3 21 C2.01 21 1.02 21 0 21 C0 14.07 0 7.14 0 0 Z " fill="#424A52" transform="translate(585,153)"/>
<path d="M0 0 C3.73867071 3.12827549 7.43269846 6.30173921 11 9.625 C11.598125 10.17414063 12.19625 10.72328125 12.8125 11.2890625 C14 13 14 13 13.80859375 15.046875 C12.32739029 18.62466114 9.70856357 21.29143643 7 24 C7.54723683 20.62537285 8.0549 18.91765 10 16 C10.08467493 12.95170249 9.35543031 11.40899995 7.3671875 9.12109375 C5.61635528 7.36671733 3.83664247 5.66400767 2 4 C-2.63720719 7.27530896 -6.68542782 10.30435607 -10 15 C-11.32 14.67 -12.64 14.34 -14 14 C-13.49210937 13.57589844 -12.98421875 13.15179688 -12.4609375 12.71484375 C-7.83373646 8.77219118 -3.84408054 4.70899866 0 0 Z " fill="#298950" transform="translate(87,118)"/>
<path d="M0 0 C1.32 0 2.64 0 4 0 C4 7.26 4 14.52 4 22 C2.68 22 1.36 22 0 22 C0 14.74 0 7.48 0 0 Z " fill="#5A6167" transform="translate(393,152)"/>
<path d="M0 0 C3.16115776 1.36983503 3.9927092 1.9890638 6 5 C6.14245897 7.76655324 6.18769445 10.42653306 6.125 13.1875 C6.11597656 13.93708984 6.10695313 14.68667969 6.09765625 15.45898438 C6.07412578 17.30612654 6.03825561 19.15310412 6 21 C4.68 21 3.36 21 2 21 C1.67 15.72 1.34 10.44 1 5 C-0.98 4.34 -2.96 3.68 -5 3 C-4.360625 2.690625 -3.72125 2.38125 -3.0625 2.0625 C-1.06389179 1.1654837 -1.06389179 1.1654837 0 0 Z " fill="#4A535A" transform="translate(418,153)"/>
<path d="M0 0 C0.33 0 0.66 0 1 0 C1 3.3 1 6.6 1 10 C5.95 10 10.9 10 16 10 C16 11.32 16 12.64 16 14 C11.38 14 6.76 14 2 14 C2 17.3 2 20.6 2 24 C1.67 24 1.34 24 1 24 C-0.03387512 15.9874678 -0.10466648 8.07094823 0 0 Z " fill="#5C6367" transform="translate(255,147)"/>
<path d="M0 0 C3.54650583 2.93037558 6.52912686 5.58738059 8 10 C3.88660367 9.87535163 2.07291148 8.3239356 -0.6875 5.5 C-1.55955078 4.55640625 -1.55955078 4.55640625 -2.44921875 3.59375 C-3.9284043 1.89864768 -3.9284043 1.89864768 -6 1 C-6 3.97 -6 6.94 -6 10 C-6.99 10 -7.98 10 -9 10 C-9.125 2.25 -9.125 2.25 -8 0 C-4.48546314 -1.17151229 -3.46299215 -1.25926987 0 0 Z " fill="#4C545A" transform="translate(441,164)"/>
<path d="M0 0 C1.32 0 2.64 0 4 0 C4 6.93 4 13.86 4 21 C3.01 21 2.02 21 1 21 C-0.95827192 16.20148636 -1.11684311 12.20082086 -0.625 7.125 C-0.53992188 6.09246094 -0.53992188 6.09246094 -0.453125 5.0390625 C-0.31307172 3.35842311 -0.15807755 1.67903995 0 0 Z " fill="#576067" transform="translate(494,153)"/>
<path d="M0 0 C0.33 0 0.66 0 1 0 C1 2.64 1 5.28 1 8 C-0.175625 8.2165625 -0.175625 8.2165625 -1.375 8.4375 C-3.96421018 8.87798925 -3.96421018 8.87798925 -6 10 C-10.62620533 10.41121825 -13.29903144 9.85503289 -17 7 C-17.33 6.01 -17.66 5.02 -18 4 C-17.01 4 -16.02 4 -15 4 C-14.67 3.34 -14.34 2.68 -14 2 C-13.01 3.485 -13.01 3.485 -12 5 C-8.54213985 5.50007794 -8.54213985 5.50007794 -5 5 C-3.18523997 3.60414215 -3.18523997 3.60414215 -2 2 C-1.34 2 -0.68 2 0 2 C0 1.34 0 0.68 0 0 Z " fill="#555C60" transform="translate(713,165)"/>
<path d="M0 0 C0.99 0 1.98 0 3 0 C3 9.9 3 19.8 3 30 C2.34 29.67 1.68 29.34 1 29 C1 27.02 1 25.04 1 23 C0.67 23 0.34 23 0 23 C-1.00220537 15.16737959 -0.8895125 7.8413948 0 0 Z " fill="#3D454C" transform="translate(712,144)"/>
<path d="M0 0 C1.32 0.33 2.64 0.66 4 1 C4 1.66 4 2.32 4 3 C3.34 3.5775 2.68 4.155 2 4.75 C-0.28199666 6.87669368 -0.28199666 6.87669368 -0.3125 10 C0.04159189 13.57245804 0.04159189 13.57245804 1 17 C1.66 17.33 2.32 17.66 3 18 C1.02 18.99 1.02 18.99 -1 20 C-4.56824145 15.97744665 -4.48926345 12.84009201 -4.37109375 7.640625 C-3.88354495 4.17133035 -2.57348442 2.33222025 0 0 Z " fill="#4F585E" transform="translate(535,153)"/>
<path d="M0 0 C1.32 0.33 2.64 0.66 4 1 C1.69 7.27 -0.62 13.54 -3 20 C-4.32 19.67 -5.64 19.34 -7 19 C-7 15.4463349 -6.01945368 13.32294228 -4.625 10.0625 C-4.18414062 9.02222656 -3.74328125 7.98195312 -3.2890625 6.91015625 C-2.25171574 4.56826735 -1.17348403 2.27568165 0 0 Z " fill="#4A5359" transform="translate(293,153)"/>
<path d="M0 0 C6.271261 -0.48240469 6.271261 -0.48240469 9.21875 1.46875 C11.82316537 5.16976131 11.4399867 8.34376992 11.25 12.75 C11.23195313 13.54277344 11.21390625 14.33554688 11.1953125 15.15234375 C11.14833082 17.10208348 11.07659044 19.05119878 11 21 C10.01 21 9.02 21 8 21 C7.93941406 19.97519531 7.87882813 18.95039063 7.81640625 17.89453125 C7.73194974 16.53384305 7.64730433 15.17316657 7.5625 13.8125 C7.52318359 13.13896484 7.48386719 12.46542969 7.44335938 11.77148438 C7.21072435 8.10300898 6.82792989 4.58305794 6 1 C4.02 1.33 2.04 1.66 0 2 C0 1.34 0 0.68 0 0 Z " fill="#3F474F" transform="translate(513,153)"/>
<path d="M0 0 C1.32 0 2.64 0 4 0 C4 5.94 4 11.88 4 18 C4.66 18.33 5.32 18.66 6 19 C5.01 19.33 4.02 19.66 3 20 C-0.11713854 15.78654502 -0.37676791 12.2589095 -0.1875 7.1875 C-0.16719727 6.14819336 -0.16719727 6.14819336 -0.14648438 5.08789062 C-0.11138845 3.39158735 -0.05758943 1.69568864 0 0 Z " fill="#555C61" transform="translate(343,153)"/>
<path d="M0 0 C1.16080078 -0.01160156 2.32160156 -0.02320312 3.51757812 -0.03515625 C4.62681641 -0.03128906 5.73605469 -0.02742188 6.87890625 -0.0234375 C8.37466187 -0.01836182 8.37466187 -0.01836182 9.90063477 -0.01318359 C12.78569357 0.42827955 13.66972384 1.11257603 15.4375 3.375 C14.2825 3.21 13.1275 3.045 11.9375 2.875 C-4.71490759 1.12897291 -19.45994361 2.82372181 -34.5625 10.375 C-34.5625 9.715 -34.5625 9.055 -34.5625 8.375 C-33.9025 8.375 -33.2425 8.375 -32.5625 8.375 C-32.5625 7.715 -32.5625 7.055 -32.5625 6.375 C-22.02673481 1.34656662 -11.6004543 -0.11952386 0 0 Z " fill="#C8F7E2" transform="translate(108.5625,18.625)"/>
<path d="M0 0 C0.33 0 0.66 0 1 0 C1.33 4.62 1.66 9.24 2 14 C4.97 14.495 4.97 14.495 8 15 C8 15.99 8 16.98 8 18 C5.03 18 2.06 18 -1 18 C-2.48520725 15.02958551 -2.1705822 12.30235553 -2.1875 9 C-2.20167969 7.741875 -2.21585938 6.48375 -2.23046875 5.1875 C-2 2 -2 2 0 0 Z " fill="#4B5359" transform="translate(629,156)"/>
<path d="M0 0 C0.99 0.33 1.98 0.66 3 1 C2.3503125 1.61875 2.3503125 1.61875 1.6875 2.25 C-1.2715478 5.31864216 -3.43896288 7.6737152 -3.625 12.0625 C-2.29638446 20.43277792 4.13328946 25.35893217 10 31 C7 31 7 31 4.37109375 28.69921875 C3.38545764 27.7029415 2.40785916 26.6986627 1.4375 25.6875 C0.94314453 25.18798828 0.44878906 24.68847656 -0.06054688 24.17382812 C-6.28593693 17.8136529 -6.28593693 17.8136529 -6.3125 12.625 C-6.1986742 7.61666461 -4.71316028 4.84006104 -1.3125 1.1875 C-0.879375 0.795625 -0.44625 0.40375 0 0 Z " fill="#258F4F" transform="translate(79,47)"/>
<path d="M0 0 C0.66 0 1.32 0 2 0 C-0.58953491 10.6761527 -5.3177572 20.00758969 -14 27 C-17.4375 28.9375 -17.4375 28.9375 -20 30 C-20 29.01 -20 28.02 -20 27 C-17 25 -17 25 -14 25 C-13.59974609 24.12021484 -13.59974609 24.12021484 -13.19140625 23.22265625 C-11.62827881 20.30652669 -9.55686485 18.11743843 -7.33984375 15.68359375 C-5.78521084 13.92781556 -5.78521084 13.92781556 -5 11 C-4.34 11 -3.68 11 -3 11 C-2.87625 10.29875 -2.7525 9.5975 -2.625 8.875 C-1.96161655 5.82343613 -1.02788045 2.94659062 0 0 Z " fill="#208D4B" transform="translate(203,122)"/>
<path d="M0 0 C0.886875 -0.01417969 1.77375 -0.02835938 2.6875 -0.04296875 C5 0.1875 5 0.1875 7 2.1875 C6.01 2.5175 5.02 2.8475 4 3.1875 C3.67 2.8575 3.34 2.5275 3 2.1875 C-0.95293486 1.64846343 -2.55980592 1.88127803 -5.875 4.1875 C-8.78789129 8.29981711 -8.64003318 10.22724283 -8 15.1875 C-6.81104764 17.12782404 -6.81104764 17.12782404 -5 18.1875 C-4.01 18.8475 -3.02 19.5075 -2 20.1875 C-3.32 20.5175 -4.64 20.8475 -6 21.1875 C-9.19270665 17.99479335 -11.35778522 15.81583422 -11.5625 11.1875 C-11.29900976 7.02754805 -9.66011508 4.39528584 -7 1.1875 C-4.52224905 -0.05137548 -2.76346293 0.02008331 0 0 Z " fill="#208E4F" transform="translate(110,53.8125)"/>
<path d="M0 0 C0.56847656 0.21527344 1.13695312 0.43054688 1.72265625 0.65234375 C-0.50398692 1.63761075 -2.73335692 2.61565819 -4.96484375 3.58984375 C-5.90360352 4.0065332 -5.90360352 4.0065332 -6.86132812 4.43164062 C-16.60706661 8.66669976 -28.22998614 9.47990855 -38.27734375 5.65234375 C-35.29242371 4.77239868 -32.78149132 4.58474004 -29.6796875 4.73046875 C-16.4817034 5.33164331 -16.4817034 5.33164331 -4.3359375 0.6484375 C-2.27734375 -0.34765625 -2.27734375 -0.34765625 0 0 Z " fill="#3A9961" transform="translate(80.27734375,151.34765625)"/>
<path d="M0 0 C0.33 0 0.66 0 1 0 C0.98952637 0.63502441 0.97905273 1.27004883 0.96826172 1.92431641 C0.92647533 4.8245034 0.90060229 7.72462682 0.875 10.625 C0.85824219 11.62402344 0.84148438 12.62304688 0.82421875 13.65234375 C0.78949935 18.89497354 1.02651365 23.06628411 3 28 C3.125 31.375 3.125 31.375 3 34 C-2.58041898 25.62937153 -3.43857503 14.45557143 -1.55078125 4.671875 C-1.09873642 3.09452709 -0.56074725 1.54205495 0 0 Z " fill="#2C9254" transform="translate(12,98)"/>
<path d="M0 0 C1.32 0 2.64 0 4 0 C2.5435664 3.83968859 0.71785783 5.31006462 -3 7 C-6.97233013 7.57929814 -8.4839878 7.3365297 -11.875 5.125 C-12.57625 4.42375 -13.2775 3.7225 -14 3 C-14 2.34 -14 1.68 -14 1 C-13.34 1.165 -12.68 1.33 -12 1.5 C-8.26900206 2.12183299 -4.78126622 2.06408926 -1 2 C-0.67 1.34 -0.34 0.68 0 0 Z " fill="#5F666A" transform="translate(574,168)"/>
<path d="M0 0 C2.69385039 0.20721926 4.51411726 0.69841761 6.8125 2.125 C8 4 8 4 8 11 C3.38 11 -1.24 11 -6 11 C-5.67 10.34 -5.34 9.68 -5 9 C-1.7 9 1.6 9 5 9 C4.67 7.35 4.34 5.7 4 4 C2.02 3.34 0.04 2.68 -2 2 C-1.34 1.34 -0.68 0.68 0 0 Z " fill="#434B50" transform="translate(312,153)"/>
<path d="M0 0 C4.68440367 0.63302752 4.68440367 0.63302752 6.34375 2.5625 C7.9470071 4.26016957 7.9470071 4.26016957 10.48046875 4.07421875 C11.37378906 3.94660156 12.26710938 3.81898438 13.1875 3.6875 C14.08855469 3.56761719 14.98960937 3.44773438 15.91796875 3.32421875 C16.94857422 3.16373047 16.94857422 3.16373047 18 3 C16.25 6.875 16.25 6.875 14 8 C6.96757591 8.5764282 6.96757591 8.5764282 3.0625 6.25 C1.0389522 4.04249331 0.3141111 2.93170364 0 0 Z " fill="#495256" transform="translate(599,167)"/>
<path d="M0 0 C4.62 0 9.24 0 14 0 C14 1.65 14 3.3 14 5 C13.34 5 12.68 5 12 5 C12 4.34 12 3.68 12 3 C7.545 3.495 7.545 3.495 3 4 C3 7.3 3 10.6 3 14 C-0.39000439 8.91499341 -0.08663198 6.06423828 0 0 Z " fill="#299154" transform="translate(442,88)"/>
<path d="M0 0 C2.6875 2.0625 2.6875 2.0625 4 5 C3.70462856 7.90001046 2.94729136 10.2054905 2 13 C1.67 13 1.34 13 1 13 C0.87625 11.88625 0.7525 10.7725 0.625 9.625 C0.3534187 5.96896323 0.3534187 5.96896323 -2 4 C-3.155 3.855625 -4.31 3.71125 -5.5 3.5625 C-6.655 3.376875 -7.81 3.19125 -9 3 C-9.66 2.01 -10.32 1.02 -11 0 C-7.48302335 -1.75848832 -3.71976278 -0.94146208 0 0 Z " fill="#63696D" transform="translate(684,153)"/>
<path d="M0 0 C0.66 0.33 1.32 0.66 2 1 C-3.76513501 8.0618523 -9.00219883 13.57459993 -18 16 C-21.6484375 16.1953125 -21.6484375 16.1953125 -25.375 16.125 C-26.62023438 16.10695312 -27.86546875 16.08890625 -29.1484375 16.0703125 C-30.08945312 16.04710937 -31.03046875 16.02390625 -32 16 C-32 15.67 -32 15.34 -32 15 C-30.7315625 14.96132812 -30.7315625 14.96132812 -29.4375 14.921875 C-22.16633818 14.55831691 -17.27860034 13.65300383 -11 10 C-9.67728634 9.62674747 -8.34501282 9.28254099 -7 9 C-7 8.34 -7 7.68 -7 7 C-6.34 7 -5.68 7 -5 7 C-4.731875 6.401875 -4.46375 5.80375 -4.1875 5.1875 C-3.01506533 3.02775192 -1.80630718 1.64209744 0 0 Z " fill="#CDF8E6" transform="translate(81,122)"/>
<path d="M0 0 C1.32 0.33 2.64 0.66 4 1 C3.54625 1.598125 3.0925 2.19625 2.625 2.8125 C0.31474971 7.3441448 -0.25608808 12.00266227 -1 17 C-3.72820962 14.27179038 -3.74401685 12.07915685 -4.11328125 8.33203125 C-3.93190442 4.5981704 -2.37603516 2.80804156 0 0 Z " fill="#555C60" transform="translate(671,154)"/>
<path d="M0 0 C1.47968324 0.14049518 2.95874516 0.28754826 4.4375 0.4375 C5.67306641 0.55931641 5.67306641 0.55931641 6.93359375 0.68359375 C9 1 9 1 10 2 C11.41327947 2.15620555 12.8335459 2.25056173 14.25390625 2.31640625 C15.10791016 2.35830078 15.96191406 2.40019531 16.84179688 2.44335938 C17.73962891 2.48267578 18.63746094 2.52199219 19.5625 2.5625 C20.46419922 2.60568359 21.36589844 2.64886719 22.29492188 2.69335938 C24.52978485 2.79978142 26.76476308 2.90179988 29 3 C26.46515672 5.53484328 24.75191749 5.30969984 21.28491211 5.37890625 C20.53089111 5.37761719 19.77687012 5.37632813 19 5.375 C18.23631104 5.37628906 17.47262207 5.37757812 16.68579102 5.37890625 C10.50410287 5.26376421 5.45688453 4.00329763 0 1 C0 0.67 0 0.34 0 0 Z " fill="#34965D" transform="translate(452,110)"/>
<path d="M0 0 C1.17781058 3.68065805 1 7.1644081 1 11 C1.6615804 14.10443277 1.6615804 14.10443277 4 15.125 C4.99 15.558125 4.99 15.558125 6 16 C6.33 16.33 6.66 16.66 7 17 C8.51469448 17.23192865 10.03754562 17.41215238 11.5625 17.5625 C12.38878906 17.64628906 13.21507813 17.73007813 14.06640625 17.81640625 C15.02353516 17.90728516 15.02353516 17.90728516 16 18 C16 18.66 16 19.32 16 20 C7.07010156 20.62422591 7.07010156 20.62422591 3 18.25 C-0.30123743 14.53610789 -1.26907781 11.84383026 -1.1875 6.875 C-1.17783203 5.57175781 -1.17783203 5.57175781 -1.16796875 4.2421875 C-1 2 -1 2 0 0 Z " fill="#248B4D" transform="translate(56,171)"/>
<path d="M0 0 C5.31555942 0.46222256 9.51876161 1.9436878 14.421875 4.01171875 C18.21730574 5.46663387 22.01390548 6.22849783 26 7 C25.67 7.66 25.34 8.32 25 9 C16.21487016 8.48322766 6.84554063 5.68246334 0 0 Z " fill="#2B9556" transform="translate(72,191)"/>
<path d="M0 0 C1.91015625 0.23046875 1.91015625 0.23046875 3.91015625 2.23046875 C3.91015625 3.22046875 3.91015625 4.21046875 3.91015625 5.23046875 C-0.04984375 5.23046875 -4.00984375 5.23046875 -8.08984375 5.23046875 C-6.61379594 -0.67372249 -5.84549858 0.11669779 0 0 Z " fill="#EDF3F8" transform="translate(570.08984375,155.76953125)"/>
<path d="M0 0 C3.625 0.25 3.625 0.25 5.5625 1.625 C6.625 3.25 6.625 3.25 6.625 5.25 C2.335 5.25 -1.955 5.25 -6.375 5.25 C-3.89423077 0.28846154 -3.89423077 0.28846154 0 0 Z " fill="#F2F6F9" transform="translate(310.375,155.75)"/>
<path d="M0 0 C0.66 0.99 1.32 1.98 2 3 C-0.76753598 3.92251199 -3.18031511 4.01711837 -6.0625 3.9375 C-10.05474774 3.64546944 -10.05474774 3.64546944 -13 6 C-13 2 -13 2 -11.5625 0.1875 C-7.75444254 -1.57720955 -3.99107401 -1.21735462 0 0 Z " fill="#616A6F" transform="translate(574,153)"/>
<path d="M0 0 C0.33 0.99 0.66 1.98 1 3 C-1.33215362 6.49823043 -2.01910264 6.9218403 -6 8 C-12.06037005 8.50331887 -17.26689629 7.99412303 -23 6 C-23.33 4.68 -23.66 3.36 -24 2 C-22.865625 2.495 -21.73125 2.99 -20.5625 3.5 C-14.60712769 5.71350121 -9.43634401 5.95713515 -3.5 3.625 C-0.90977444 2.24138268 -0.90977444 2.24138268 0 0 Z " fill="#208E4D" transform="translate(482,97)"/>
<path d="M0 0 C-1.37683815 3.15984356 -2.93446617 5.03504518 -5.5 7.3125 C-9.02776978 10.7009192 -10.12364806 13.22875057 -11 18 C-11.33 18 -11.66 18 -12 18 C-12.41859743 11.93033732 -12.14344799 8.79767662 -8 4 C-2.73684211 0 -2.73684211 0 0 0 Z " fill="#198E48" transform="translate(457,44)"/>
<path d="M0 0 C4.875 0.875 4.875 0.875 6 2 C5.4 8.6 5.4 8.6 3 11 C2.01 11 1.02 11 0 11 C0 8 0 8 1.5 6.3125 C1.995 5.879375 2.49 5.44625 3 5 C1.68 4.67 0.36 4.34 -1 4 C-0.67 2.68 -0.34 1.36 0 0 Z " fill="#60686E" transform="translate(455,169)"/>
<path d="M0 0 C3.28245559 2.41865148 5.52919161 4.17186857 7 8 C7.70659027 14.58872482 7.73519522 20.39720718 4 26 C3.06576355 22.98968256 2.95550089 22.13349732 4 19 C4.38721423 13.68706061 4.54464397 8.80654972 2 4 C1.62875 3.236875 1.2575 2.47375 0.875 1.6875 C0.58625 1.130625 0.2975 0.57375 0 0 Z " fill="#278A4F" transform="translate(490,79)"/>
<path d="M0 0 C0.33 0 0.66 0 1 0 C1.05386629 2.12472576 1.09273071 4.24983652 1.125 6.375 C1.14820313 7.55835938 1.17140625 8.74171875 1.1953125 9.9609375 C1 13 1 13 -1 15 C-1.66 14.34 -2.32 13.68 -3 13 C-4.98821313 12.60235737 -6.98944339 12.26224651 -9 12 C-9 11.34 -9 10.68 -9 10 C-9.66 10 -10.32 10 -11 10 C-11 9.34 -11 8.68 -11 8 C-6.69986566 7.80453935 -4.99110319 8.0044484 -1 10 C-0.67 6.7 -0.34 3.4 0 0 Z " fill="#60696F" transform="translate(548,144)"/>
<path d="M0 0 C3.88332587 4.8963674 4.3962181 8.87129726 4.35546875 15 C3.77747083 19.87804841 1.78907107 23.98530897 -1 28 C-1.99 28.66 -2.98 29.32 -4 30 C-3.67 28.68 -3.34 27.36 -3 26 C-2.34 26 -1.68 26 -1 26 C-0.87625 25.278125 -0.7525 24.55625 -0.625 23.8125 C0 21 0 21 1.0625 18.6875 C2.55055848 14.42173235 2.8768374 9.97288415 1 5.75 C0.67 5.1725 0.34 4.595 0 4 C0 2.68 0 1.36 0 0 Z " fill="#C5F2DD" transform="translate(182,100)"/>
<path d="M0 0 C-0.76183594 0.27972656 -1.52367188 0.55945313 -2.30859375 0.84765625 C-9.55573802 3.66146632 -15.08239387 7.01212392 -21 12 C-21.99 12.66 -22.98 13.32 -24 14 C-24 13.01 -24 12.02 -24 11 C-23.34 11 -22.68 11 -22 11 C-22 10.34 -22 9.68 -22 9 C-21.34 9 -20.68 9 -20 9 C-20 8.34 -20 7.68 -20 7 C-19.34 7 -18.68 7 -18 7 C-18 6.34 -18 5.68 -18 5 C-15.35261084 3.5393715 -14.10551666 3 -11 3 C-11 2.34 -11 1.68 -11 1 C-4.03571429 -1.27678571 -4.03571429 -1.27678571 0 0 Z " fill="#D0F9E7" transform="translate(45,68)"/>
<path d="M0 0 C0.99 0 1.98 0 3 0 C3.78774617 8.03501094 3.78774617 8.03501094 0.5 12.0625 C-0.325 12.701875 -1.15 13.34125 -2 14 C-2.99 13.67 -3.98 13.34 -5 13 C-5 12.34 -5 11.68 -5 11 C-4.360625 10.443125 -3.72125 9.88625 -3.0625 9.3125 C-0.38084069 6.30579108 -0.30333855 3.94340119 0 0 Z " fill="#464F55" transform="translate(659,160)"/>
<path d="M0 0 C2.875 0.8125 2.875 0.8125 4.875 2.8125 C5 5.9375 5 5.9375 4.875 8.8125 C3.225 8.8125 1.575 8.8125 -0.125 8.8125 C0.205 7.1625 0.535 5.5125 0.875 3.8125 C-1.765 3.4825 -4.405 3.1525 -7.125 2.8125 C-4.57630895 0.36183553 -3.6094771 -0.21656863 0 0 Z " fill="#5E6569" transform="translate(613.125,162.1875)"/>
<path d="M0 0 C0.70125 0.07863281 1.4025 0.15726563 2.125 0.23828125 C4 0.6875 4 0.6875 6 2.6875 C5.625 4.8125 5.625 4.8125 5 6.6875 C4.34 6.0275 3.68 5.3675 3 4.6875 C-0.45828022 4.52080682 -0.45828022 4.52080682 -4 4.6875 C-4.99 4.6875 -5.98 4.6875 -7 4.6875 C-6.625 2.75 -6.625 2.75 -6 0.6875 C-3.63106495 -0.49696753 -2.5933174 -0.31939755 0 0 Z " fill="#60666B" transform="translate(705,152.3125)"/>
<path d="M0 0 C5.02705917 0.12047418 8.09872551 0.24587237 12.0625 3.5625 C12.701875 4.366875 13.34125 5.17125 14 6 C13.34 7.32 12.68 8.64 12 10 C12 9.34 12 8.68 12 8 C11.34 8 10.68 8 10 8 C9.34 7.01 8.68 6.02 8 5 C4.93443402 4.26656572 4.93443402 4.26656572 2 4 C2.66 3.67 3.32 3.34 4 3 C4 2.34 4 1.68 4 1 C2.68 0.67 1.36 0.34 0 0 Z " fill="#5E656A" transform="translate(648,152)"/>
<path d="M0 0 C-0.33 0.99 -0.66 1.98 -1 3 C-1.99 3 -2.98 3 -4 3 C-4.33 3.33 -4.66 3.66 -5 4 C-11.52542373 4.23728814 -11.52542373 4.23728814 -14 3 C-14 2.34 -14 1.68 -14 1 C-12.41913952 0.63495397 -10.83516093 0.28339494 -9.25 -0.0625 C-8.36828125 -0.25972656 -7.4865625 -0.45695313 -6.578125 -0.66015625 C-4.01320972 -0.99825872 -2.42908361 -0.81158635 0 0 Z " fill="#5A6469" transform="translate(549,171)"/>
<path d="M0 0 C0.71607422 -0.02900391 1.43214844 -0.05800781 2.16992188 -0.08789062 C5.73744539 -0.13087284 7.68514461 0.03109233 10.58203125 2.19140625 C12.0625 4.3125 12.0625 4.3125 11.8125 6.5625 C11.565 7.14 11.3175 7.7175 11.0625 8.3125 C10.815 7.69375 10.5675 7.075 10.3125 6.4375 C8.78357221 3.83832275 7.84958828 3.39979679 5.0625 2.3125 C-2.09888188 1.35000401 -2.09888188 1.35000401 -8.76171875 3.43359375 C-10.23033273 4.93861026 -10.23033273 4.93861026 -11.9375 7.3125 C-12.5975 7.3125 -13.2575 7.3125 -13.9375 7.3125 C-13.6075 5.9925 -13.2775 4.6725 -12.9375 3.3125 C-12.2775 3.3125 -11.6175 3.3125 -10.9375 3.3125 C-10.9375 2.6525 -10.9375 1.9925 -10.9375 1.3125 C-7.26556862 0.08852287 -3.82666441 0.05138762 0 0 Z " fill="#2C9457" transform="translate(469.9375,52.6875)"/>
<path d="M0 0 C0.7425 1.1446875 0.7425 1.1446875 1.5 2.3125 C4.76726846 5.82481359 7.4628744 6.56324356 12 8 C11.67 8.66 11.34 9.32 11 10 C7.50813979 10.20145347 4.80082611 10.34907805 1.5625 8.9375 C-0.76643994 6.04961448 -0.27050795 3.58423038 0 0 Z " fill="#464E52" transform="translate(670,165)"/>
<path d="M0 0 C0 0.66 0 1.32 0 2 C-1.50294052 2.95938693 -3.05500507 3.84229624 -4.625 4.6875 C-9.56295973 7.52822968 -12.56861627 10.48502141 -16 15 C-16.671875 13.203125 -16.671875 13.203125 -17 11 C-15.890625 9.296875 -15.890625 9.296875 -14.25 7.75 C-13.71890625 7.22921875 -13.1878125 6.7084375 -12.640625 6.171875 C-11 5 -11 5 -8 5 C-8 4.34 -8 3.68 -8 3 C-2.25 0 -2.25 0 0 0 Z " fill="#1B8947" transform="translate(50,85)"/>
<path d="M0 0 C1.13876587 -0.00193359 1.13876587 -0.00193359 2.30053711 -0.00390625 C8.4619424 0.1115422 13.49922544 1.38194471 18.9375 4.375 C18.2775 5.035 17.6175 5.695 16.9375 6.375 C16.16792969 5.941875 16.16792969 5.941875 15.3828125 5.5 C6.78949957 1.33354525 -1.75302105 2.00992239 -11.0625 2.375 C-7.32771188 -0.11485875 -4.33182096 -0.00748883 0 0 Z " fill="#248D4E" transform="translate(468.0625,41.625)"/>
<path d="M0 0 C3.35620271 1.38877354 5.07298728 2.91677965 7 6 C7 6.66 7 7.32 7 8 C9.33214148 9.20628008 11.49642139 10.1654738 14 11 C14 11.66 14 12.32 14 13 C14.66 13 15.32 13 16 13 C15.67 13.99 15.34 14.98 15 16 C8.94066189 11.69113734 3.95586866 7.36041628 0 1 C0 0.67 0 0.34 0 0 Z " fill="#248F4E" transform="translate(17,136)"/>
<path d="M0 0 C6.37930014 -0.66451043 10.00876357 1.0459036 15 5 C17.5625 7.5625 17.5625 7.5625 19 10 C18.58984375 12.15234375 18.58984375 12.15234375 18 14 C17.38125 12.948125 16.7625 11.89625 16.125 10.8125 C13.2387956 6.71541674 9.80991035 5.04909382 5.3046875 3.04296875 C3 2 3 2 0 0 Z " fill="#2B9656" transform="translate(164,86)"/>
<path d="M0 0 C0 0.33 0 0.66 0 1 C-1.65 1 -3.3 1 -5 1 C-5 0.34 -5 -0.32 -5 -1 C-11.6 -1 -18.2 -1 -25 -1 C-18.268878 -7.731122 -7.32394684 -3.36181167 0 0 Z " fill="#C5F1DC" transform="translate(174,90)"/>
<path d="M0 0 C1.18851563 0.00902344 2.37703125 0.01804688 3.6015625 0.02734375 C4.51679687 0.03894531 5.43203125 0.05054688 6.375 0.0625 C6.375 0.7225 6.375 1.3825 6.375 2.0625 C5.16263672 1.99289063 5.16263672 1.99289063 3.92578125 1.921875 C-2.58553492 1.66121923 -2.58553492 1.66121923 -8.75 3.4375 C-11.5234965 7.3203951 -12.02787148 11.39242027 -12.625 16.0625 C-12.955 16.0625 -13.285 16.0625 -13.625 16.0625 C-14.41030425 7.07512916 -14.41030425 7.07512916 -11.25 3 C-7.17702829 -0.00624103 -5.05189968 -0.04952843 0 0 Z " fill="#C4F1DC" transform="translate(67.625,164.9375)"/>
<path d="M0 0 C1.43861294 0.08746284 2.87597508 0.19565348 4.3125 0.3125 C5.11300781 0.37050781 5.91351562 0.42851562 6.73828125 0.48828125 C9.41109031 1.09301007 10.38866591 1.80462248 12 4 C12 4.99 12 5.98 12 7 C9.13275314 6.42655063 8.1385485 6.1385485 6 4 C4.01643517 3.28591666 2.01684563 2.61382258 0 2 C0 1.34 0 0.68 0 0 Z " fill="#535B60" transform="translate(605,152)"/>
<path d="M0 0 C3.875 1.75 3.875 1.75 5 4 C4.67 4.99 4.34 5.98 4 7 C3.77439324 9.39254576 3.59151405 11.78928123 3.4375 14.1875 C3.35371094 15.45980469 3.26992188 16.73210937 3.18359375 18.04296875 C3.12300781 19.01878906 3.06242187 19.99460938 3 21 C2.67 21 2.34 21 2 21 C1.67 15.72 1.34 10.44 1 5 C-0.98 4.34 -2.96 3.68 -5 3 C-4.360625 2.690625 -3.72125 2.38125 -3.0625 2.0625 C-1.06389179 1.1654837 -1.06389179 1.1654837 0 0 Z " fill="#677076" transform="translate(418,153)"/>
<path d="M0 0 C-1 2 -1 2 -4.375 3.4375 C-7.48117984 4.77637062 -8.88514047 5.53266389 -11 8 C-11.33 8 -11.66 8 -12 8 C-12 5.69 -12 3.38 -12 1 C-8.40865654 -0.79567173 -3.97031196 0 0 0 Z " fill="#50585F" transform="translate(418,153)"/>
<path d="M0 0 C0.66 0 1.32 0 2 0 C2 5.94 2 11.88 2 18 C1.34 18.33 0.68 18.66 0 19 C-0.9154645 14.53795824 -0.97847873 10.65454615 -0.5625 6.125 C-0.46066406 4.97257813 -0.35882812 3.82015625 -0.25390625 2.6328125 C-0.17011719 1.76398438 -0.08632813 0.89515625 0 0 Z " fill="#434D55" transform="translate(549,144)"/>
<path d="M0 0 C0.33 0 0.66 0 1 0 C1 4.29 1 8.58 1 13 C6.445 12.505 6.445 12.505 12 12 C12.33 12.99 12.66 13.98 13 15 C8.71 15 4.42 15 0 15 C0 10.05 0 5.1 0 0 Z " fill="#191D22" transform="translate(305,99)"/>
<path d="M0 0 C-3.34799085 3.06192834 -5.59977035 3.35882691 -10.078125 3.29296875 C-11.23828125 3.28330078 -12.3984375 3.27363281 -13.59375 3.26367188 C-14.8003125 3.23853516 -16.006875 3.21339844 -17.25 3.1875 C-19.08304688 3.16719727 -19.08304688 3.16719727 -20.953125 3.14648438 C-23.96919498 3.1111398 -26.98437487 3.0617956 -30 3 C-30 2.67 -30 2.34 -30 2 C-29.15405273 1.970271 -29.15405273 1.970271 -28.29101562 1.93994141 C-25.69360426 1.84368189 -23.09688897 1.73441948 -20.5 1.625 C-19.1696875 1.57859375 -19.1696875 1.57859375 -17.8125 1.53125 C-13.54912505 1.34315993 -9.59888222 1.00939079 -5.46875 -0.1015625 C-2 -1 -2 -1 0 0 Z " fill="#ABE0C5" transform="translate(128,198)"/>
<path d="M0 0 C0 0.33 0 0.66 0 1 C-3.08120684 1.5339744 -6.16517859 2.04985551 -9.25 2.5625 C-10.12269531 2.71396484 -10.99539062 2.86542969 -11.89453125 3.02148438 C-12.73886719 3.16005859 -13.58320313 3.29863281 -14.453125 3.44140625 C-15.22817383 3.57232666 -16.00322266 3.70324707 -16.80175781 3.83813477 C-19.11173847 4.00822774 -20.80085213 3.68559092 -23 3 C-15.2370239 0.05602712 -8.25552919 -0.34937193 0 0 Z " fill="#389E63" transform="translate(165,66)"/>
<path d="M0 0 C2.475 0.495 2.475 0.495 5 1 C5.66 3.64 6.32 6.28 7 9 C5.68 9.33 4.36 9.66 3 10 C2.01 6.7 1.02 3.4 0 0 Z " fill="#565D63" transform="translate(276,153)"/>
<path d="M0 0 C0.721875 0.103125 1.44375 0.20625 2.1875 0.3125 C2.1875 0.9725 2.1875 1.6325 2.1875 2.3125 C0.20803408 3.67613208 -1.7944245 5.00668644 -3.8125 6.3125 C-5.60644446 7.93601109 -5.60644446 7.93601109 -6.8125 9.3125 C-7.625 7.625 -7.625 7.625 -7.8125 5.3125 C-5.38938332 2.17670194 -4.02309723 0.4470108 0 0 Z " fill="#40484E" transform="translate(649.8125,152.6875)"/>
<path d="M0 0 C3.125 2 3.125 2 5 4 C-0.875 3.125 -0.875 3.125 -2 2 C-6.46278402 1.48996754 -9.08763151 3.00034499 -13 5 C-13.66 4.67 -14.32 4.34 -15 4 C-10.58950278 -0.70453036 -6.1078316 -1.04133522 0 0 Z " fill="#248C50" transform="translate(72,166)"/>
<path d="M0 0 C0.99 0.33 1.98 0.66 3 1 C2.29875 1.680625 1.5975 2.36125 0.875 3.0625 C-2.27934337 6.20780513 -5.13934304 9.5888386 -8 13 C-9.32 12.67 -10.64 12.34 -12 12 C-11.46890625 11.55269531 -10.9378125 11.10539063 -10.390625 10.64453125 C-6.52111681 7.33285362 -3.01412695 4.14442456 0 0 Z " fill="#1B8B49" transform="translate(85,120)"/>
<path d="M0 0 C3.42383239 0.65040544 6.7726517 1.42157984 10.125 2.375 C10.97320312 2.60960937 11.82140625 2.84421875 12.6953125 3.0859375 C15.11139414 4.04418005 16.32701439 5.04271618 18 7 C17.01 7.495 17.01 7.495 16 8 C14.1171875 7.29296875 14.1171875 7.29296875 11.875 6.1875 C7.62085125 4.19487603 3.58334906 3.00000343 -1 2 C-0.67 1.34 -0.34 0.68 0 0 Z " fill="#2A9655" transform="translate(114,39)"/>
<path d="M0 0 C2.89927998 2.89927998 2.30045388 5.08553314 2.3125 9.125 C2.30122636 15.02745456 1.60673185 19.67792248 -1 25 C-1.66 25 -2.32 25 -3 25 C-2.7834375 24.45214844 -2.566875 23.90429688 -2.34375 23.33984375 C0.42689104 15.45121301 0.29760345 8.26676247 0 0 Z " fill="#CFF8E4" transform="translate(159,152)"/>
<path d="M0 0 C6.23287671 -0.47945205 6.23287671 -0.47945205 9.5 1.5625 C11.60481417 4.98282303 10.87885144 7.19164377 10 11 C9.67 11 9.34 11 9 11 C8.87625 10.21625 8.7525 9.4325 8.625 8.625 C8.20882007 5.85942178 8.20882007 5.85942178 6 4 C6 3.01 6 2.02 6 1 C4.02 1.33 2.04 1.66 0 2 C0 1.34 0 0.68 0 0 Z " fill="#475057" transform="translate(513,153)"/>
<path d="M0 0 C4.27070558 -0.08692074 8.54118458 -0.14036515 12.8125 -0.1875 C14.63491211 -0.22520508 14.63491211 -0.22520508 16.49414062 -0.26367188 C18.23920898 -0.27817383 18.23920898 -0.27817383 20.01953125 -0.29296875 C21.09307861 -0.3086792 22.16662598 -0.32438965 23.27270508 -0.34057617 C26 0 26 0 27.8737793 1.51831055 C28.24543213 2.00726807 28.61708496 2.49622559 29 3 C27.73285156 2.84660156 26.46570313 2.69320313 25.16015625 2.53515625 C19.92615204 1.95360023 14.69683801 1.67287756 9.4375 1.4375 C8.06754883 1.37272461 8.06754883 1.37272461 6.66992188 1.30664062 C4.44672009 1.20188243 2.22343293 1.09970983 0 1 C0 0.67 0 0.34 0 0 Z " fill="#D8FCEE" transform="translate(95,19)"/>
<path d="M0 0 C0.66 0 1.32 0 2 0 C4.56628339 3.84942509 4.29464462 7.04297887 4.25 11.5 C4.25773438 12.27214844 4.26546875 13.04429688 4.2734375 13.83984375 C4.25993153 17.73631468 4.20675169 19.68987247 2 23 C1.67 22.01 1.34 21.02 1 20 C1.33 19.34 1.66 18.68 2 18 C2.45296092 11.64801314 2.13431857 6.00277099 0 0 Z " fill="#1F8C4A" transform="translate(183,100)"/>
<path d="M0 0 C-0.309375 0.598125 -0.61875 1.19625 -0.9375 1.8125 C-2.10209704 4.08956772 -2.10209704 4.08956772 -3 7 C-2.01 7 -1.02 7 0 7 C0 7.66 0 8.32 0 9 C-2.97 8.01 -5.94 7.02 -9 6 C-3.2 0 -3.2 0 0 0 Z " fill="#C9F4E0" transform="translate(93,170)"/>
<path d="M0 0 C3.09709467 1.37195861 5.15870525 2.93792501 7.5 5.375 C8.09941406 5.99246094 8.69882813 6.60992187 9.31640625 7.24609375 C10.14978516 8.11427734 10.14978516 8.11427734 11 9 C11.804375 9.804375 12.60875 10.60875 13.4375 11.4375 C13.953125 11.953125 14.46875 12.46875 15 13 C14.67 13.66 14.34 14.32 14 15 C12.03580523 13.03580523 10.07182948 11.07140276 8.109375 9.10546875 C6.87514262 7.87352198 5.63725604 6.64518006 4.390625 5.42578125 C1.10284582 2.20569164 1.10284582 2.20569164 0 0 Z " fill="#208A49" transform="translate(66,83)"/>
<path d="M0 0 C0.12375 0.639375 0.2475 1.27875 0.375 1.9375 C0.684375 2.9584375 0.684375 2.9584375 1 4 C1.66 4.33 2.32 4.66 3 5 C2.34 6.98 1.68 8.96 1 11 C-0.32 10.67 -1.64 10.34 -3 10 C-3 6.13304322 -1.58090029 3.4911548 0 0 Z " fill="#565F65" transform="translate(289,162)"/>
<path d="M0 0 C0 1.33333333 0 2.66666667 0 4 C-2.64 4.66 -5.28 5.32 -8 6 C-8.66 5.01 -9.32 4.02 -10 3 C-6.68152292 -0.06320961 -4.44849969 -0.3033068 0 0 Z " fill="#64696D" transform="translate(313,152)"/>
<path d="M0 0 C0.66 0 1.32 0 2 0 C2 5.28 2 10.56 2 16 C-1 13 -1 13 -1.07421875 9.86328125 C-0.94660156 8.69152344 -0.81898438 7.51976562 -0.6875 6.3125 C-0.56761719 5.13300781 -0.44773437 3.95351562 -0.32421875 2.73828125 C-0.16373047 1.38283203 -0.16373047 1.38283203 0 0 Z " fill="#454F55" transform="translate(712,144)"/>
<path d="M0 0 C3 0 6 0 9 0 C9 0.99 9 1.98 9 3 C7.865625 3.12375 6.73125 3.2475 5.5625 3.375 C3.7990625 3.684375 3.7990625 3.684375 2 4 C1.67 4.66 1.34 5.32 1 6 C0 5 0 5 -0.0625 2.4375 C-0.041875 1.633125 -0.02125 0.82875 0 0 Z " fill="#565D63" transform="translate(587,153)"/>
<path d="M0 0 C1.67542976 0.28604898 3.34385343 0.61781233 5 1 C4.67 2.32 4.34 3.64 4 5 C2.68 5.33 1.36 5.66 0 6 C-0.38218767 4.34385343 -0.71395102 2.67542976 -1 1 C-0.67 0.67 -0.34 0.34 0 0 Z " fill="#5C6166" transform="translate(723,169)"/>
<path d="M0 0 C2.125 0.375 2.125 0.375 4 1 C4 3 4 3 2.25 5.125 C0 7 0 7 -4 7 C-2.92598892 4.08482708 -2.22189824 2.22189824 0 0 Z " fill="#535A60" transform="translate(535,153)"/>
<path d="M0 0 C1.66666667 0 3.33333333 0 5 0 C5 0.66 5 1.32 5 2 C6.98 1.67 8.96 1.34 11 1 C10.67 1.99 10.34 2.98 10 4 C9.071875 3.95875 8.14375 3.9175 7.1875 3.875 C3.84190281 3.72863661 3.84190281 3.72863661 1 6 C0.34 5.67 -0.32 5.34 -1 5 C-0.67 3.35 -0.34 1.7 0 0 Z " fill="#5C656B" transform="translate(508,153)"/>
<path d="M0 0 C1.89492187 0.01353516 1.89492187 0.01353516 3.828125 0.02734375 C4.79234375 0.03894531 5.7565625 0.05054688 6.75 0.0625 C6.75 0.3925 6.75 0.7225 6.75 1.0625 C5.96753906 1.12308594 5.18507813 1.18367188 4.37890625 1.24609375 C2.86103516 1.37177734 2.86103516 1.37177734 1.3125 1.5 C0.30316406 1.58121094 -0.70617187 1.66242187 -1.74609375 1.74609375 C-4.18640779 1.79461468 -4.18640779 1.79461468 -5.25 3.0625 C-6.76928038 3.13429964 -8.29167482 3.14642007 -9.8125 3.125 C-10.63878906 3.11597656 -11.46507813 3.10695312 -12.31640625 3.09765625 C-12.95449219 3.08605469 -13.59257813 3.07445312 -14.25 3.0625 C-9.43910622 -0.14476252 -5.75185764 -0.05325794 0 0 Z " fill="#B1E6CC" transform="translate(106.25,39.9375)"/>
<path d="M0 0 C0.5878125 0.21140625 1.175625 0.4228125 1.78125 0.640625 C1.245 0.8675 0.70875 1.094375 0.15625 1.328125 C-2.45618909 2.65685166 -2.45618909 2.65685166 -5.15625 5.265625 C-8.21875 7.640625 -8.21875 7.640625 -11.09375 7.953125 C-12.145625 7.7984375 -12.145625 7.7984375 -13.21875 7.640625 C-11.89181301 6.63215289 -10.55618723 5.63512961 -9.21875 4.640625 C-8.38537109 3.97353516 -8.38537109 3.97353516 -7.53515625 3.29296875 C-6.93574219 2.83019531 -6.33632812 2.36742187 -5.71875 1.890625 C-5.1515625 1.44203125 -4.584375 0.9934375 -4 0.53125 C-2.21875 -0.359375 -2.21875 -0.359375 0 0 Z " fill="#CDF8E6" transform="translate(89.21875,147.359375)"/>
<path d="M0 0 C0.33 0 0.66 0 1 0 C1.15855469 0.60328125 1.31710938 1.2065625 1.48046875 1.828125 C2.99745394 7.02442785 4.20245726 10.0177437 9 13 C7.68 13.33 6.36 13.66 5 14 C0.17970402 9.17970402 0.17970402 9.17970402 -0.33203125 5.8203125 C-0.31474316 3.8771309 -0.16690325 1.93607771 0 0 Z " fill="#2E9156" transform="translate(99,61)"/>
<path d="M0 0 C2.92437502 2.54945514 4.77471137 4.22758183 5.875 8 C5.99530027 10.8872064 5.73706053 13.21554912 5 16 C4.67 16 4.34 16 4 16 C3.87882812 15.34773438 3.75765625 14.69546875 3.6328125 14.0234375 C2.71056011 9.21353658 1.69832723 4.60974535 0 0 Z " fill="#248B4C" transform="translate(489,49)"/>
<path d="M0 0 C0.33 0 0.66 0 1 0 C1.06058594 0.96421875 1.12117188 1.9284375 1.18359375 2.921875 C1.26738281 4.18515625 1.35117187 5.4484375 1.4375 6.75 C1.55931641 8.62945312 1.55931641 8.62945312 1.68359375 10.546875 C1.89285146 13.83915005 1.89285146 13.83915005 2.59765625 16.328125 C3 18 3 18 2 20 C-1.23362094 15.71898513 -1.2422378 12.31759739 -0.6875 7.1875 C-0.62626953 6.49462891 -0.56503906 5.80175781 -0.50195312 5.08789062 C-0.34977344 3.39050178 -0.17696065 1.69498451 0 0 Z " fill="#4D555C" transform="translate(480,154)"/>
<path d="M0 0 C0.99 0.495 0.99 0.495 2 1 C1.98839844 2.19238281 1.97679687 3.38476562 1.96484375 4.61328125 C1.95546408 6.17968594 1.94636407 7.74609231 1.9375 9.3125 C1.92912109 10.09818359 1.92074219 10.88386719 1.91210938 11.69335938 C1.90888672 12.45068359 1.90566406 13.20800781 1.90234375 13.98828125 C1.89710693 14.68477783 1.89187012 15.38127441 1.88647461 16.09887695 C1.93104009 18.22497968 1.93104009 18.22497968 3 21 C2.01 21 1.02 21 0 21 C0 14.07 0 7.14 0 0 Z " fill="#384047" transform="translate(585,153)"/>
<path d="M0 0 C3.34373475 0.55728913 6.03312999 1.35173889 9 3 C9 3.66 9 4.32 9 5 C3.5 5.36666667 3.5 5.36666667 1.125 3.625 C0 2 0 2 0 0 Z " fill="#484F54" transform="translate(560,169)"/>
<path d="M0 0 C3.24208567 0.35049575 4.61527704 0.56221181 6.8125 3.0625 C7.204375 3.701875 7.59625 4.34125 8 5 C6.35 5.33 4.7 5.66 3 6 C0 2.25 0 2.25 0 0 Z " fill="#4F575C" transform="translate(599,167)"/>
<path d="M0 0 C0 0.99 0 1.98 0 3 C-1.58294782 3.05437607 -3.16644256 3.09296271 -4.75 3.125 C-5.63171875 3.14820313 -6.5134375 3.17140625 -7.421875 3.1953125 C-10.1135858 2.99139502 -11.69904974 2.36551721 -14 1 C-12.04175306 0.83232136 -10.08339945 0.66588795 -8.125 0.5 C-6.48917969 0.36078125 -6.48917969 0.36078125 -4.8203125 0.21875 C-3.21670436 0.09437042 -1.60842449 0 0 0 Z " fill="#484E53" transform="translate(271,157)"/>
<path d="M0 0 C3.625 0.375 3.625 0.375 7 1 C6.443125 1.268125 5.88625 1.53625 5.3125 1.8125 C2.80287477 3.10122647 0.40665764 4.52926478 -2 6 C-2 2 -2 2 0 0 Z " fill="#434C51" transform="translate(563,153)"/>
<path d="M0 0 C-2.5652659 1.71017726 -4.87960965 2.90417811 -7.6875 4.125 C-8.49574219 4.47820313 -9.30398437 4.83140625 -10.13671875 5.1953125 C-10.75160156 5.46085937 -11.36648437 5.72640625 -12 6 C-12.33 5.01 -12.66 4.02 -13 3 C-4.57142857 -0.42857143 -4.57142857 -0.42857143 0 0 Z " fill="#289655" transform="translate(95,41)"/>
<path d="M0 0 C0.556875 0.7115625 0.556875 0.7115625 1.125 1.4375 C3.62646962 3.52205802 5.81593418 3.64621491 9 4 C6.08291076 5.98362069 4.87619096 5.9876191 1.25 5.625 C0.1775 5.41875 -0.895 5.2125 -2 5 C-2.33 4.01 -2.66 3.02 -3 2 C-2.01 2 -1.02 2 0 2 C0 1.34 0 0.68 0 0 Z " fill="#62686C" transform="translate(698,167)"/>
<path d="M0 0 C1.32 0 2.64 0 4 0 C4 1.98 4 3.96 4 6 C1.525 5.01 1.525 5.01 -1 4 C-0.67 2.68 -0.34 1.36 0 0 Z " fill="#4D555B" transform="translate(455,169)"/>
<path d="M0 0 C4.2742558 1.5830577 6.26531794 4.50568404 9 8 C6 8 6 8 4.39453125 6.7578125 C3.87246094 6.21898437 3.35039062 5.68015625 2.8125 5.125 C2.28269531 4.59132812 1.75289063 4.05765625 1.20703125 3.5078125 C0 2 0 2 0 0 Z " fill="#565E63" transform="translate(439,164)"/>
<path d="M0 0 C0.33 0.99 0.66 1.98 1 3 C-6.28571429 7.57142857 -6.28571429 7.57142857 -11 7 C-7.54319097 4.23455278 -3.85658398 2.15078722 0 0 Z " fill="#269253" transform="translate(88,164)"/>
<path d="M0 0 C0.66 0.33 1.32 0.66 2 1 C0.87895467 2.31587941 -0.24696965 3.62760353 -1.375 4.9375 C-2.00148438 5.66839844 -2.62796875 6.39929688 -3.2734375 7.15234375 C-5 9 -5 9 -7 10 C-7 9.01 -7 8.02 -7 7 C-6.34 7 -5.68 7 -5 7 C-4.731875 6.401875 -4.46375 5.80375 -4.1875 5.1875 C-3.01506533 3.02775192 -1.80630718 1.64209744 0 0 Z " fill="#C1EFD9" transform="translate(81,122)"/>
<path d="M0 0 C2.67901932 2.31881505 3.66204403 4.31814468 4.6875 7.6875 C4.93886719 8.49574219 5.19023437 9.30398437 5.44921875 10.13671875 C5.63097656 10.75160156 5.81273437 11.36648437 6 12 C5.01 12.495 5.01 12.495 4 13 C3.67 10.69 3.34 8.38 3 6 C2.34 6 1.68 6 1 6 C0.67 4.02 0.34 2.04 0 0 Z " fill="#2A9254" transform="translate(198,87)"/>
<path d="M0 0 C0.515625 0.268125 1.03125 0.53625 1.5625 0.8125 C4.66401415 2.32349407 7.82262806 3.65572726 11 5 C11 5.66 11 6.32 11 7 C5.95904225 6.55520961 3.58884285 4.33845847 0 1 C0 0.67 0 0.34 0 0 Z " fill="#299352" transform="translate(448,74)"/>
<path d="M0 0 C0.99 0.33 1.98 0.66 3 1 C-0.96 4.465 -0.96 4.465 -5 8 C-5.33 7.01 -5.66 6.02 -6 5 C-1.60546875 0.99609375 -1.60546875 0.99609375 0 0 Z " fill="#218B4A" transform="translate(147,183)"/>
<path d="M0 0 C-0.8125 2.4375 -0.8125 2.4375 -2 5 C-2.99 5.33 -3.98 5.66 -5 6 C-5.66 5.67 -6.32 5.34 -7 5 C-7 4.34 -7 3.68 -7 3 C-4.4385343 0.70351351 -3.52032428 0 0 0 Z " fill="#525A60" transform="translate(320,168)"/>
<path d="M0 0 C0 0.99 0 1.98 0 3 C-2.31 3.66 -4.62 4.32 -7 5 C-7.33 4.01 -7.66 3.02 -8 2 C-4.77208445 -0.1519437 -3.71599191 -0.20086443 0 0 Z " fill="#4E575D" transform="translate(338,153)"/>
<path d="M0 0 C-1 3 -1 3 -2.84765625 3.94921875 C-3.57855469 4.19285156 -4.30945313 4.43648437 -5.0625 4.6875 C-6.16271484 5.06455078 -6.16271484 5.06455078 -7.28515625 5.44921875 C-7.85105469 5.63097656 -8.41695312 5.81273437 -9 6 C-9 5.01 -9 4.02 -9 3 C-2.25 0 -2.25 0 0 0 Z " fill="#1C8E4A" transform="translate(174,135)"/>
<path d="M0 0 C1.32 0.33 2.64 0.66 4 1 C4.33 5.29 4.66 9.58 5 14 C3.40964498 10.81928996 2.35151732 8.12342347 1.375 4.75 C0.98441406 3.41195312 0.98441406 3.41195312 0.5859375 2.046875 C0.39257812 1.37140625 0.19921875 0.6959375 0 0 Z " fill="#CBF4E0" transform="translate(201,91)"/>
<path d="M0 0 C2.64 1.98 5.28 3.96 8 6 C8.66 5.67 9.32 5.34 10 5 C9.67 5.99 9.34 6.98 9 8 C5.12793601 7.42636089 2.81534937 5.65894107 0 3 C0 2.01 0 1.02 0 0 Z " fill="#1F8A4A" transform="translate(121,71)"/>
<path d="M0 0 C1.98 0.495 1.98 0.495 4 1 C3.67 2.32 3.34 3.64 3 5 C1.68 5 0.36 5 -1 5 C-0.67 3.35 -0.34 1.7 0 0 Z " fill="#4F565D" transform="translate(394,144)"/>
<path d="M0 0 C0.99 3.3 1.98 6.6 3 10 C2.01 9.67 1.02 9.34 0 9 C-0.33 6.69 -0.66 4.38 -1 2 C-2.32 1.67 -3.64 1.34 -5 1 C-2 0 -2 0 0 0 Z " fill="#319157" transform="translate(47,67)"/>
<path d="M0 0 C0.66 0 1.32 0 2 0 C1.6875 2.375 1.6875 2.375 1 5 C-2.22791555 7.1519437 -3.28400809 7.20086443 -7 7 C-6.34 6.34 -5.68 5.68 -5 5 C-3.68 5 -2.36 5 -1 5 C-0.67 3.35 -0.34 1.7 0 0 Z " fill="#178A47" transform="translate(157,50)"/>
<path d="M0 0 C0.33 0.99 0.66 1.98 1 3 C0.319375 3.61875 0.319375 3.61875 -0.375 4.25 C-2.05950374 6.06408095 -2.99265971 7.75285627 -4 10 C-4.8125 8.375 -4.8125 8.375 -5 6 C-3.53181864 3.75390165 -1.84147142 1.97621323 0 0 Z " fill="#CCF7E4" transform="translate(100,134)"/>
<path d="M0 0 C1.32 0.33 2.64 0.66 4 1 C4 1.66 4 2.32 4 3 C4.99 3 5.98 3 7 3 C7.33 4.65 7.66 6.3 8 8 C6.85073734 7.04578192 5.70569459 6.08647955 4.5625 5.125 C3.92441406 4.59132813 3.28632812 4.05765625 2.62890625 3.5078125 C1 2 1 2 0 0 Z " fill="#BEECD6" transform="translate(110,99)"/>
<path d="M0 0 C0.66 0.33 1.32 0.66 2 1 C1.04882866 2.1725131 0.08882991 3.33787015 -0.875 4.5 C-1.40867187 5.1496875 -1.94234375 5.799375 -2.4921875 6.46875 C-2.98976563 6.9740625 -3.48734375 7.479375 -4 8 C-4.66 8 -5.32 8 -6 8 C-4.55746343 4.63408134 -2.66735273 2.48952921 0 0 Z " fill="#D4FAE9" transform="translate(82,47)"/>
<path d="M0 0 C2.31 0.33 4.62 0.66 7 1 C6.67 1.66 6.34 2.32 6 3 C3.69 3 1.38 3 -1 3 C-0.67 2.01 -0.34 1.02 0 0 Z " fill="#585F62" transform="translate(649,172)"/>
<path d="M0 0 C0.99 0 1.98 0 3 0 C3 1.98 3 3.96 3 6 C2.01 6.33 1.02 6.66 0 7 C0 4.69 0 2.38 0 0 Z " fill="#464E53" transform="translate(531,160)"/>
<path d="M0 0 C-0.33 1.32 -0.66 2.64 -1 4 C-1.598125 3.54625 -2.19625 3.0925 -2.8125 2.625 C-4.50590652 1.36704087 -6.24477086 0.17015276 -8 -1 C-4.59745511 -2.2151946 -3.06748874 -1.86240388 0 0 Z " fill="#565D62" transform="translate(711,155)"/>
<path d="M0 0 C3.3 1.98 6.6 3.96 10 6 C7 7 7 7 3.875 5.8125 C1 4 1 4 0 0 Z " fill="#CCF6E3" transform="translate(27,148)"/>
<path d="M0 0 C0.66 1.32 1.32 2.64 2 4 C0.07423885 6.43929746 -1.80090595 8.80090595 -4 11 C-3.39301257 6.87248551 -1.96189209 3.6678852 0 0 Z " fill="#239452" transform="translate(98,131)"/>
<path d="M0 0 C0.99 0.33 1.98 0.66 3 1 C1.02 3.31 -0.96 5.62 -3 8 C-3.33 6.68 -3.66 5.36 -4 4 C-2.0625 1.75 -2.0625 1.75 0 0 Z " fill="#289452" transform="translate(37,92)"/>
<path d="M0 0 C0.33 0.99 0.66 1.98 1 3 C-0.25 4.5625 -0.25 4.5625 -2 6 C-4.1875 5.6875 -4.1875 5.6875 -6 5 C-4.02 3.35 -2.04 1.7 0 0 Z " fill="#1D8C48" transform="translate(29,75)"/>
<path d="M0 0 C0.53625 0.226875 1.0725 0.45375 1.625 0.6875 C-5 4.6875 -5 4.6875 -8.375 4.6875 C-8.375 4.0275 -8.375 3.3675 -8.375 2.6875 C-2.95961538 -0.38942308 -2.95961538 -0.38942308 0 0 Z " fill="#1E8848" transform="translate(489.375,108.3125)"/>
<path d="M0 0 C2.97 0.33 5.94 0.66 9 1 C9 1.99 9 2.98 9 4 C6.03 3.01 3.06 2.02 0 1 C0 0.67 0 0.34 0 0 Z " fill="#299252" transform="translate(452,110)"/>
<path d="M0 0 C3.25543229 0.34879632 4.01873107 1.02133261 6.25 3.5625 C6.8275 4.366875 7.405 5.17125 8 6 C5 6 5 6 3.61328125 4.6875 C2.40885417 3.125 1.20442708 1.5625 0 0 Z " fill="#299253" transform="translate(120,96)"/>
<path d="M0 0 C2.97 0 5.94 0 9 0 C9 0.66 9 1.32 9 2 C9.66 2.33 10.32 2.66 11 3 C9.741875 2.87625 8.48375 2.7525 7.1875 2.625 C6.12595703 2.52058594 6.12595703 2.52058594 5.04296875 2.4140625 C3 2 3 2 0 0 Z " fill="#35965B" transform="translate(459,81)"/>
<path d="M0 0 C0.99 0.33 1.98 0.66 3 1 C0.36 2.65 -2.28 4.3 -5 6 C-5.99 4.68 -6.98 3.36 -8 2 C-6.865625 1.855625 -5.73125 1.71125 -4.5625 1.5625 C-1.19222799 1.38828522 -1.19222799 1.38828522 0 0 Z " fill="#C8F9E1" transform="translate(133,72)"/>
<path d="M0 0 C7.50769231 -0.36923077 7.50769231 -0.36923077 10 1.5 C10.495 2.2425 10.495 2.2425 11 3 C9.741875 2.87625 8.48375 2.7525 7.1875 2.625 C6.12595703 2.52058594 6.12595703 2.52058594 5.04296875 2.4140625 C3 2 3 2 0 0 Z " fill="#C1F0D9" transform="translate(472,71)"/>
<path d="M0 0 C0.99 0.33 1.98 0.66 3 1 C0.525 4.465 0.525 4.465 -2 8 C-2.33 7.01 -2.66 6.02 -3 5 C-2.67 4.34 -2.34 3.68 -2 3 C-1.34 3 -0.68 3 0 3 C0 2.01 0 1.02 0 0 Z " fill="#2A9557" transform="translate(154,174)"/>
<path d="M0 0 C0.33 0 0.66 0 1 0 C1 4.29 1 8.58 1 13 C0.01 13 -0.98 13 -2 13 C-1.34 8.71 -0.68 4.42 0 0 Z " fill="#3A4149" transform="translate(523,161)"/>
<path d="M0 0 C1.98 0 3.96 0 6 0 C6 0.99 6 1.98 6 3 C4.35 3 2.7 3 1 3 C0.67 2.01 0.34 1.02 0 0 Z " fill="#5B6167" transform="translate(605,152)"/>
<path d="M0 0 C1.32 0 2.64 0 4 0 C4 2.64 4 5.28 4 8 C3.34 7.67 2.68 7.34 2 7 C1.26924352 4.6859378 0.59861742 2.35171131 0 0 Z " fill="#40484E" transform="translate(276,153)"/>
<path d="M0 0 C0 0.99 0 1.98 0 3 C-3.4352048 5.29013653 -4.985331 5.17842973 -9 5 C-6.08596738 3.05731159 -3.14191424 1.53604696 0 0 Z " fill="#2E965A" transform="translate(72,133)"/>
<path d="M0 0 C3.36720387 1.39332574 4.9859524 2.9789286 7 6 C4 6 4 6 1.8125 4.125 C0 2 0 2 0 0 Z " fill="#399C60" transform="translate(81,98)"/>
<path d="M0 0 C0.99 0 1.98 0 3 0 C5.25 2.25 5.25 2.25 7 5 C6.67 6.32 6.34 7.64 6 9 C4.02 6.03 2.04 3.06 0 0 Z " fill="#218F4D" transform="translate(176,91)"/>
<path d="M0 0 C0.33 0.66 0.66 1.32 1 2 C-3.30769231 5.07692308 -3.30769231 5.07692308 -6.8125 4.6875 C-7.534375 4.460625 -8.25625 4.23375 -9 4 C-6.3144406 1.3144406 -3.62378672 0.93950026 0 0 Z " fill="#C1EBD8" transform="translate(55,85)"/>
<path d="M0 0 C0.66 0.33 1.32 0.66 2 1 C0.68 4.3 -0.64 7.6 -2 11 C-2.33 11 -2.66 11 -3 11 C-3.32613618 6.32538149 -2.70582788 3.83325617 0 0 Z " fill="#188745" transform="translate(59,43)"/>
<path d="M0 0 C0.33 0 0.66 0 1 0 C1 2.64 1 5.28 1 8 C-0.32 7.34 -1.64 6.68 -3 6 C-2.67 4.68 -2.34 3.36 -2 2 C-1.34 2 -0.68 2 0 2 C0 1.34 0 0.68 0 0 Z " fill="#4B545B" transform="translate(713,165)"/>
<path d="M0 0 C0.33 0 0.66 0 1 0 C1.625 2.8125 1.625 2.8125 2 6 C1.34 6.99 0.68 7.98 0 9 C-1 8 -1 8 -1.125 4.5 C-1 1 -1 1 0 0 Z " fill="#62666B" transform="translate(301,159)"/>
<path d="M0 0 C2.31 0 4.62 0 7 0 C6.67 0.66 6.34 1.32 6 2 C3.67843403 2.40729228 1.3431213 2.74438677 -1 3 C-0.67 2.01 -0.34 1.02 0 0 Z " fill="#404950" transform="translate(411,153)"/>
<path d="M0 0 C2.475 0.495 2.475 0.495 5 1 C5.33 3.31 5.66 5.62 6 8 C3.87961365 5.38485683 1.86908256 2.80362384 0 0 Z " fill="#D9FAEB" transform="translate(96,126)"/>
<path d="M0 0 C0.66 0 1.32 0 2 0 C0.60667426 3.36720387 -0.9789286 4.9859524 -4 7 C-3.67 5.35 -3.34 3.7 -3 2 C-2.01 2 -1.02 2 0 2 C0 1.34 0 0.68 0 0 Z " fill="#24914E" transform="translate(138,93)"/>
<path d="M0 0 C0.33 0.99 0.66 1.98 1 3 C0.01 4.485 0.01 4.485 -1 6 C-1.66 6 -2.32 6 -3 6 C-3 6.66 -3 7.32 -3 8 C-3.66 8 -4.32 8 -5 8 C-3.62845496 5.04590299 -2.01136276 2.55991624 0 0 Z " fill="#2D9457" transform="translate(22,81)"/>
</svg>
